  0
SECTION
  2
HEADER
  9
$ACADVER
  1
AC1021
  9
$ACADMAINTVER
 70
25
  9
$DWGCODEPAGE
  3
ANSI_1252
  9
$LASTSAVEDBY
  1
ezdxf
  9
$INSBASE
 10
0.0
 20
0.0
 30
0.0
  9
$EXTMIN
 10
1e+20
 20
1e+20
 30
1e+20
  9
$EXTMAX
 10
-1e+20
 20
-1e+20
 30
-1e+20
  9
$LIMMIN
 10
0.0
 20
0.0
  9
$LIMMAX
 10
420.0
 20
297.0
  9
$ORTHOMODE
 70
0
  9
$REGENMODE
 70
1
  9
$FILLMODE
 70
1
  9
$QTEXTMODE
 70
0
  9
$MIRRTEXT
 70
1
  9
$LTSCALE
 40
1.0
  9
$ATTMODE
 70
1
  9
$TEXTSIZE
 40
2.5
  9
$TRACEWID
 40
1.0
  9
$TEXTSTYLE
  7
Standard
  9
$CLAYER
  8
0
  9
$CELTYPE
  6
ByLayer
  9
$CECOLOR
 62
256
  9
$CELTSCALE
 40
1.0
  9
$DISPSILH
 70
0
  9
$DIMSCALE
 40
1.0
  9
$DIMASZ
 40
2.5
  9
$DIMEXO
 40
0.625
  9
$DIMDLI
 40
3.75
  9
$DIMRND
 40
0.0
  9
$DIMDLE
 40
0.0
  9
$DIMEXE
 40
1.25
  9
$DIMTP
 40
0.0
  9
$DIMTM
 40
0.0
  9
$DIMTXT
 40
2.5
  9
$DIMCEN
 40
2.5
  9
$DIMTSZ
 40
0.0
  9
$DIMTOL
 70
0
  9
$DIMLIM
 70
0
  9
$DIMTIH
 70
0
  9
$DIMTOH
 70
0
  9
$DIMSE1
 70
0
  9
$DIMSE2
 70
0
  9
$DIMTAD
 70
1
  9
$DIMZIN
 70
8
  9
$DIMBLK
  1

  9
$DIMASO
 70
1
  9
$DIMSHO
 70
1
  9
$DIMPOST
  1

  9
$DIMAPOST
  1

  9
$DIMALT
 70
0
  9
$DIMALTD
 70
3
  9
$DIMALTF
 40
0.03937007874
  9
$DIMLFAC
 40
1.0
  9
$DIMTOFL
 70
1
  9
$DIMTVP
 40
0.0
  9
$DIMTIX
 70
0
  9
$DIMSOXD
 70
0
  9
$DIMSAH
 70
0
  9
$DIMBLK1
  1

  9
$DIMBLK2
  1

  9
$DIMSTYLE
  2
ISO-25
  9
$DIMCLRD
 70
0
  9
$DIMCLRE
 70
0
  9
$DIMCLRT
 70
0
  9
$DIMTFAC
 40
1.0
  9
$DIMGAP
 40
0.625
  9
$DIMJUST
 70
0
  9
$DIMSD1
 70
0
  9
$DIMSD2
 70
0
  9
$DIMTOLJ
 70
0
  9
$DIMTZIN
 70
8
  9
$DIMALTZ
 70
0
  9
$DIMALTTZ
 70
0
  9
$DIMUPT
 70
0
  9
$DIMDEC
 70
2
  9
$DIMTDEC
 70
2
  9
$DIMALTU
 70
2
  9
$DIMALTTD
 70
3
  9
$DIMTXSTY
  7
Standard
  9
$DIMAUNIT
 70
0
  9
$DIMADEC
 70
0
  9
$DIMALTRND
 40
0.0
  9
$DIMAZIN
 70
0
  9
$DIMDSEP
 70
44
  9
$DIMATFIT
 70
3
  9
$DIMFRAC
 70
0
  9
$DIMLDRBLK
  1

  9
$DIMLUNIT
 70
2
  9
$DIMLWD
 70
-2
  9
$DIMLWE
 70
-2
  9
$DIMTMOVE
 70
0
  9
$DIMFXL
 40
1.0
  9
$DIMFXLON
 70
0
  9
$DIMJOGANG
 40
0.785398163397
  9
$DIMTFILL
 70
0
  9
$DIMTFILLCLR
 70
0
  9
$DIMARCSYM
 70
0
  9
$DIMLTYPE
  6

  9
$DIMLTEX1
  6

  9
$DIMLTEX2
  6

  9
$LUNITS
 70
2
  9
$LUPREC
 70
4
  9
$SKETCHINC
 40
1.0
  9
$FILLETRAD
 40
10.0
  9
$AUNITS
 70
0
  9
$AUPREC
 70
2
  9
$MENU
  1
.
  9
$ELEVATION
 40
0.0
  9
$PELEVATION
 40
0.0
  9
$THICKNESS
 40
0.0
  9
$LIMCHECK
 70
0
  9
$CHAMFERA
 40
0.0
  9
$CHAMFERB
 40
0.0
  9
$CHAMFERC
 40
0.0
  9
$CHAMFERD
 40
0.0
  9
$SKPOLY
 70
0
  9
$TDCREATE
 40
2460556.7134375
  9
$TDUCREATE
 40
2458532.153996898
  9
$TDUPDATE
 40
2460556.7134375
  9
$TDUUPDATE
 40
2458532.1544311
  9
$TDINDWG
 40
0.0
  9
$TDUSRTIMER
 40
0.0
  9
$USRTIMER
 70
1
  9
$ANGBASE
 50
0.0
  9
$ANGDIR
 70
0
  9
$PDMODE
 70
0
  9
$PDSIZE
 40
0.0
  9
$PLINEWID
 40
0.0
  9
$SPLFRAME
 70
0
  9
$SPLINETYPE
 70
6
  9
$SPLINESEGS
 70
8
  9
$HANDSEED
  5
C70
  9
$SURFTAB1
 70
6
  9
$SURFTAB2
 70
6
  9
$SURFTYPE
 70
6
  9
$SURFU
 70
6
  9
$SURFV
 70
6
  9
$UCSBASE
  2

  9
$UCSNAME
  2

  9
$UCSORG
 10
0.0
 20
0.0
 30
0.0
  9
$UCSXDIR
 10
1.0
 20
0.0
 30
0.0
  9
$UCSYDIR
 10
0.0
 20
1.0
 30
0.0
  9
$UCSORTHOREF
  2

  9
$UCSORTHOVIEW
 70
0
  9
$UCSORGTOP
 10
0.0
 20
0.0
 30
0.0
  9
$UCSORGBOTTOM
 10
0.0
 20
0.0
 30
0.0
  9
$UCSORGLEFT
 10
0.0
 20
0.0
 30
0.0
  9
$UCSORGRIGHT
 10
0.0
 20
0.0
 30
0.0
  9
$UCSORGFRONT
 10
0.0
 20
0.0
 30
0.0
  9
$UCSORGBACK
 10
0.0
 20
0.0
 30
0.0
  9
$PUCSBASE
  2

  9
$PUCSNAME
  2

  9
$PUCSORG
 10
0.0
 20
0.0
 30
0.0
  9
$PUCSXDIR
 10
1.0
 20
0.0
 30
0.0
  9
$PUCSYDIR
 10
0.0
 20
1.0
 30
0.0
  9
$PUCSORTHOREF
  2

  9
$PUCSORTHOVIEW
 70
0
  9
$PUCSORGTOP
 10
0.0
 20
0.0
 30
0.0
  9
$PUCSORGBOTTOM
 10
0.0
 20
0.0
 30
0.0
  9
$PUCSORGLEFT
 10
0.0
 20
0.0
 30
0.0
  9
$PUCSORGRIGHT
 10
0.0
 20
0.0
 30
0.0
  9
$PUCSORGFRONT
 10
0.0
 20
0.0
 30
0.0
  9
$PUCSORGBACK
 10
0.0
 20
0.0
 30
0.0
  9
$USERI1
 70
0
  9
$USERI2
 70
0
  9
$USERI3
 70
0
  9
$USERI4
 70
0
  9
$USERI5
 70
0
  9
$USERR1
 40
0.0
  9
$USERR2
 40
0.0
  9
$USERR3
 40
0.0
  9
$USERR4
 40
0.0
  9
$USERR5
 40
0.0
  9
$WORLDVIEW
 70
1
  9
$SHADEDGE
 70
3
  9
$SHADEDIF
 70
70
  9
$TILEMODE
 70
1
  9
$MAXACTVP
 70
64
  9
$PINSBASE
 10
0.0
 20
0.0
 30
0.0
  9
$PLIMCHECK
 70
0
  9
$PEXTMIN
 10
1e+20
 20
1e+20
 30
1e+20
  9
$PEXTMAX
 10
-1e+20
 20
-1e+20
 30
-1e+20
  9
$PLIMMIN
 10
0.0
 20
0.0
  9
$PLIMMAX
 10
420.0
 20
297.0
  9
$UNITMODE
 70
0
  9
$VISRETAIN
 70
1
  9
$PLINEGEN
 70
0
  9
$PSLTSCALE
 70
1
  9
$TREEDEPTH
 70
3020
  9
$CMLSTYLE
  2
Standard
  9
$CMLJUST
 70
0
  9
$CMLSCALE
 40
20.0
  9
$PROXYGRAPHICS
 70
1
  9
$MEASUREMENT
 70
1
  9
$CELWEIGHT
370
-1
  9
$ENDCAPS
280
0
  9
$JOINSTYLE
280
0
  9
$LWDISPLAY
290
0
  9
$INSUNITS
 70
6
  9
$HYPERLINKBASE
  1

  9
$STYLESHEET
  1

  9
$XEDIT
290
1
  9
$CEPSNTYPE
380
0
  9
$PSTYLEMODE
290
1
  9
$FINGERPRINTGUID
  2
{8CBE9578-FBF9-446D-9089-6E678BF62411}
  9
$VERSIONGUID
  2
{B5C2356F-6F9F-4598-88FC-EF386D639C2D}
  9
$EXTNAMES
290
1
  9
$PSVPSCALE
 40
0.0
  9
$OLESTARTUP
290
0
  9
$SORTENTS
280
127
  9
$INDEXCTL
280
0
  9
$HIDETEXT
280
1
  9
$XCLIPFRAME
290
1
  9
$HALOGAP
280
0
  9
$OBSCOLOR
 70
257
  9
$OBSLTYPE
280
0
  9
$INTERSECTIONDISPLAY
280
0
  9
$INTERSECTIONCOLOR
 70
257
  9
$DIMASSOC
280
2
  9
$PROJECTNAME
  1

  9
$CAMERADISPLAY
290
0
  9
$LENSLENGTH
 40
50.0
  9
$CAMERAHEIGHT
 40
0.0
  9
$STEPSPERSEC
 40
24.0
  9
$STEPSIZE
 40
100.0
  9
$3DDWFPREC
 40
2.0
  9
$PSOLWIDTH
 40
0.005
  9
$PSOLHEIGHT
 40
0.08
  9
$LOFTANG1
 40
1.570796326795
  9
$LOFTANG2
 40
1.570796326795
  9
$LOFTMAG1
 40
0.0
  9
$LOFTMAG2
 40
0.0
  9
$LOFTPARAM
 70
7
  9
$LOFTNORMALS
280
1
  9
$LATITUDE
 40
37.795
  9
$LONGITUDE
 40
-122.394
  9
$NORTHDIRECTION
 40
0.0
  9
$TIMEZONE
 70
-8000
  9
$LIGHTGLYPHDISPLAY
280
1
  9
$TILEMODELIGHTSYNCH
280
1
  9
$CMATERIAL
347
20
  9
$SOLIDHIST
280
0
  9
$SHOWHIST
280
1
  9
$DWFFRAME
280
2
  9
$DGNFRAME
280
2
  9
$REALWORLDSCALE
290
1
  9
$INTERFERECOLOR
 62
256
  9
$CSHADOW
280
0
  9
$SHADOWPLANELOCATION
 40
0.0
  0
ENDSEC
  0
SECTION
  2
CLASSES
  0
CLASS
  1
ACDBDICTIONARYWDFLT
  2
AcDbDictionaryWithDefault
  3
ObjectDBX Classes
 90
0
 91
0
280
0
281
0
  0
CLASS
  1
SUN
  2
AcDbSun
  3
SCENEOE
 90
1153
 91
0
280
0
281
0
  0
CLASS
  1
VISUALSTYLE
  2
AcDbVisualStyle
  3
ObjectDBX Classes
 90
4095
 91
0
280
0
281
0
  0
CLASS
  1
MATERIAL
  2
AcDbMaterial
  3
ObjectDBX Classes
 90
1153
 91
0
280
0
281
0
  0
CLASS
  1
SCALE
  2
AcDbScale
  3
ObjectDBX Classes
 90
1153
 91
0
280
0
281
0
  0
CLASS
  1
TABLESTYLE
  2
AcDbTableStyle
  3
ObjectDBX Classes
 90
4095
 91
0
280
0
281
0
  0
CLASS
  1
MLEADERSTYLE
  2
AcDbMLeaderStyle
  3
ACDB_MLEADERSTYLE_CLASS
 90
4095
 91
0
280
0
281
0
  0
CLASS
  1
DICTIONARYVAR
  2
AcDbDictionaryVar
  3
ObjectDBX Classes
 90
0
 91
0
280
0
281
0
  0
CLASS
  1
CELLSTYLEMAP
  2
AcDbCellStyleMap
  3
ObjectDBX Classes
 90
1152
 91
0
280
0
281
0
  0
CLASS
  1
MENTALRAYRENDERSETTINGS
  2
AcDbMentalRayRenderSettings
  3
SCENEOE
 90
1024
 91
0
280
0
281
0
  0
CLASS
  1
ACDBDETAILVIEWSTYLE
  2
AcDbDetailViewStyle
  3
ObjectDBX Classes
 90
1025
 91
0
280
0
281
0
  0
CLASS
  1
ACDBSECTIONVIEWSTYLE
  2
AcDbSectionViewStyle
  3
ObjectDBX Classes
 90
1025
 91
0
280
0
281
0
  0
CLASS
  1
RASTERVARIABLES
  2
AcDbRasterVariables
  3
ISM
 90
0
 91
0
280
0
281
0
  0
CLASS
  1
LAYOUT
  2
AcDbLayout
  3
ObjectDBX Classes
 90
0
 91
0
280
0
281
0
  0
CLASS
  1
ACDBPLACEHOLDER
  2
AcDbPlaceHolder
  3
ObjectDBX Classes
 90
0
 91
0
280
0
281
0
  0
ENDSEC
  0
SECTION
  2
TABLES
  0
TABLE
  2
VPORT
  5
8
330
0
100
AcDbSymbolTable
 70
1
  0
VPORT
  5
23
330
8
100
AcDbSymbolTableRecord
100
AcDbViewportTableRecord
  2
*Active
 70
0
 10
0.0
 20
0.0
 11
1.0
 21
1.0
 12
0.0
 22
0.0
 13
0.0
 23
0.0
 14
0.5
 24
0.5
 15
0.5
 25
0.5
 16
0.0
 26
0.0
 36
1.0
 17
0.0
 27
0.0
 37
0.0
 40
1000.0
 41
1.34
 42
50.0
 43
0.0
 44
0.0
 50
0.0
 51
0.0
 71
0
 72
1000
 73
1
 74
3
 75
0
 76
0
 77
0
 78
0
281
0
 65
0
146
0.0
  0
ENDTAB
  0
TABLE
  2
LTYPE
  5
2
330
0
100
AcDbSymbolTable
 70
21
  0
LTYPE
  5
24
330
2
100
AcDbSymbolTableRecord
100
AcDbLinetypeTableRecord
  2
ByBlock
 70
0
  3

 72
65
 73
0
 40
0.0
  0
LTYPE
  5
25
330
2
100
AcDbSymbolTableRecord
100
AcDbLinetypeTableRecord
  2
ByLayer
 70
0
  3

 72
65
 73
0
 40
0.0
  0
LTYPE
  5
26
330
2
100
AcDbSymbolTableRecord
100
AcDbLinetypeTableRecord
  2
Continuous
 70
0
  3

 72
65
 73
0
 40
0.0
  0
LTYPE
  5
2F
330
2
100
AcDbSymbolTableRecord
100
AcDbLinetypeTableRecord
  2
CENTER
 70
0
  3
Center ____ _ ____ _ ____ _ ____ _ ____ _ ____
 72
65
 73
4
 40
5.08
 49
3.175
 74
0
 49
-0.635
 74
0
 49
0.635
 74
0
 49
-0.635
 74
0
  0
LTYPE
  5
30
330
2
100
AcDbSymbolTableRecord
100
AcDbLinetypeTableRecord
  2
CENTERX2
 70
0
  3
Center (2x) ________  __  ________  __  ________
 72
65
 73
4
 40
8.89
 49
6.35
 74
0
 49
-0.635
 74
0
 49
1.27
 74
0
 49
-0.635
 74
0
  0
LTYPE
  5
31
330
2
100
AcDbSymbolTableRecord
100
AcDbLinetypeTableRecord
  2
CENTER2
 70
0
  3
Center (.5x) ____ _ ____ _ ____ _ ____ _ ____
 72
65
 73
4
 40
2.54
 49
1.587
 74
0
 49
-0.318
 74
0
 49
0.318
 74
0
 49
-0.318
 74
0
  0
LTYPE
  5
32
330
2
100
AcDbSymbolTableRecord
100
AcDbLinetypeTableRecord
  2
DASHED
 70
0
  3
Dashed __ __ __ __ __ __ __ __ __ __ __ __ __ _
 72
65
 73
2
 40
1.524
 49
1.27
 74
0
 49
-0.254
 74
0
  0
LTYPE
  5
33
330
2
100
AcDbSymbolTableRecord
100
AcDbLinetypeTableRecord
  2
DASHEDX2
 70
0
  3
Dashed (2x) ____  ____  ____  ____  ____  ____
 72
65
 73
2
 40
3.048
 49
2.54
 74
0
 49
-0.508
 74
0
  0
LTYPE
  5
34
330
2
100
AcDbSymbolTableRecord
100
AcDbLinetypeTableRecord
  2
DASHED2
 70
0
  3
Dashed (.5x) _ _ _ _ _ _ _ _ _ _ _ _ _ _
 72
65
 73
2
 40
0.762
 49
0.635
 74
0
 49
-0.127
 74
0
  0
LTYPE
  5
35
330
2
100
AcDbSymbolTableRecord
100
AcDbLinetypeTableRecord
  2
PHANTOM
 70
0
  3
Phantom ______  __  __  ______  __  __  ______
 72
65
 73
6
 40
6.35
 49
3.175
 74
0
 49
-0.635
 74
0
 49
0.635
 74
0
 49
-0.635
 74
0
 49
0.635
 74
0
 49
-0.635
 74
0
  0
LTYPE
  5
36
330
2
100
AcDbSymbolTableRecord
100
AcDbLinetypeTableRecord
  2
PHANTOMX2
 70
0
  3
Phantom (2x)____________    ____    ____    ____________
 72
65
 73
6
 40
10.795
 49
6.35
 74
0
 49
-0.635
 74
0
 49
1.27
 74
0
 49
-0.635
 74
0
 49
1.27
 74
0
 49
-0.635
 74
0
  0
LTYPE
  5
37
330
2
100
AcDbSymbolTableRecord
100
AcDbLinetypeTableRecord
  2
PHANTOM2
 70
0
  3
Phantom (.5x) ___ _ _ ___ _ _ ___ _ _ ___ _ _ ___
 72
65
 73
6
 40
3.175
 49
1.587
 74
0
 49
-0.318
 74
0
 49
0.318
 74
0
 49
-0.318
 74
0
 49
0.318
 74
0
 49
-0.318
 74
0
  0
LTYPE
  5
38
330
2
100
AcDbSymbolTableRecord
100
AcDbLinetypeTableRecord
  2
DASHDOT
 70
0
  3
Dash dot __ . __ . __ . __ . __ . __ . __ . __
 72
65
 73
4
 40
3.556
 49
2.54
 74
0
 49
-0.508
 74
0
 49
0.0
 74
0
 49
-0.508
 74
0
  0
LTYPE
  5
39
330
2
100
AcDbSymbolTableRecord
100
AcDbLinetypeTableRecord
  2
DASHDOTX2
 70
0
  3
Dash dot (2x) ____  .  ____  .  ____  .  ____
 72
65
 73
4
 40
6.096
 49
5.08
 74
0
 49
-0.508
 74
0
 49
0.0
 74
0
 49
-0.508
 74
0
  0
LTYPE
  5
3A
330
2
100
AcDbSymbolTableRecord
100
AcDbLinetypeTableRecord
  2
DASHDOT2
 70
0
  3
Dash dot (.5x) _ . _ . _ . _ . _ . _ . _ . _
 72
65
 73
4
 40
1.778
 49
1.27
 74
0
 49
-0.254
 74
0
 49
0.0
 74
0
 49
-0.254
 74
0
  0
LTYPE
  5
3B
330
2
100
AcDbSymbolTableRecord
100
AcDbLinetypeTableRecord
  2
DOT
 70
0
  3
Dot .  .  .  .  .  .  .  .  .  .  .  .  .  .  .  .
 72
65
 73
2
 40
0.508
 49
0.0
 74
0
 49
-0.508
 74
0
  0
LTYPE
  5
3C
330
2
100
AcDbSymbolTableRecord
100
AcDbLinetypeTableRecord
  2
DOTX2
 70
0
  3
Dot (2x) .    .    .    .    .    .    .    . 
 72
65
 73
2
 40
1.016
 49
0.0
 74
0
 49
-1.016
 74
0
  0
LTYPE
  5
3D
330
2
100
AcDbSymbolTableRecord
100
AcDbLinetypeTableRecord
  2
DOT2
 70
0
  3
Dot (.5) . . . . . . . . . . . . . . . . . . . 
 72
65
 73
2
 40
0.254
 49
0.0
 74
0
 49
-0.254
 74
0
  0
LTYPE
  5
3E
330
2
100
AcDbSymbolTableRecord
100
AcDbLinetypeTableRecord
  2
DIVIDE
 70
0
  3
Divide __ . . __ . . __ . . __ . . __ . . __
 72
65
 73
6
 40
4.064
 49
2.54
 74
0
 49
-0.508
 74
0
 49
0.0
 74
0
 49
-0.508
 74
0
 49
0.0
 74
0
 49
-0.508
 74
0
  0
LTYPE
  5
3F
330
2
100
AcDbSymbolTableRecord
100
AcDbLinetypeTableRecord
  2
DIVIDEX2
 70
0
  3
Divide (2x) ____  . .  ____  . .  ____  . .  ____
 72
65
 73
6
 40
6.604
 49
5.08
 74
0
 49
-0.508
 74
0
 49
0.0
 74
0
 49
-0.508
 74
0
 49
0.0
 74
0
 49
-0.508
 74
0
  0
LTYPE
  5
40
330
2
100
AcDbSymbolTableRecord
100
AcDbLinetypeTableRecord
  2
DIVIDE2
 70
0
  3
Divide(.5x) _ . _ . _ . _ . _ . _ . _ . _
 72
65
 73
6
 40
2.032
 49
1.27
 74
0
 49
-0.254
 74
0
 49
0.0
 74
0
 49
-0.254
 74
0
 49
0.0
 74
0
 49
-0.254
 74
0
  0
ENDTAB
  0
TABLE
  2
LAYER
  5
1
330
0
100
AcDbSymbolTable
 70
2
  0
LAYER
  5
27
330
1
100
AcDbSymbolTableRecord
100
AcDbLayerTableRecord
  2
0
 70
0
 62
7
  6
Continuous
370
-3
390
13
347
21
  0
LAYER
  5
28
330
1
100
AcDbSymbolTableRecord
100
AcDbLayerTableRecord
  2
Defpoints
 70
0
 62
7
  6
Continuous
290
0
370
-3
390
13
347
21
  0
ENDTAB
  0
TABLE
  2
STYLE
  5
5
330
0
100
AcDbSymbolTable
 70
1
  0
STYLE
  5
29
330
5
100
AcDbSymbolTableRecord
100
AcDbTextStyleTableRecord
  2
Standard
 70
0
 40
0.0
 41
1.0
 50
0.0
 71
0
 42
2.5
  3
txt
  4

  0
ENDTAB
  0
TABLE
  2
VIEW
  5
7
330
0
100
AcDbSymbolTable
 70
0
  0
ENDTAB
  0
TABLE
  2
UCS
  5
6
330
0
100
AcDbSymbolTable
 70
0
  0
ENDTAB
  0
TABLE
  2
APPID
  5
3
330
0
100
AcDbSymbolTable
 70
3
  0
APPID
  5
2A
330
3
100
AcDbSymbolTableRecord
100
AcDbRegAppTableRecord
  2
ACAD
 70
0
  0
APPID
  5
C6D
330
3
100
AcDbSymbolTableRecord
100
AcDbRegAppTableRecord
  2
HATCHBACKGROUNDCOLOR
 70
0
  0
APPID
  5
C6E
330
3
100
AcDbSymbolTableRecord
100
AcDbRegAppTableRecord
  2
EZDXF
 70
0
  0
ENDTAB
  0
TABLE
  2
DIMSTYLE
  5
4
330
0
100
AcDbSymbolTable
 70
1
100
AcDbDimStyleTable
  0
DIMSTYLE
105
2B
330
4
100
AcDbSymbolTableRecord
100
AcDbDimStyleTableRecord
  2
Standard
 70
0
 40
1.0
 41
2.5
 42
0.625
 43
3.75
 44
1.25
 45
0.0
 46
0.0
 47
0.0
 48
0.0
 49
2.5
140
2.5
141
2.5
142
0.0
143
0.03937007874
144
1.0
145
0.0
146
1.0
147
0.625
148
0.0
 69
0
 70
0
 71
0
 72
0
 73
0
 74
0
 75
0
 76
0
 77
1
 78
8
 79
3
170
0
171
3
172
1
173
0
174
0
175
0
176
0
177
0
178
0
179
2
271
2
272
2
273
2
274
3
275
0
276
0
277
2
278
44
279
0
280
0
281
0
282
0
283
0
284
8
285
0
286
0
288
0
289
3
290
0
371
-2
372
-2
  0
ENDTAB
  0
TABLE
  2
BLOCK_RECORD
  5
9
330
0
100
AcDbSymbolTable
 70
15
  0
BLOCK_RECORD
  5
17
330
9
100
AcDbSymbolTableRecord
100
AcDbBlockTableRecord
  2
*Model_Space
340
1A
 70
0
280
1
281
0
  0
BLOCK_RECORD
  5
1B
330
9
100
AcDbSymbolTableRecord
100
AcDbBlockTableRecord
  2
*Paper_Space
340
1E
 70
0
280
1
281
0
  0
BLOCK_RECORD
  5
41
330
9
100
AcDbSymbolTableRecord
100
AcDbBlockTableRecord
  2
SWH_W
340
0
 70
0
280
1
281
0
  0
BLOCK_RECORD
  5
45
330
9
100
AcDbSymbolTableRecord
100
AcDbBlockTableRecord
  2
circle_pin
340
0
 70
0
280
1
281
0
  0
BLOCK_RECORD
  5
611
330
9
100
AcDbSymbolTableRecord
100
AcDbBlockTableRecord
  2
SWH_E
340
0
 70
0
280
1
281
0
  0
BLOCK_RECORD
  5
BDD
330
9
100
AcDbSymbolTableRecord
100
AcDbBlockTableRecord
  2
CLCL
340
0
 70
0
280
1
281
0
  0
BLOCK_RECORD
  5
BE1
330
9
100
AcDbSymbolTableRecord
100
AcDbBlockTableRecord
  2
SLABL
340
0
 70
0
280
1
281
0
  0
BLOCK_RECORD
  5
BE5
330
9
100
AcDbSymbolTableRecord
100
AcDbBlockTableRecord
  2
LUT
340
0
 70
0
280
1
281
0
  0
BLOCK_RECORD
  5
BE9
330
9
100
AcDbSymbolTableRecord
100
AcDbBlockTableRecord
  2
left_pin
340
0
 70
0
280
1
281
0
  0
BLOCK_RECORD
  5
BEF
330
9
100
AcDbSymbolTableRecord
100
AcDbBlockTableRecord
  2
right_pin
340
0
 70
0
280
1
281
0
  0
BLOCK_RECORD
  5
C09
330
9
100
AcDbSymbolTableRecord
100
AcDbBlockTableRecord
  2
MUX2
340
0
 70
0
280
1
281
0
  0
BLOCK_RECORD
  5
C1F
330
9
100
AcDbSymbolTableRecord
100
AcDbBlockTableRecord
  2
CLA
340
0
 70
0
280
1
281
0
  0
BLOCK_RECORD
  5
C2B
330
9
100
AcDbSymbolTableRecord
100
AcDbBlockTableRecord
  2
up_pin
340
0
 70
0
280
1
281
0
  0
BLOCK_RECORD
  5
C31
330
9
100
AcDbSymbolTableRecord
100
AcDbBlockTableRecord
  2
down_pin
340
0
 70
0
280
1
281
0
  0
BLOCK_RECORD
  5
C3B
330
9
100
AcDbSymbolTableRecord
100
AcDbBlockTableRecord
  2
MUX4
340
0
 70
0
280
1
281
0
  0
ENDTAB
  0
ENDSEC
  0
SECTION
  2
BLOCKS
  0
BLOCK
  5
18
330
17
100
AcDbEntity
  8
0
100
AcDbBlockBegin
  2
*Model_Space
 70
0
 10
0.0
 20
0.0
 30
0.0
  3
*Model_Space
  1

  0
ENDBLK
  5
19
330
17
100
AcDbEntity
  8
0
100
AcDbBlockEnd
  0
BLOCK
  5
1C
330
1B
100
AcDbEntity
  8
0
100
AcDbBlockBegin
  2
*Paper_Space
 70
0
 10
0.0
 20
0.0
 30
0.0
  3
*Paper_Space
  1

  0
ENDBLK
  5
1D
330
1B
100
AcDbEntity
  8
0
100
AcDbBlockEnd
  0
BLOCK
  5
42
330
41
100
AcDbEntity
  8
0
100
AcDbBlockBegin
  2
SWH_W
 70
0
 10
0.0
 20
0.0
 30
0.0
  3
SWH_W
  1

  0
LWPOLYLINE
  5
44
330
41
100
AcDbEntity
  8
0
100
AcDbPolyline
 90
4
 70
1
 10
0.0
 20
0.0
 10
2000.0
 20
0.0
 10
2000.0
 20
2000.0
 10
0.0
 20
2000.0
  0
INSERT
  5
49
330
41
100
AcDbEntity
  8
0
100
AcDbBlockReference
  2
circle_pin
 10
22.0
 20
0.0
 30
0.0
  0
INSERT
  5
4B
330
41
100
AcDbEntity
  8
0
100
AcDbBlockReference
  2
circle_pin
 10
26.0
 20
0.0
 30
0.0
  0
INSERT
  5
4D
330
41
100
AcDbEntity
  8
0
100
AcDbBlockReference
  2
circle_pin
 10
30.0
 20
0.0
 30
0.0
  0
INSERT
  5
4F
330
41
100
AcDbEntity
  8
0
100
AcDbBlockReference
  2
circle_pin
 10
34.0
 20
0.0
 30
0.0
  0
INSERT
  5
51
330
41
100
AcDbEntity
  8
0
100
AcDbBlockReference
  2
circle_pin
 10
38.0
 20
0.0
 30
0.0
  0
INSERT
  5
53
330
41
100
AcDbEntity
  8
0
100
AcDbBlockReference
  2
circle_pin
 10
42.0
 20
0.0
 30
0.0
  0
INSERT
  5
55
330
41
100
AcDbEntity
  8
0
100
AcDbBlockReference
  2
circle_pin
 10
46.0
 20
0.0
 30
0.0
  0
INSERT
  5
57
330
41
100
AcDbEntity
  8
0
100
AcDbBlockReference
  2
circle_pin
 10
50.0
 20
0.0
 30
0.0
  0
INSERT
  5
59
330
41
100
AcDbEntity
  8
0
100
AcDbBlockReference
  2
circle_pin
 10
58.0
 20
0.0
 30
0.0
  0
INSERT
  5
5B
330
41
100
AcDbEntity
  8
0
100
AcDbBlockReference
  2
circle_pin
 10
62.0
 20
0.0
 30
0.0
  0
INSERT
  5
5D
330
41
100
AcDbEntity
  8
0
100
AcDbBlockReference
  2
circle_pin
 10
66.0
 20
0.0
 30
0.0
  0
INSERT
  5
5F
330
41
100
AcDbEntity
  8
0
100
AcDbBlockReference
  2
circle_pin
 10
70.0
 20
0.0
 30
0.0
  0
INSERT
  5
61
330
41
100
AcDbEntity
  8
0
100
AcDbBlockReference
  2
circle_pin
 10
74.0
 20
0.0
 30
0.0
  0
INSERT
  5
63
330
41
100
AcDbEntity
  8
0
100
AcDbBlockReference
  2
circle_pin
 10
78.0
 20
0.0
 30
0.0
  0
INSERT
  5
65
330
41
100
AcDbEntity
  8
0
100
AcDbBlockReference
  2
circle_pin
 10
82.0
 20
0.0
 30
0.0
  0
INSERT
  5
67
330
41
100
AcDbEntity
  8
0
100
AcDbBlockReference
  2
circle_pin
 10
86.0
 20
0.0
 30
0.0
  0
INSERT
  5
69
330
41
100
AcDbEntity
  8
0
100
AcDbBlockReference
  2
circle_pin
 10
94.0
 20
0.0
 30
0.0
  0
INSERT
  5
6B
330
41
100
AcDbEntity
  8
0
100
AcDbBlockReference
  2
circle_pin
 10
98.0
 20
0.0
 30
0.0
  0
INSERT
  5
6D
330
41
100
AcDbEntity
  8
0
100
AcDbBlockReference
  2
circle_pin
 10
102.0
 20
0.0
 30
0.0
  0
INSERT
  5
6F
330
41
100
AcDbEntity
  8
0
100
AcDbBlockReference
  2
circle_pin
 10
106.0
 20
0.0
 30
0.0
  0
INSERT
  5
71
330
41
100
AcDbEntity
  8
0
100
AcDbBlockReference
  2
circle_pin
 10
114.0
 20
0.0
 30
0.0
  0
INSERT
  5
73
330
41
100
AcDbEntity
  8
0
100
AcDbBlockReference
  2
circle_pin
 10
118.0
 20
0.0
 30
0.0
  0
INSERT
  5
75
330
41
100
AcDbEntity
  8
0
100
AcDbBlockReference
  2
circle_pin
 10
122.0
 20
0.0
 30
0.0
  0
INSERT
  5
77
330
41
100
AcDbEntity
  8
0
100
AcDbBlockReference
  2
circle_pin
 10
126.0
 20
0.0
 30
0.0
  0
INSERT
  5
79
330
41
100
AcDbEntity
  8
0
100
AcDbBlockReference
  2
circle_pin
 10
134.0
 20
0.0
 30
0.0
  0
INSERT
  5
7B
330
41
100
AcDbEntity
  8
0
100
AcDbBlockReference
  2
circle_pin
 10
138.0
 20
0.0
 30
0.0
  0
INSERT
  5
7D
330
41
100
AcDbEntity
  8
0
100
AcDbBlockReference
  2
circle_pin
 10
142.0
 20
0.0
 30
0.0
  0
INSERT
  5
7F
330
41
100
AcDbEntity
  8
0
100
AcDbBlockReference
  2
circle_pin
 10
146.0
 20
0.0
 30
0.0
  0
INSERT
  5
81
330
41
100
AcDbEntity
  8
0
100
AcDbBlockReference
  2
circle_pin
 10
606.0
 20
0.0
 30
0.0
  0
INSERT
  5
83
330
41
100
AcDbEntity
  8
0
100
AcDbBlockReference
  2
circle_pin
 10
614.0
 20
0.0
 30
0.0
  0
INSERT
  5
85
330
41
100
AcDbEntity
  8
0
100
AcDbBlockReference
  2
circle_pin
 10
618.0
 20
0.0
 30
0.0
  0
INSERT
  5
87
330
41
100
AcDbEntity
  8
0
100
AcDbBlockReference
  2
circle_pin
 10
622.0
 20
0.0
 30
0.0
  0
INSERT
  5
89
330
41
100
AcDbEntity
  8
0
100
AcDbBlockReference
  2
circle_pin
 10
626.0
 20
0.0
 30
0.0
  0
INSERT
  5
8B
330
41
100
AcDbEntity
  8
0
100
AcDbBlockReference
  2
circle_pin
 10
634.0
 20
0.0
 30
0.0
  0
INSERT
  5
8D
330
41
100
AcDbEntity
  8
0
100
AcDbBlockReference
  2
circle_pin
 10
638.0
 20
0.0
 30
0.0
  0
INSERT
  5
8F
330
41
100
AcDbEntity
  8
0
100
AcDbBlockReference
  2
circle_pin
 10
642.0
 20
0.0
 30
0.0
  0
INSERT
  5
91
330
41
100
AcDbEntity
  8
0
100
AcDbBlockReference
  2
circle_pin
 10
646.0
 20
0.0
 30
0.0
  0
INSERT
  5
93
330
41
100
AcDbEntity
  8
0
100
AcDbBlockReference
  2
circle_pin
 10
650.0
 20
0.0
 30
0.0
  0
INSERT
  5
95
330
41
100
AcDbEntity
  8
0
100
AcDbBlockReference
  2
circle_pin
 10
654.0
 20
0.0
 30
0.0
  0
INSERT
  5
97
330
41
100
AcDbEntity
  8
0
100
AcDbBlockReference
  2
circle_pin
 10
658.0
 20
0.0
 30
0.0
  0
INSERT
  5
99
330
41
100
AcDbEntity
  8
0
100
AcDbBlockReference
  2
circle_pin
 10
662.0
 20
0.0
 30
0.0
  0
INSERT
  5
9B
330
41
100
AcDbEntity
  8
0
100
AcDbBlockReference
  2
circle_pin
 10
666.0
 20
0.0
 30
0.0
  0
INSERT
  5
9D
330
41
100
AcDbEntity
  8
0
100
AcDbBlockReference
  2
circle_pin
 10
670.0
 20
0.0
 30
0.0
  0
INSERT
  5
9F
330
41
100
AcDbEntity
  8
0
100
AcDbBlockReference
  2
circle_pin
 10
674.0
 20
0.0
 30
0.0
  0
INSERT
  5
A1
330
41
100
AcDbEntity
  8
0
100
AcDbBlockReference
  2
circle_pin
 10
678.0
 20
0.0
 30
0.0
  0
INSERT
  5
A3
330
41
100
AcDbEntity
  8
0
100
AcDbBlockReference
  2
circle_pin
 10
686.0
 20
0.0
 30
0.0
  0
INSERT
  5
A5
330
41
100
AcDbEntity
  8
0
100
AcDbBlockReference
  2
circle_pin
 10
690.0
 20
0.0
 30
0.0
  0
INSERT
  5
A7
330
41
100
AcDbEntity
  8
0
100
AcDbBlockReference
  2
circle_pin
 10
694.0
 20
0.0
 30
0.0
  0
INSERT
  5
A9
330
41
100
AcDbEntity
  8
0
100
AcDbBlockReference
  2
circle_pin
 10
702.0
 20
0.0
 30
0.0
  0
INSERT
  5
AB
330
41
100
AcDbEntity
  8
0
100
AcDbBlockReference
  2
circle_pin
 10
706.0
 20
0.0
 30
0.0
  0
INSERT
  5
AD
330
41
100
AcDbEntity
  8
0
100
AcDbBlockReference
  2
circle_pin
 10
710.0
 20
0.0
 30
0.0
  0
INSERT
  5
AF
330
41
100
AcDbEntity
  8
0
100
AcDbBlockReference
  2
circle_pin
 10
718.0
 20
0.0
 30
0.0
  0
INSERT
  5
B1
330
41
100
AcDbEntity
  8
0
100
AcDbBlockReference
  2
circle_pin
 10
722.0
 20
0.0
 30
0.0
  0
INSERT
  5
B3
330
41
100
AcDbEntity
  8
0
100
AcDbBlockReference
  2
circle_pin
 10
726.0
 20
0.0
 30
0.0
  0
INSERT
  5
B5
330
41
100
AcDbEntity
  8
0
100
AcDbBlockReference
  2
circle_pin
 10
730.0
 20
0.0
 30
0.0
  0
INSERT
  5
B7
330
41
100
AcDbEntity
  8
0
100
AcDbBlockReference
  2
circle_pin
 10
738.0
 20
0.0
 30
0.0
  0
INSERT
  5
B9
330
41
100
AcDbEntity
  8
0
100
AcDbBlockReference
  2
circle_pin
 10
742.0
 20
0.0
 30
0.0
  0
INSERT
  5
BB
330
41
100
AcDbEntity
  8
0
100
AcDbBlockReference
  2
circle_pin
 10
746.0
 20
0.0
 30
0.0
  0
INSERT
  5
BD
330
41
100
AcDbEntity
  8
0
100
AcDbBlockReference
  2
circle_pin
 10
750.0
 20
0.0
 30
0.0
  0
INSERT
  5
BF
330
41
100
AcDbEntity
  8
0
100
AcDbBlockReference
  2
circle_pin
 10
758.0
 20
0.0
 30
0.0
  0
INSERT
  5
C1
330
41
100
AcDbEntity
  8
0
100
AcDbBlockReference
  2
circle_pin
 10
762.0
 20
0.0
 30
0.0
  0
INSERT
  5
C3
330
41
100
AcDbEntity
  8
0
100
AcDbBlockReference
  2
circle_pin
 10
766.0
 20
0.0
 30
0.0
  0
INSERT
  5
C5
330
41
100
AcDbEntity
  8
0
100
AcDbBlockReference
  2
circle_pin
 10
770.0
 20
0.0
 30
0.0
  0
INSERT
  5
C7
330
41
100
AcDbEntity
  8
0
100
AcDbBlockReference
  2
circle_pin
 10
774.0
 20
0.0
 30
0.0
  0
INSERT
  5
C9
330
41
100
AcDbEntity
  8
0
100
AcDbBlockReference
  2
circle_pin
 10
778.0
 20
0.0
 30
0.0
  0
INSERT
  5
CB
330
41
100
AcDbEntity
  8
0
100
AcDbBlockReference
  2
circle_pin
 10
782.0
 20
0.0
 30
0.0
  0
INSERT
  5
CD
330
41
100
AcDbEntity
  8
0
100
AcDbBlockReference
  2
circle_pin
 10
786.0
 20
0.0
 30
0.0
  0
INSERT
  5
CF
330
41
100
AcDbEntity
  8
0
100
AcDbBlockReference
  2
circle_pin
 10
790.0
 20
0.0
 30
0.0
  0
INSERT
  5
D1
330
41
100
AcDbEntity
  8
0
100
AcDbBlockReference
  2
circle_pin
 10
794.0
 20
0.0
 30
0.0
  0
INSERT
  5
D3
330
41
100
AcDbEntity
  8
0
100
AcDbBlockReference
  2
circle_pin
 10
798.0
 20
0.0
 30
0.0
  0
INSERT
  5
D5
330
41
100
AcDbEntity
  8
0
100
AcDbBlockReference
  2
circle_pin
 10
802.0
 20
0.0
 30
0.0
  0
INSERT
  5
D7
330
41
100
AcDbEntity
  8
0
100
AcDbBlockReference
  2
circle_pin
 10
810.0
 20
0.0
 30
0.0
  0
INSERT
  5
D9
330
41
100
AcDbEntity
  8
0
100
AcDbBlockReference
  2
circle_pin
 10
814.0
 20
0.0
 30
0.0
  0
INSERT
  5
DB
330
41
100
AcDbEntity
  8
0
100
AcDbBlockReference
  2
circle_pin
 10
818.0
 20
0.0
 30
0.0
  0
INSERT
  5
DD
330
41
100
AcDbEntity
  8
0
100
AcDbBlockReference
  2
circle_pin
 10
826.0
 20
0.0
 30
0.0
  0
INSERT
  5
DF
330
41
100
AcDbEntity
  8
0
100
AcDbBlockReference
  2
circle_pin
 10
830.0
 20
0.0
 30
0.0
  0
INSERT
  5
E1
330
41
100
AcDbEntity
  8
0
100
AcDbBlockReference
  2
circle_pin
 10
834.0
 20
0.0
 30
0.0
  0
INSERT
  5
E3
330
41
100
AcDbEntity
  8
0
100
AcDbBlockReference
  2
circle_pin
 10
1978.0
 20
0.0
 30
0.0
  0
INSERT
  5
E5
330
41
100
AcDbEntity
  8
0
100
AcDbBlockReference
  2
circle_pin
 10
1974.0
 20
0.0
 30
0.0
  0
INSERT
  5
E7
330
41
100
AcDbEntity
  8
0
100
AcDbBlockReference
  2
circle_pin
 10
1970.0
 20
0.0
 30
0.0
  0
INSERT
  5
E9
330
41
100
AcDbEntity
  8
0
100
AcDbBlockReference
  2
circle_pin
 10
1966.0
 20
0.0
 30
0.0
  0
INSERT
  5
EB
330
41
100
AcDbEntity
  8
0
100
AcDbBlockReference
  2
circle_pin
 10
1962.0
 20
0.0
 30
0.0
  0
INSERT
  5
ED
330
41
100
AcDbEntity
  8
0
100
AcDbBlockReference
  2
circle_pin
 10
1958.0
 20
0.0
 30
0.0
  0
INSERT
  5
EF
330
41
100
AcDbEntity
  8
0
100
AcDbBlockReference
  2
circle_pin
 10
1954.0
 20
0.0
 30
0.0
  0
INSERT
  5
F1
330
41
100
AcDbEntity
  8
0
100
AcDbBlockReference
  2
circle_pin
 10
1950.0
 20
0.0
 30
0.0
  0
INSERT
  5
F3
330
41
100
AcDbEntity
  8
0
100
AcDbBlockReference
  2
circle_pin
 10
1942.0
 20
0.0
 30
0.0
  0
INSERT
  5
F5
330
41
100
AcDbEntity
  8
0
100
AcDbBlockReference
  2
circle_pin
 10
1938.0
 20
0.0
 30
0.0
  0
INSERT
  5
F7
330
41
100
AcDbEntity
  8
0
100
AcDbBlockReference
  2
circle_pin
 10
1934.0
 20
0.0
 30
0.0
  0
INSERT
  5
F9
330
41
100
AcDbEntity
  8
0
100
AcDbBlockReference
  2
circle_pin
 10
1930.0
 20
0.0
 30
0.0
  0
INSERT
  5
FB
330
41
100
AcDbEntity
  8
0
100
AcDbBlockReference
  2
circle_pin
 10
1926.0
 20
0.0
 30
0.0
  0
INSERT
  5
FD
330
41
100
AcDbEntity
  8
0
100
AcDbBlockReference
  2
circle_pin
 10
1922.0
 20
0.0
 30
0.0
  0
INSERT
  5
FF
330
41
100
AcDbEntity
  8
0
100
AcDbBlockReference
  2
circle_pin
 10
1918.0
 20
0.0
 30
0.0
  0
INSERT
  5
101
330
41
100
AcDbEntity
  8
0
100
AcDbBlockReference
  2
circle_pin
 10
1914.0
 20
0.0
 30
0.0
  0
INSERT
  5
103
330
41
100
AcDbEntity
  8
0
100
AcDbBlockReference
  2
circle_pin
 10
1906.0
 20
0.0
 30
0.0
  0
INSERT
  5
105
330
41
100
AcDbEntity
  8
0
100
AcDbBlockReference
  2
circle_pin
 10
1902.0
 20
0.0
 30
0.0
  0
INSERT
  5
107
330
41
100
AcDbEntity
  8
0
100
AcDbBlockReference
  2
circle_pin
 10
1898.0
 20
0.0
 30
0.0
  0
INSERT
  5
109
330
41
100
AcDbEntity
  8
0
100
AcDbBlockReference
  2
circle_pin
 10
1894.0
 20
0.0
 30
0.0
  0
INSERT
  5
10B
330
41
100
AcDbEntity
  8
0
100
AcDbBlockReference
  2
circle_pin
 10
1886.0
 20
0.0
 30
0.0
  0
INSERT
  5
10D
330
41
100
AcDbEntity
  8
0
100
AcDbBlockReference
  2
circle_pin
 10
1882.0
 20
0.0
 30
0.0
  0
INSERT
  5
10F
330
41
100
AcDbEntity
  8
0
100
AcDbBlockReference
  2
circle_pin
 10
1878.0
 20
0.0
 30
0.0
  0
INSERT
  5
111
330
41
100
AcDbEntity
  8
0
100
AcDbBlockReference
  2
circle_pin
 10
1874.0
 20
0.0
 30
0.0
  0
INSERT
  5
113
330
41
100
AcDbEntity
  8
0
100
AcDbBlockReference
  2
circle_pin
 10
1866.0
 20
0.0
 30
0.0
  0
INSERT
  5
115
330
41
100
AcDbEntity
  8
0
100
AcDbBlockReference
  2
circle_pin
 10
1862.0
 20
0.0
 30
0.0
  0
INSERT
  5
117
330
41
100
AcDbEntity
  8
0
100
AcDbBlockReference
  2
circle_pin
 10
1858.0
 20
0.0
 30
0.0
  0
INSERT
  5
119
330
41
100
AcDbEntity
  8
0
100
AcDbBlockReference
  2
circle_pin
 10
1854.0
 20
0.0
 30
0.0
  0
INSERT
  5
11B
330
41
100
AcDbEntity
  8
0
100
AcDbBlockReference
  2
circle_pin
 10
22.0
 20
2000.0
 30
0.0
  0
INSERT
  5
11D
330
41
100
AcDbEntity
  8
0
100
AcDbBlockReference
  2
circle_pin
 10
26.0
 20
2000.0
 30
0.0
  0
INSERT
  5
11F
330
41
100
AcDbEntity
  8
0
100
AcDbBlockReference
  2
circle_pin
 10
30.0
 20
2000.0
 30
0.0
  0
INSERT
  5
121
330
41
100
AcDbEntity
  8
0
100
AcDbBlockReference
  2
circle_pin
 10
34.0
 20
2000.0
 30
0.0
  0
INSERT
  5
123
330
41
100
AcDbEntity
  8
0
100
AcDbBlockReference
  2
circle_pin
 10
38.0
 20
2000.0
 30
0.0
  0
INSERT
  5
125
330
41
100
AcDbEntity
  8
0
100
AcDbBlockReference
  2
circle_pin
 10
42.0
 20
2000.0
 30
0.0
  0
INSERT
  5
127
330
41
100
AcDbEntity
  8
0
100
AcDbBlockReference
  2
circle_pin
 10
46.0
 20
2000.0
 30
0.0
  0
INSERT
  5
129
330
41
100
AcDbEntity
  8
0
100
AcDbBlockReference
  2
circle_pin
 10
50.0
 20
2000.0
 30
0.0
  0
INSERT
  5
12B
330
41
100
AcDbEntity
  8
0
100
AcDbBlockReference
  2
circle_pin
 10
58.0
 20
2000.0
 30
0.0
  0
INSERT
  5
12D
330
41
100
AcDbEntity
  8
0
100
AcDbBlockReference
  2
circle_pin
 10
62.0
 20
2000.0
 30
0.0
  0
INSERT
  5
12F
330
41
100
AcDbEntity
  8
0
100
AcDbBlockReference
  2
circle_pin
 10
66.0
 20
2000.0
 30
0.0
  0
INSERT
  5
131
330
41
100
AcDbEntity
  8
0
100
AcDbBlockReference
  2
circle_pin
 10
70.0
 20
2000.0
 30
0.0
  0
INSERT
  5
133
330
41
100
AcDbEntity
  8
0
100
AcDbBlockReference
  2
circle_pin
 10
74.0
 20
2000.0
 30
0.0
  0
INSERT
  5
135
330
41
100
AcDbEntity
  8
0
100
AcDbBlockReference
  2
circle_pin
 10
78.0
 20
2000.0
 30
0.0
  0
INSERT
  5
137
330
41
100
AcDbEntity
  8
0
100
AcDbBlockReference
  2
circle_pin
 10
82.0
 20
2000.0
 30
0.0
  0
INSERT
  5
139
330
41
100
AcDbEntity
  8
0
100
AcDbBlockReference
  2
circle_pin
 10
86.0
 20
2000.0
 30
0.0
  0
INSERT
  5
13B
330
41
100
AcDbEntity
  8
0
100
AcDbBlockReference
  2
circle_pin
 10
94.0
 20
2000.0
 30
0.0
  0
INSERT
  5
13D
330
41
100
AcDbEntity
  8
0
100
AcDbBlockReference
  2
circle_pin
 10
98.0
 20
2000.0
 30
0.0
  0
INSERT
  5
13F
330
41
100
AcDbEntity
  8
0
100
AcDbBlockReference
  2
circle_pin
 10
102.0
 20
2000.0
 30
0.0
  0
INSERT
  5
141
330
41
100
AcDbEntity
  8
0
100
AcDbBlockReference
  2
circle_pin
 10
106.0
 20
2000.0
 30
0.0
  0
INSERT
  5
143
330
41
100
AcDbEntity
  8
0
100
AcDbBlockReference
  2
circle_pin
 10
114.0
 20
2000.0
 30
0.0
  0
INSERT
  5
145
330
41
100
AcDbEntity
  8
0
100
AcDbBlockReference
  2
circle_pin
 10
118.0
 20
2000.0
 30
0.0
  0
INSERT
  5
147
330
41
100
AcDbEntity
  8
0
100
AcDbBlockReference
  2
circle_pin
 10
122.0
 20
2000.0
 30
0.0
  0
INSERT
  5
149
330
41
100
AcDbEntity
  8
0
100
AcDbBlockReference
  2
circle_pin
 10
126.0
 20
2000.0
 30
0.0
  0
INSERT
  5
14B
330
41
100
AcDbEntity
  8
0
100
AcDbBlockReference
  2
circle_pin
 10
134.0
 20
2000.0
 30
0.0
  0
INSERT
  5
14D
330
41
100
AcDbEntity
  8
0
100
AcDbBlockReference
  2
circle_pin
 10
138.0
 20
2000.0
 30
0.0
  0
INSERT
  5
14F
330
41
100
AcDbEntity
  8
0
100
AcDbBlockReference
  2
circle_pin
 10
142.0
 20
2000.0
 30
0.0
  0
INSERT
  5
151
330
41
100
AcDbEntity
  8
0
100
AcDbBlockReference
  2
circle_pin
 10
146.0
 20
2000.0
 30
0.0
  0
INSERT
  5
153
330
41
100
AcDbEntity
  8
0
100
AcDbBlockReference
  2
circle_pin
 10
606.0
 20
2000.0
 30
0.0
  0
INSERT
  5
155
330
41
100
AcDbEntity
  8
0
100
AcDbBlockReference
  2
circle_pin
 10
614.0
 20
2000.0
 30
0.0
  0
INSERT
  5
157
330
41
100
AcDbEntity
  8
0
100
AcDbBlockReference
  2
circle_pin
 10
618.0
 20
2000.0
 30
0.0
  0
INSERT
  5
159
330
41
100
AcDbEntity
  8
0
100
AcDbBlockReference
  2
circle_pin
 10
622.0
 20
2000.0
 30
0.0
  0
INSERT
  5
15B
330
41
100
AcDbEntity
  8
0
100
AcDbBlockReference
  2
circle_pin
 10
626.0
 20
2000.0
 30
0.0
  0
INSERT
  5
15D
330
41
100
AcDbEntity
  8
0
100
AcDbBlockReference
  2
circle_pin
 10
634.0
 20
2000.0
 30
0.0
  0
INSERT
  5
15F
330
41
100
AcDbEntity
  8
0
100
AcDbBlockReference
  2
circle_pin
 10
638.0
 20
2000.0
 30
0.0
  0
INSERT
  5
161
330
41
100
AcDbEntity
  8
0
100
AcDbBlockReference
  2
circle_pin
 10
642.0
 20
2000.0
 30
0.0
  0
INSERT
  5
163
330
41
100
AcDbEntity
  8
0
100
AcDbBlockReference
  2
circle_pin
 10
646.0
 20
2000.0
 30
0.0
  0
INSERT
  5
165
330
41
100
AcDbEntity
  8
0
100
AcDbBlockReference
  2
circle_pin
 10
650.0
 20
2000.0
 30
0.0
  0
INSERT
  5
167
330
41
100
AcDbEntity
  8
0
100
AcDbBlockReference
  2
circle_pin
 10
654.0
 20
2000.0
 30
0.0
  0
INSERT
  5
169
330
41
100
AcDbEntity
  8
0
100
AcDbBlockReference
  2
circle_pin
 10
658.0
 20
2000.0
 30
0.0
  0
INSERT
  5
16B
330
41
100
AcDbEntity
  8
0
100
AcDbBlockReference
  2
circle_pin
 10
662.0
 20
2000.0
 30
0.0
  0
INSERT
  5
16D
330
41
100
AcDbEntity
  8
0
100
AcDbBlockReference
  2
circle_pin
 10
666.0
 20
2000.0
 30
0.0
  0
INSERT
  5
16F
330
41
100
AcDbEntity
  8
0
100
AcDbBlockReference
  2
circle_pin
 10
670.0
 20
2000.0
 30
0.0
  0
INSERT
  5
171
330
41
100
AcDbEntity
  8
0
100
AcDbBlockReference
  2
circle_pin
 10
674.0
 20
2000.0
 30
0.0
  0
INSERT
  5
173
330
41
100
AcDbEntity
  8
0
100
AcDbBlockReference
  2
circle_pin
 10
678.0
 20
2000.0
 30
0.0
  0
INSERT
  5
175
330
41
100
AcDbEntity
  8
0
100
AcDbBlockReference
  2
circle_pin
 10
686.0
 20
2000.0
 30
0.0
  0
INSERT
  5
177
330
41
100
AcDbEntity
  8
0
100
AcDbBlockReference
  2
circle_pin
 10
690.0
 20
2000.0
 30
0.0
  0
INSERT
  5
179
330
41
100
AcDbEntity
  8
0
100
AcDbBlockReference
  2
circle_pin
 10
694.0
 20
2000.0
 30
0.0
  0
INSERT
  5
17B
330
41
100
AcDbEntity
  8
0
100
AcDbBlockReference
  2
circle_pin
 10
702.0
 20
2000.0
 30
0.0
  0
INSERT
  5
17D
330
41
100
AcDbEntity
  8
0
100
AcDbBlockReference
  2
circle_pin
 10
706.0
 20
2000.0
 30
0.0
  0
INSERT
  5
17F
330
41
100
AcDbEntity
  8
0
100
AcDbBlockReference
  2
circle_pin
 10
710.0
 20
2000.0
 30
0.0
  0
INSERT
  5
181
330
41
100
AcDbEntity
  8
0
100
AcDbBlockReference
  2
circle_pin
 10
718.0
 20
2000.0
 30
0.0
  0
INSERT
  5
183
330
41
100
AcDbEntity
  8
0
100
AcDbBlockReference
  2
circle_pin
 10
722.0
 20
2000.0
 30
0.0
  0
INSERT
  5
185
330
41
100
AcDbEntity
  8
0
100
AcDbBlockReference
  2
circle_pin
 10
726.0
 20
2000.0
 30
0.0
  0
INSERT
  5
187
330
41
100
AcDbEntity
  8
0
100
AcDbBlockReference
  2
circle_pin
 10
730.0
 20
2000.0
 30
0.0
  0
INSERT
  5
189
330
41
100
AcDbEntity
  8
0
100
AcDbBlockReference
  2
circle_pin
 10
738.0
 20
2000.0
 30
0.0
  0
INSERT
  5
18B
330
41
100
AcDbEntity
  8
0
100
AcDbBlockReference
  2
circle_pin
 10
742.0
 20
2000.0
 30
0.0
  0
INSERT
  5
18D
330
41
100
AcDbEntity
  8
0
100
AcDbBlockReference
  2
circle_pin
 10
746.0
 20
2000.0
 30
0.0
  0
INSERT
  5
18F
330
41
100
AcDbEntity
  8
0
100
AcDbBlockReference
  2
circle_pin
 10
750.0
 20
2000.0
 30
0.0
  0
INSERT
  5
191
330
41
100
AcDbEntity
  8
0
100
AcDbBlockReference
  2
circle_pin
 10
758.0
 20
2000.0
 30
0.0
  0
INSERT
  5
193
330
41
100
AcDbEntity
  8
0
100
AcDbBlockReference
  2
circle_pin
 10
762.0
 20
2000.0
 30
0.0
  0
INSERT
  5
195
330
41
100
AcDbEntity
  8
0
100
AcDbBlockReference
  2
circle_pin
 10
766.0
 20
2000.0
 30
0.0
  0
INSERT
  5
197
330
41
100
AcDbEntity
  8
0
100
AcDbBlockReference
  2
circle_pin
 10
770.0
 20
2000.0
 30
0.0
  0
INSERT
  5
199
330
41
100
AcDbEntity
  8
0
100
AcDbBlockReference
  2
circle_pin
 10
774.0
 20
2000.0
 30
0.0
  0
INSERT
  5
19B
330
41
100
AcDbEntity
  8
0
100
AcDbBlockReference
  2
circle_pin
 10
778.0
 20
2000.0
 30
0.0
  0
INSERT
  5
19D
330
41
100
AcDbEntity
  8
0
100
AcDbBlockReference
  2
circle_pin
 10
782.0
 20
2000.0
 30
0.0
  0
INSERT
  5
19F
330
41
100
AcDbEntity
  8
0
100
AcDbBlockReference
  2
circle_pin
 10
786.0
 20
2000.0
 30
0.0
  0
INSERT
  5
1A1
330
41
100
AcDbEntity
  8
0
100
AcDbBlockReference
  2
circle_pin
 10
790.0
 20
2000.0
 30
0.0
  0
INSERT
  5
1A3
330
41
100
AcDbEntity
  8
0
100
AcDbBlockReference
  2
circle_pin
 10
794.0
 20
2000.0
 30
0.0
  0
INSERT
  5
1A5
330
41
100
AcDbEntity
  8
0
100
AcDbBlockReference
  2
circle_pin
 10
798.0
 20
2000.0
 30
0.0
  0
INSERT
  5
1A7
330
41
100
AcDbEntity
  8
0
100
AcDbBlockReference
  2
circle_pin
 10
802.0
 20
2000.0
 30
0.0
  0
INSERT
  5
1A9
330
41
100
AcDbEntity
  8
0
100
AcDbBlockReference
  2
circle_pin
 10
810.0
 20
2000.0
 30
0.0
  0
INSERT
  5
1AB
330
41
100
AcDbEntity
  8
0
100
AcDbBlockReference
  2
circle_pin
 10
814.0
 20
2000.0
 30
0.0
  0
INSERT
  5
1AD
330
41
100
AcDbEntity
  8
0
100
AcDbBlockReference
  2
circle_pin
 10
818.0
 20
2000.0
 30
0.0
  0
INSERT
  5
1AF
330
41
100
AcDbEntity
  8
0
100
AcDbBlockReference
  2
circle_pin
 10
826.0
 20
2000.0
 30
0.0
  0
INSERT
  5
1B1
330
41
100
AcDbEntity
  8
0
100
AcDbBlockReference
  2
circle_pin
 10
830.0
 20
2000.0
 30
0.0
  0
INSERT
  5
1B3
330
41
100
AcDbEntity
  8
0
100
AcDbBlockReference
  2
circle_pin
 10
834.0
 20
2000.0
 30
0.0
  0
INSERT
  5
1B5
330
41
100
AcDbEntity
  8
0
100
AcDbBlockReference
  2
circle_pin
 10
1978.0
 20
2000.0
 30
0.0
  0
INSERT
  5
1B7
330
41
100
AcDbEntity
  8
0
100
AcDbBlockReference
  2
circle_pin
 10
1974.0
 20
2000.0
 30
0.0
  0
INSERT
  5
1B9
330
41
100
AcDbEntity
  8
0
100
AcDbBlockReference
  2
circle_pin
 10
1970.0
 20
2000.0
 30
0.0
  0
INSERT
  5
1BB
330
41
100
AcDbEntity
  8
0
100
AcDbBlockReference
  2
circle_pin
 10
1966.0
 20
2000.0
 30
0.0
  0
INSERT
  5
1BD
330
41
100
AcDbEntity
  8
0
100
AcDbBlockReference
  2
circle_pin
 10
1962.0
 20
2000.0
 30
0.0
  0
INSERT
  5
1BF
330
41
100
AcDbEntity
  8
0
100
AcDbBlockReference
  2
circle_pin
 10
1958.0
 20
2000.0
 30
0.0
  0
INSERT
  5
1C1
330
41
100
AcDbEntity
  8
0
100
AcDbBlockReference
  2
circle_pin
 10
1954.0
 20
2000.0
 30
0.0
  0
INSERT
  5
1C3
330
41
100
AcDbEntity
  8
0
100
AcDbBlockReference
  2
circle_pin
 10
1950.0
 20
2000.0
 30
0.0
  0
INSERT
  5
1C5
330
41
100
AcDbEntity
  8
0
100
AcDbBlockReference
  2
circle_pin
 10
1942.0
 20
2000.0
 30
0.0
  0
INSERT
  5
1C7
330
41
100
AcDbEntity
  8
0
100
AcDbBlockReference
  2
circle_pin
 10
1938.0
 20
2000.0
 30
0.0
  0
INSERT
  5
1C9
330
41
100
AcDbEntity
  8
0
100
AcDbBlockReference
  2
circle_pin
 10
1934.0
 20
2000.0
 30
0.0
  0
INSERT
  5
1CB
330
41
100
AcDbEntity
  8
0
100
AcDbBlockReference
  2
circle_pin
 10
1930.0
 20
2000.0
 30
0.0
  0
INSERT
  5
1CD
330
41
100
AcDbEntity
  8
0
100
AcDbBlockReference
  2
circle_pin
 10
1926.0
 20
2000.0
 30
0.0
  0
INSERT
  5
1CF
330
41
100
AcDbEntity
  8
0
100
AcDbBlockReference
  2
circle_pin
 10
1922.0
 20
2000.0
 30
0.0
  0
INSERT
  5
1D1
330
41
100
AcDbEntity
  8
0
100
AcDbBlockReference
  2
circle_pin
 10
1918.0
 20
2000.0
 30
0.0
  0
INSERT
  5
1D3
330
41
100
AcDbEntity
  8
0
100
AcDbBlockReference
  2
circle_pin
 10
1914.0
 20
2000.0
 30
0.0
  0
INSERT
  5
1D5
330
41
100
AcDbEntity
  8
0
100
AcDbBlockReference
  2
circle_pin
 10
1906.0
 20
2000.0
 30
0.0
  0
INSERT
  5
1D7
330
41
100
AcDbEntity
  8
0
100
AcDbBlockReference
  2
circle_pin
 10
1902.0
 20
2000.0
 30
0.0
  0
INSERT
  5
1D9
330
41
100
AcDbEntity
  8
0
100
AcDbBlockReference
  2
circle_pin
 10
1898.0
 20
2000.0
 30
0.0
  0
INSERT
  5
1DB
330
41
100
AcDbEntity
  8
0
100
AcDbBlockReference
  2
circle_pin
 10
1894.0
 20
2000.0
 30
0.0
  0
INSERT
  5
1DD
330
41
100
AcDbEntity
  8
0
100
AcDbBlockReference
  2
circle_pin
 10
1886.0
 20
2000.0
 30
0.0
  0
INSERT
  5
1DF
330
41
100
AcDbEntity
  8
0
100
AcDbBlockReference
  2
circle_pin
 10
1882.0
 20
2000.0
 30
0.0
  0
INSERT
  5
1E1
330
41
100
AcDbEntity
  8
0
100
AcDbBlockReference
  2
circle_pin
 10
1878.0
 20
2000.0
 30
0.0
  0
INSERT
  5
1E3
330
41
100
AcDbEntity
  8
0
100
AcDbBlockReference
  2
circle_pin
 10
1874.0
 20
2000.0
 30
0.0
  0
INSERT
  5
1E5
330
41
100
AcDbEntity
  8
0
100
AcDbBlockReference
  2
circle_pin
 10
1866.0
 20
2000.0
 30
0.0
  0
INSERT
  5
1E7
330
41
100
AcDbEntity
  8
0
100
AcDbBlockReference
  2
circle_pin
 10
1862.0
 20
2000.0
 30
0.0
  0
INSERT
  5
1E9
330
41
100
AcDbEntity
  8
0
100
AcDbBlockReference
  2
circle_pin
 10
1858.0
 20
2000.0
 30
0.0
  0
INSERT
  5
1EB
330
41
100
AcDbEntity
  8
0
100
AcDbBlockReference
  2
circle_pin
 10
1854.0
 20
2000.0
 30
0.0
  0
INSERT
  5
1ED
330
41
100
AcDbEntity
  8
0
100
AcDbBlockReference
  2
circle_pin
 10
0.0
 20
22.0
 30
0.0
  0
INSERT
  5
1EF
330
41
100
AcDbEntity
  8
0
100
AcDbBlockReference
  2
circle_pin
 10
0.0
 20
26.0
 30
0.0
  0
INSERT
  5
1F1
330
41
100
AcDbEntity
  8
0
100
AcDbBlockReference
  2
circle_pin
 10
0.0
 20
30.0
 30
0.0
  0
INSERT
  5
1F3
330
41
100
AcDbEntity
  8
0
100
AcDbBlockReference
  2
circle_pin
 10
0.0
 20
34.0
 30
0.0
  0
INSERT
  5
1F5
330
41
100
AcDbEntity
  8
0
100
AcDbBlockReference
  2
circle_pin
 10
0.0
 20
38.0
 30
0.0
  0
INSERT
  5
1F7
330
41
100
AcDbEntity
  8
0
100
AcDbBlockReference
  2
circle_pin
 10
0.0
 20
42.0
 30
0.0
  0
INSERT
  5
1F9
330
41
100
AcDbEntity
  8
0
100
AcDbBlockReference
  2
circle_pin
 10
0.0
 20
46.0
 30
0.0
  0
INSERT
  5
1FB
330
41
100
AcDbEntity
  8
0
100
AcDbBlockReference
  2
circle_pin
 10
0.0
 20
50.0
 30
0.0
  0
INSERT
  5
1FD
330
41
100
AcDbEntity
  8
0
100
AcDbBlockReference
  2
circle_pin
 10
0.0
 20
58.0
 30
0.0
  0
INSERT
  5
1FF
330
41
100
AcDbEntity
  8
0
100
AcDbBlockReference
  2
circle_pin
 10
0.0
 20
62.0
 30
0.0
  0
INSERT
  5
201
330
41
100
AcDbEntity
  8
0
100
AcDbBlockReference
  2
circle_pin
 10
0.0
 20
66.0
 30
0.0
  0
INSERT
  5
203
330
41
100
AcDbEntity
  8
0
100
AcDbBlockReference
  2
circle_pin
 10
0.0
 20
70.0
 30
0.0
  0
INSERT
  5
205
330
41
100
AcDbEntity
  8
0
100
AcDbBlockReference
  2
circle_pin
 10
0.0
 20
74.0
 30
0.0
  0
INSERT
  5
207
330
41
100
AcDbEntity
  8
0
100
AcDbBlockReference
  2
circle_pin
 10
0.0
 20
78.0
 30
0.0
  0
INSERT
  5
209
330
41
100
AcDbEntity
  8
0
100
AcDbBlockReference
  2
circle_pin
 10
0.0
 20
82.0
 30
0.0
  0
INSERT
  5
20B
330
41
100
AcDbEntity
  8
0
100
AcDbBlockReference
  2
circle_pin
 10
0.0
 20
86.0
 30
0.0
  0
INSERT
  5
20D
330
41
100
AcDbEntity
  8
0
100
AcDbBlockReference
  2
circle_pin
 10
0.0
 20
94.0
 30
0.0
  0
INSERT
  5
20F
330
41
100
AcDbEntity
  8
0
100
AcDbBlockReference
  2
circle_pin
 10
0.0
 20
98.0
 30
0.0
  0
INSERT
  5
211
330
41
100
AcDbEntity
  8
0
100
AcDbBlockReference
  2
circle_pin
 10
0.0
 20
102.0
 30
0.0
  0
INSERT
  5
213
330
41
100
AcDbEntity
  8
0
100
AcDbBlockReference
  2
circle_pin
 10
0.0
 20
106.0
 30
0.0
  0
INSERT
  5
215
330
41
100
AcDbEntity
  8
0
100
AcDbBlockReference
  2
circle_pin
 10
0.0
 20
114.0
 30
0.0
  0
INSERT
  5
217
330
41
100
AcDbEntity
  8
0
100
AcDbBlockReference
  2
circle_pin
 10
0.0
 20
118.0
 30
0.0
  0
INSERT
  5
219
330
41
100
AcDbEntity
  8
0
100
AcDbBlockReference
  2
circle_pin
 10
0.0
 20
122.0
 30
0.0
  0
INSERT
  5
21B
330
41
100
AcDbEntity
  8
0
100
AcDbBlockReference
  2
circle_pin
 10
0.0
 20
126.0
 30
0.0
  0
INSERT
  5
21D
330
41
100
AcDbEntity
  8
0
100
AcDbBlockReference
  2
circle_pin
 10
0.0
 20
134.0
 30
0.0
  0
INSERT
  5
21F
330
41
100
AcDbEntity
  8
0
100
AcDbBlockReference
  2
circle_pin
 10
0.0
 20
138.0
 30
0.0
  0
INSERT
  5
221
330
41
100
AcDbEntity
  8
0
100
AcDbBlockReference
  2
circle_pin
 10
0.0
 20
142.0
 30
0.0
  0
INSERT
  5
223
330
41
100
AcDbEntity
  8
0
100
AcDbBlockReference
  2
circle_pin
 10
0.0
 20
146.0
 30
0.0
  0
INSERT
  5
225
330
41
100
AcDbEntity
  8
0
100
AcDbBlockReference
  2
circle_pin
 10
0.0
 20
806.0
 30
0.0
  0
INSERT
  5
227
330
41
100
AcDbEntity
  8
0
100
AcDbBlockReference
  2
circle_pin
 10
0.0
 20
810.0
 30
0.0
  0
INSERT
  5
229
330
41
100
AcDbEntity
  8
0
100
AcDbBlockReference
  2
circle_pin
 10
0.0
 20
814.0
 30
0.0
  0
INSERT
  5
22B
330
41
100
AcDbEntity
  8
0
100
AcDbBlockReference
  2
circle_pin
 10
0.0
 20
818.0
 30
0.0
  0
INSERT
  5
22D
330
41
100
AcDbEntity
  8
0
100
AcDbBlockReference
  2
circle_pin
 10
0.0
 20
822.0
 30
0.0
  0
INSERT
  5
22F
330
41
100
AcDbEntity
  8
0
100
AcDbBlockReference
  2
circle_pin
 10
0.0
 20
826.0
 30
0.0
  0
INSERT
  5
231
330
41
100
AcDbEntity
  8
0
100
AcDbBlockReference
  2
circle_pin
 10
0.0
 20
830.0
 30
0.0
  0
INSERT
  5
233
330
41
100
AcDbEntity
  8
0
100
AcDbBlockReference
  2
circle_pin
 10
0.0
 20
834.0
 30
0.0
  0
INSERT
  5
235
330
41
100
AcDbEntity
  8
0
100
AcDbBlockReference
  2
circle_pin
 10
0.0
 20
838.0
 30
0.0
  0
INSERT
  5
237
330
41
100
AcDbEntity
  8
0
100
AcDbBlockReference
  2
circle_pin
 10
0.0
 20
842.0
 30
0.0
  0
INSERT
  5
239
330
41
100
AcDbEntity
  8
0
100
AcDbBlockReference
  2
circle_pin
 10
0.0
 20
846.0
 30
0.0
  0
INSERT
  5
23B
330
41
100
AcDbEntity
  8
0
100
AcDbBlockReference
  2
circle_pin
 10
0.0
 20
850.0
 30
0.0
  0
INSERT
  5
23D
330
41
100
AcDbEntity
  8
0
100
AcDbBlockReference
  2
circle_pin
 10
0.0
 20
854.0
 30
0.0
  0
INSERT
  5
23F
330
41
100
AcDbEntity
  8
0
100
AcDbBlockReference
  2
circle_pin
 10
0.0
 20
858.0
 30
0.0
  0
INSERT
  5
241
330
41
100
AcDbEntity
  8
0
100
AcDbBlockReference
  2
circle_pin
 10
0.0
 20
862.0
 30
0.0
  0
INSERT
  5
243
330
41
100
AcDbEntity
  8
0
100
AcDbBlockReference
  2
circle_pin
 10
0.0
 20
866.0
 30
0.0
  0
INSERT
  5
245
330
41
100
AcDbEntity
  8
0
100
AcDbBlockReference
  2
circle_pin
 10
0.0
 20
874.0
 30
0.0
  0
INSERT
  5
247
330
41
100
AcDbEntity
  8
0
100
AcDbBlockReference
  2
circle_pin
 10
0.0
 20
878.0
 30
0.0
  0
INSERT
  5
249
330
41
100
AcDbEntity
  8
0
100
AcDbBlockReference
  2
circle_pin
 10
0.0
 20
882.0
 30
0.0
  0
INSERT
  5
24B
330
41
100
AcDbEntity
  8
0
100
AcDbBlockReference
  2
circle_pin
 10
0.0
 20
886.0
 30
0.0
  0
INSERT
  5
24D
330
41
100
AcDbEntity
  8
0
100
AcDbBlockReference
  2
circle_pin
 10
0.0
 20
890.0
 30
0.0
  0
INSERT
  5
24F
330
41
100
AcDbEntity
  8
0
100
AcDbBlockReference
  2
circle_pin
 10
0.0
 20
894.0
 30
0.0
  0
INSERT
  5
251
330
41
100
AcDbEntity
  8
0
100
AcDbBlockReference
  2
circle_pin
 10
0.0
 20
898.0
 30
0.0
  0
INSERT
  5
253
330
41
100
AcDbEntity
  8
0
100
AcDbBlockReference
  2
circle_pin
 10
0.0
 20
902.0
 30
0.0
  0
INSERT
  5
255
330
41
100
AcDbEntity
  8
0
100
AcDbBlockReference
  2
circle_pin
 10
0.0
 20
906.0
 30
0.0
  0
INSERT
  5
257
330
41
100
AcDbEntity
  8
0
100
AcDbBlockReference
  2
circle_pin
 10
0.0
 20
910.0
 30
0.0
  0
INSERT
  5
259
330
41
100
AcDbEntity
  8
0
100
AcDbBlockReference
  2
circle_pin
 10
0.0
 20
914.0
 30
0.0
  0
INSERT
  5
25B
330
41
100
AcDbEntity
  8
0
100
AcDbBlockReference
  2
circle_pin
 10
0.0
 20
918.0
 30
0.0
  0
INSERT
  5
25D
330
41
100
AcDbEntity
  8
0
100
AcDbBlockReference
  2
circle_pin
 10
0.0
 20
922.0
 30
0.0
  0
INSERT
  5
25F
330
41
100
AcDbEntity
  8
0
100
AcDbBlockReference
  2
circle_pin
 10
0.0
 20
926.0
 30
0.0
  0
INSERT
  5
261
330
41
100
AcDbEntity
  8
0
100
AcDbBlockReference
  2
circle_pin
 10
0.0
 20
930.0
 30
0.0
  0
INSERT
  5
263
330
41
100
AcDbEntity
  8
0
100
AcDbBlockReference
  2
circle_pin
 10
0.0
 20
934.0
 30
0.0
  0
INSERT
  5
265
330
41
100
AcDbEntity
  8
0
100
AcDbBlockReference
  2
circle_pin
 10
0.0
 20
938.0
 30
0.0
  0
INSERT
  5
267
330
41
100
AcDbEntity
  8
0
100
AcDbBlockReference
  2
circle_pin
 10
0.0
 20
942.0
 30
0.0
  0
INSERT
  5
269
330
41
100
AcDbEntity
  8
0
100
AcDbBlockReference
  2
circle_pin
 10
0.0
 20
946.0
 30
0.0
  0
INSERT
  5
26B
330
41
100
AcDbEntity
  8
0
100
AcDbBlockReference
  2
circle_pin
 10
0.0
 20
950.0
 30
0.0
  0
INSERT
  5
26D
330
41
100
AcDbEntity
  8
0
100
AcDbBlockReference
  2
circle_pin
 10
0.0
 20
954.0
 30
0.0
  0
INSERT
  5
26F
330
41
100
AcDbEntity
  8
0
100
AcDbBlockReference
  2
circle_pin
 10
0.0
 20
958.0
 30
0.0
  0
INSERT
  5
271
330
41
100
AcDbEntity
  8
0
100
AcDbBlockReference
  2
circle_pin
 10
0.0
 20
962.0
 30
0.0
  0
INSERT
  5
273
330
41
100
AcDbEntity
  8
0
100
AcDbBlockReference
  2
circle_pin
 10
0.0
 20
966.0
 30
0.0
  0
INSERT
  5
275
330
41
100
AcDbEntity
  8
0
100
AcDbBlockReference
  2
circle_pin
 10
0.0
 20
970.0
 30
0.0
  0
INSERT
  5
277
330
41
100
AcDbEntity
  8
0
100
AcDbBlockReference
  2
circle_pin
 10
0.0
 20
974.0
 30
0.0
  0
INSERT
  5
279
330
41
100
AcDbEntity
  8
0
100
AcDbBlockReference
  2
circle_pin
 10
0.0
 20
978.0
 30
0.0
  0
INSERT
  5
27B
330
41
100
AcDbEntity
  8
0
100
AcDbBlockReference
  2
circle_pin
 10
0.0
 20
982.0
 30
0.0
  0
INSERT
  5
27D
330
41
100
AcDbEntity
  8
0
100
AcDbBlockReference
  2
circle_pin
 10
0.0
 20
986.0
 30
0.0
  0
INSERT
  5
27F
330
41
100
AcDbEntity
  8
0
100
AcDbBlockReference
  2
circle_pin
 10
0.0
 20
990.0
 30
0.0
  0
INSERT
  5
281
330
41
100
AcDbEntity
  8
0
100
AcDbBlockReference
  2
circle_pin
 10
0.0
 20
994.0
 30
0.0
  0
INSERT
  5
283
330
41
100
AcDbEntity
  8
0
100
AcDbBlockReference
  2
circle_pin
 10
0.0
 20
998.0
 30
0.0
  0
INSERT
  5
285
330
41
100
AcDbEntity
  8
0
100
AcDbBlockReference
  2
circle_pin
 10
0.0
 20
1002.0
 30
0.0
  0
INSERT
  5
287
330
41
100
AcDbEntity
  8
0
100
AcDbBlockReference
  2
circle_pin
 10
0.0
 20
1006.0
 30
0.0
  0
INSERT
  5
289
330
41
100
AcDbEntity
  8
0
100
AcDbBlockReference
  2
circle_pin
 10
0.0
 20
1010.0
 30
0.0
  0
INSERT
  5
28B
330
41
100
AcDbEntity
  8
0
100
AcDbBlockReference
  2
circle_pin
 10
0.0
 20
1014.0
 30
0.0
  0
INSERT
  5
28D
330
41
100
AcDbEntity
  8
0
100
AcDbBlockReference
  2
circle_pin
 10
0.0
 20
1018.0
 30
0.0
  0
INSERT
  5
28F
330
41
100
AcDbEntity
  8
0
100
AcDbBlockReference
  2
circle_pin
 10
0.0
 20
1022.0
 30
0.0
  0
INSERT
  5
291
330
41
100
AcDbEntity
  8
0
100
AcDbBlockReference
  2
circle_pin
 10
0.0
 20
1026.0
 30
0.0
  0
INSERT
  5
293
330
41
100
AcDbEntity
  8
0
100
AcDbBlockReference
  2
circle_pin
 10
0.0
 20
1030.0
 30
0.0
  0
INSERT
  5
295
330
41
100
AcDbEntity
  8
0
100
AcDbBlockReference
  2
circle_pin
 10
0.0
 20
1034.0
 30
0.0
  0
INSERT
  5
297
330
41
100
AcDbEntity
  8
0
100
AcDbBlockReference
  2
circle_pin
 10
0.0
 20
1038.0
 30
0.0
  0
INSERT
  5
299
330
41
100
AcDbEntity
  8
0
100
AcDbBlockReference
  2
circle_pin
 10
0.0
 20
1042.0
 30
0.0
  0
INSERT
  5
29B
330
41
100
AcDbEntity
  8
0
100
AcDbBlockReference
  2
circle_pin
 10
0.0
 20
1046.0
 30
0.0
  0
INSERT
  5
29D
330
41
100
AcDbEntity
  8
0
100
AcDbBlockReference
  2
circle_pin
 10
0.0
 20
1050.0
 30
0.0
  0
INSERT
  5
29F
330
41
100
AcDbEntity
  8
0
100
AcDbBlockReference
  2
circle_pin
 10
0.0
 20
1054.0
 30
0.0
  0
INSERT
  5
2A1
330
41
100
AcDbEntity
  8
0
100
AcDbBlockReference
  2
circle_pin
 10
0.0
 20
1058.0
 30
0.0
  0
INSERT
  5
2A3
330
41
100
AcDbEntity
  8
0
100
AcDbBlockReference
  2
circle_pin
 10
0.0
 20
1062.0
 30
0.0
  0
INSERT
  5
2A5
330
41
100
AcDbEntity
  8
0
100
AcDbBlockReference
  2
circle_pin
 10
0.0
 20
1066.0
 30
0.0
  0
INSERT
  5
2A7
330
41
100
AcDbEntity
  8
0
100
AcDbBlockReference
  2
circle_pin
 10
0.0
 20
1070.0
 30
0.0
  0
INSERT
  5
2A9
330
41
100
AcDbEntity
  8
0
100
AcDbBlockReference
  2
circle_pin
 10
0.0
 20
1074.0
 30
0.0
  0
INSERT
  5
2AB
330
41
100
AcDbEntity
  8
0
100
AcDbBlockReference
  2
circle_pin
 10
0.0
 20
1078.0
 30
0.0
  0
INSERT
  5
2AD
330
41
100
AcDbEntity
  8
0
100
AcDbBlockReference
  2
circle_pin
 10
0.0
 20
1082.0
 30
0.0
  0
INSERT
  5
2AF
330
41
100
AcDbEntity
  8
0
100
AcDbBlockReference
  2
circle_pin
 10
0.0
 20
1086.0
 30
0.0
  0
INSERT
  5
2B1
330
41
100
AcDbEntity
  8
0
100
AcDbBlockReference
  2
circle_pin
 10
0.0
 20
1090.0
 30
0.0
  0
INSERT
  5
2B3
330
41
100
AcDbEntity
  8
0
100
AcDbBlockReference
  2
circle_pin
 10
0.0
 20
1094.0
 30
0.0
  0
INSERT
  5
2B5
330
41
100
AcDbEntity
  8
0
100
AcDbBlockReference
  2
circle_pin
 10
0.0
 20
1098.0
 30
0.0
  0
INSERT
  5
2B7
330
41
100
AcDbEntity
  8
0
100
AcDbBlockReference
  2
circle_pin
 10
0.0
 20
1102.0
 30
0.0
  0
INSERT
  5
2B9
330
41
100
AcDbEntity
  8
0
100
AcDbBlockReference
  2
circle_pin
 10
0.0
 20
1106.0
 30
0.0
  0
INSERT
  5
2BB
330
41
100
AcDbEntity
  8
0
100
AcDbBlockReference
  2
circle_pin
 10
0.0
 20
1110.0
 30
0.0
  0
INSERT
  5
2BD
330
41
100
AcDbEntity
  8
0
100
AcDbBlockReference
  2
circle_pin
 10
0.0
 20
1114.0
 30
0.0
  0
INSERT
  5
2BF
330
41
100
AcDbEntity
  8
0
100
AcDbBlockReference
  2
circle_pin
 10
0.0
 20
1118.0
 30
0.0
  0
INSERT
  5
2C1
330
41
100
AcDbEntity
  8
0
100
AcDbBlockReference
  2
circle_pin
 10
0.0
 20
1122.0
 30
0.0
  0
INSERT
  5
2C3
330
41
100
AcDbEntity
  8
0
100
AcDbBlockReference
  2
circle_pin
 10
0.0
 20
1126.0
 30
0.0
  0
INSERT
  5
2C5
330
41
100
AcDbEntity
  8
0
100
AcDbBlockReference
  2
circle_pin
 10
0.0
 20
1134.0
 30
0.0
  0
INSERT
  5
2C7
330
41
100
AcDbEntity
  8
0
100
AcDbBlockReference
  2
circle_pin
 10
0.0
 20
1138.0
 30
0.0
  0
INSERT
  5
2C9
330
41
100
AcDbEntity
  8
0
100
AcDbBlockReference
  2
circle_pin
 10
0.0
 20
1142.0
 30
0.0
  0
INSERT
  5
2CB
330
41
100
AcDbEntity
  8
0
100
AcDbBlockReference
  2
circle_pin
 10
0.0
 20
1146.0
 30
0.0
  0
INSERT
  5
2CD
330
41
100
AcDbEntity
  8
0
100
AcDbBlockReference
  2
circle_pin
 10
0.0
 20
1150.0
 30
0.0
  0
INSERT
  5
2CF
330
41
100
AcDbEntity
  8
0
100
AcDbBlockReference
  2
circle_pin
 10
0.0
 20
1154.0
 30
0.0
  0
INSERT
  5
2D1
330
41
100
AcDbEntity
  8
0
100
AcDbBlockReference
  2
circle_pin
 10
0.0
 20
1158.0
 30
0.0
  0
INSERT
  5
2D3
330
41
100
AcDbEntity
  8
0
100
AcDbBlockReference
  2
circle_pin
 10
0.0
 20
1162.0
 30
0.0
  0
INSERT
  5
2D5
330
41
100
AcDbEntity
  8
0
100
AcDbBlockReference
  2
circle_pin
 10
0.0
 20
1166.0
 30
0.0
  0
INSERT
  5
2D7
330
41
100
AcDbEntity
  8
0
100
AcDbBlockReference
  2
circle_pin
 10
0.0
 20
1170.0
 30
0.0
  0
INSERT
  5
2D9
330
41
100
AcDbEntity
  8
0
100
AcDbBlockReference
  2
circle_pin
 10
0.0
 20
1178.0
 30
0.0
  0
INSERT
  5
2DB
330
41
100
AcDbEntity
  8
0
100
AcDbBlockReference
  2
circle_pin
 10
0.0
 20
1182.0
 30
0.0
  0
INSERT
  5
2DD
330
41
100
AcDbEntity
  8
0
100
AcDbBlockReference
  2
circle_pin
 10
0.0
 20
1186.0
 30
0.0
  0
INSERT
  5
2DF
330
41
100
AcDbEntity
  8
0
100
AcDbBlockReference
  2
circle_pin
 10
0.0
 20
1190.0
 30
0.0
  0
INSERT
  5
2E1
330
41
100
AcDbEntity
  8
0
100
AcDbBlockReference
  2
circle_pin
 10
0.0
 20
1194.0
 30
0.0
  0
INSERT
  5
2E3
330
41
100
AcDbEntity
  8
0
100
AcDbBlockReference
  2
circle_pin
 10
0.0
 20
1198.0
 30
0.0
  0
INSERT
  5
2E5
330
41
100
AcDbEntity
  8
0
100
AcDbBlockReference
  2
circle_pin
 10
0.0
 20
1202.0
 30
0.0
  0
INSERT
  5
2E7
330
41
100
AcDbEntity
  8
0
100
AcDbBlockReference
  2
circle_pin
 10
0.0
 20
1206.0
 30
0.0
  0
INSERT
  5
2E9
330
41
100
AcDbEntity
  8
0
100
AcDbBlockReference
  2
circle_pin
 10
0.0
 20
1210.0
 30
0.0
  0
INSERT
  5
2EB
330
41
100
AcDbEntity
  8
0
100
AcDbBlockReference
  2
circle_pin
 10
0.0
 20
1214.0
 30
0.0
  0
INSERT
  5
2ED
330
41
100
AcDbEntity
  8
0
100
AcDbBlockReference
  2
circle_pin
 10
0.0
 20
1218.0
 30
0.0
  0
INSERT
  5
2EF
330
41
100
AcDbEntity
  8
0
100
AcDbBlockReference
  2
circle_pin
 10
0.0
 20
1222.0
 30
0.0
  0
INSERT
  5
2F1
330
41
100
AcDbEntity
  8
0
100
AcDbBlockReference
  2
circle_pin
 10
0.0
 20
1226.0
 30
0.0
  0
INSERT
  5
2F3
330
41
100
AcDbEntity
  8
0
100
AcDbBlockReference
  2
circle_pin
 10
0.0
 20
1230.0
 30
0.0
  0
INSERT
  5
2F5
330
41
100
AcDbEntity
  8
0
100
AcDbBlockReference
  2
circle_pin
 10
0.0
 20
1234.0
 30
0.0
  0
INSERT
  5
2F7
330
41
100
AcDbEntity
  8
0
100
AcDbBlockReference
  2
circle_pin
 10
0.0
 20
1238.0
 30
0.0
  0
INSERT
  5
2F9
330
41
100
AcDbEntity
  8
0
100
AcDbBlockReference
  2
circle_pin
 10
0.0
 20
1242.0
 30
0.0
  0
INSERT
  5
2FB
330
41
100
AcDbEntity
  8
0
100
AcDbBlockReference
  2
circle_pin
 10
0.0
 20
1246.0
 30
0.0
  0
INSERT
  5
2FD
330
41
100
AcDbEntity
  8
0
100
AcDbBlockReference
  2
circle_pin
 10
0.0
 20
1250.0
 30
0.0
  0
INSERT
  5
2FF
330
41
100
AcDbEntity
  8
0
100
AcDbBlockReference
  2
circle_pin
 10
0.0
 20
1254.0
 30
0.0
  0
INSERT
  5
301
330
41
100
AcDbEntity
  8
0
100
AcDbBlockReference
  2
circle_pin
 10
0.0
 20
1258.0
 30
0.0
  0
INSERT
  5
303
330
41
100
AcDbEntity
  8
0
100
AcDbBlockReference
  2
circle_pin
 10
0.0
 20
1262.0
 30
0.0
  0
INSERT
  5
305
330
41
100
AcDbEntity
  8
0
100
AcDbBlockReference
  2
circle_pin
 10
0.0
 20
1266.0
 30
0.0
  0
INSERT
  5
307
330
41
100
AcDbEntity
  8
0
100
AcDbBlockReference
  2
circle_pin
 10
0.0
 20
1270.0
 30
0.0
  0
INSERT
  5
309
330
41
100
AcDbEntity
  8
0
100
AcDbBlockReference
  2
circle_pin
 10
0.0
 20
1274.0
 30
0.0
  0
INSERT
  5
30B
330
41
100
AcDbEntity
  8
0
100
AcDbBlockReference
  2
circle_pin
 10
0.0
 20
1278.0
 30
0.0
  0
INSERT
  5
30D
330
41
100
AcDbEntity
  8
0
100
AcDbBlockReference
  2
circle_pin
 10
0.0
 20
1282.0
 30
0.0
  0
INSERT
  5
30F
330
41
100
AcDbEntity
  8
0
100
AcDbBlockReference
  2
circle_pin
 10
0.0
 20
1286.0
 30
0.0
  0
INSERT
  5
311
330
41
100
AcDbEntity
  8
0
100
AcDbBlockReference
  2
circle_pin
 10
0.0
 20
1290.0
 30
0.0
  0
INSERT
  5
313
330
41
100
AcDbEntity
  8
0
100
AcDbBlockReference
  2
circle_pin
 10
0.0
 20
1294.0
 30
0.0
  0
INSERT
  5
315
330
41
100
AcDbEntity
  8
0
100
AcDbBlockReference
  2
circle_pin
 10
0.0
 20
1298.0
 30
0.0
  0
INSERT
  5
317
330
41
100
AcDbEntity
  8
0
100
AcDbBlockReference
  2
circle_pin
 10
0.0
 20
1302.0
 30
0.0
  0
INSERT
  5
319
330
41
100
AcDbEntity
  8
0
100
AcDbBlockReference
  2
circle_pin
 10
0.0
 20
1978.0
 30
0.0
  0
INSERT
  5
31B
330
41
100
AcDbEntity
  8
0
100
AcDbBlockReference
  2
circle_pin
 10
0.0
 20
1974.0
 30
0.0
  0
INSERT
  5
31D
330
41
100
AcDbEntity
  8
0
100
AcDbBlockReference
  2
circle_pin
 10
0.0
 20
1970.0
 30
0.0
  0
INSERT
  5
31F
330
41
100
AcDbEntity
  8
0
100
AcDbBlockReference
  2
circle_pin
 10
0.0
 20
1966.0
 30
0.0
  0
INSERT
  5
321
330
41
100
AcDbEntity
  8
0
100
AcDbBlockReference
  2
circle_pin
 10
0.0
 20
1962.0
 30
0.0
  0
INSERT
  5
323
330
41
100
AcDbEntity
  8
0
100
AcDbBlockReference
  2
circle_pin
 10
0.0
 20
1958.0
 30
0.0
  0
INSERT
  5
325
330
41
100
AcDbEntity
  8
0
100
AcDbBlockReference
  2
circle_pin
 10
0.0
 20
1954.0
 30
0.0
  0
INSERT
  5
327
330
41
100
AcDbEntity
  8
0
100
AcDbBlockReference
  2
circle_pin
 10
0.0
 20
1950.0
 30
0.0
  0
INSERT
  5
329
330
41
100
AcDbEntity
  8
0
100
AcDbBlockReference
  2
circle_pin
 10
0.0
 20
1942.0
 30
0.0
  0
INSERT
  5
32B
330
41
100
AcDbEntity
  8
0
100
AcDbBlockReference
  2
circle_pin
 10
0.0
 20
1938.0
 30
0.0
  0
INSERT
  5
32D
330
41
100
AcDbEntity
  8
0
100
AcDbBlockReference
  2
circle_pin
 10
0.0
 20
1934.0
 30
0.0
  0
INSERT
  5
32F
330
41
100
AcDbEntity
  8
0
100
AcDbBlockReference
  2
circle_pin
 10
0.0
 20
1930.0
 30
0.0
  0
INSERT
  5
331
330
41
100
AcDbEntity
  8
0
100
AcDbBlockReference
  2
circle_pin
 10
0.0
 20
1926.0
 30
0.0
  0
INSERT
  5
333
330
41
100
AcDbEntity
  8
0
100
AcDbBlockReference
  2
circle_pin
 10
0.0
 20
1922.0
 30
0.0
  0
INSERT
  5
335
330
41
100
AcDbEntity
  8
0
100
AcDbBlockReference
  2
circle_pin
 10
0.0
 20
1918.0
 30
0.0
  0
INSERT
  5
337
330
41
100
AcDbEntity
  8
0
100
AcDbBlockReference
  2
circle_pin
 10
0.0
 20
1914.0
 30
0.0
  0
INSERT
  5
339
330
41
100
AcDbEntity
  8
0
100
AcDbBlockReference
  2
circle_pin
 10
0.0
 20
1906.0
 30
0.0
  0
INSERT
  5
33B
330
41
100
AcDbEntity
  8
0
100
AcDbBlockReference
  2
circle_pin
 10
0.0
 20
1902.0
 30
0.0
  0
INSERT
  5
33D
330
41
100
AcDbEntity
  8
0
100
AcDbBlockReference
  2
circle_pin
 10
0.0
 20
1898.0
 30
0.0
  0
INSERT
  5
33F
330
41
100
AcDbEntity
  8
0
100
AcDbBlockReference
  2
circle_pin
 10
0.0
 20
1894.0
 30
0.0
  0
INSERT
  5
341
330
41
100
AcDbEntity
  8
0
100
AcDbBlockReference
  2
circle_pin
 10
0.0
 20
1886.0
 30
0.0
  0
INSERT
  5
343
330
41
100
AcDbEntity
  8
0
100
AcDbBlockReference
  2
circle_pin
 10
0.0
 20
1882.0
 30
0.0
  0
INSERT
  5
345
330
41
100
AcDbEntity
  8
0
100
AcDbBlockReference
  2
circle_pin
 10
0.0
 20
1878.0
 30
0.0
  0
INSERT
  5
347
330
41
100
AcDbEntity
  8
0
100
AcDbBlockReference
  2
circle_pin
 10
0.0
 20
1874.0
 30
0.0
  0
INSERT
  5
349
330
41
100
AcDbEntity
  8
0
100
AcDbBlockReference
  2
circle_pin
 10
0.0
 20
1866.0
 30
0.0
  0
INSERT
  5
34B
330
41
100
AcDbEntity
  8
0
100
AcDbBlockReference
  2
circle_pin
 10
0.0
 20
1862.0
 30
0.0
  0
INSERT
  5
34D
330
41
100
AcDbEntity
  8
0
100
AcDbBlockReference
  2
circle_pin
 10
0.0
 20
1858.0
 30
0.0
  0
INSERT
  5
34F
330
41
100
AcDbEntity
  8
0
100
AcDbBlockReference
  2
circle_pin
 10
0.0
 20
1854.0
 30
0.0
  0
INSERT
  5
351
330
41
100
AcDbEntity
  8
0
100
AcDbBlockReference
  2
circle_pin
 10
2000.0
 20
22.0
 30
0.0
  0
INSERT
  5
353
330
41
100
AcDbEntity
  8
0
100
AcDbBlockReference
  2
circle_pin
 10
2000.0
 20
26.0
 30
0.0
  0
INSERT
  5
355
330
41
100
AcDbEntity
  8
0
100
AcDbBlockReference
  2
circle_pin
 10
2000.0
 20
30.0
 30
0.0
  0
INSERT
  5
357
330
41
100
AcDbEntity
  8
0
100
AcDbBlockReference
  2
circle_pin
 10
2000.0
 20
34.0
 30
0.0
  0
INSERT
  5
359
330
41
100
AcDbEntity
  8
0
100
AcDbBlockReference
  2
circle_pin
 10
2000.0
 20
38.0
 30
0.0
  0
INSERT
  5
35B
330
41
100
AcDbEntity
  8
0
100
AcDbBlockReference
  2
circle_pin
 10
2000.0
 20
42.0
 30
0.0
  0
INSERT
  5
35D
330
41
100
AcDbEntity
  8
0
100
AcDbBlockReference
  2
circle_pin
 10
2000.0
 20
46.0
 30
0.0
  0
INSERT
  5
35F
330
41
100
AcDbEntity
  8
0
100
AcDbBlockReference
  2
circle_pin
 10
2000.0
 20
50.0
 30
0.0
  0
INSERT
  5
361
330
41
100
AcDbEntity
  8
0
100
AcDbBlockReference
  2
circle_pin
 10
2000.0
 20
58.0
 30
0.0
  0
INSERT
  5
363
330
41
100
AcDbEntity
  8
0
100
AcDbBlockReference
  2
circle_pin
 10
2000.0
 20
62.0
 30
0.0
  0
INSERT
  5
365
330
41
100
AcDbEntity
  8
0
100
AcDbBlockReference
  2
circle_pin
 10
2000.0
 20
66.0
 30
0.0
  0
INSERT
  5
367
330
41
100
AcDbEntity
  8
0
100
AcDbBlockReference
  2
circle_pin
 10
2000.0
 20
70.0
 30
0.0
  0
INSERT
  5
369
330
41
100
AcDbEntity
  8
0
100
AcDbBlockReference
  2
circle_pin
 10
2000.0
 20
74.0
 30
0.0
  0
INSERT
  5
36B
330
41
100
AcDbEntity
  8
0
100
AcDbBlockReference
  2
circle_pin
 10
2000.0
 20
78.0
 30
0.0
  0
INSERT
  5
36D
330
41
100
AcDbEntity
  8
0
100
AcDbBlockReference
  2
circle_pin
 10
2000.0
 20
82.0
 30
0.0
  0
INSERT
  5
36F
330
41
100
AcDbEntity
  8
0
100
AcDbBlockReference
  2
circle_pin
 10
2000.0
 20
86.0
 30
0.0
  0
INSERT
  5
371
330
41
100
AcDbEntity
  8
0
100
AcDbBlockReference
  2
circle_pin
 10
2000.0
 20
94.0
 30
0.0
  0
INSERT
  5
373
330
41
100
AcDbEntity
  8
0
100
AcDbBlockReference
  2
circle_pin
 10
2000.0
 20
98.0
 30
0.0
  0
INSERT
  5
375
330
41
100
AcDbEntity
  8
0
100
AcDbBlockReference
  2
circle_pin
 10
2000.0
 20
102.0
 30
0.0
  0
INSERT
  5
377
330
41
100
AcDbEntity
  8
0
100
AcDbBlockReference
  2
circle_pin
 10
2000.0
 20
106.0
 30
0.0
  0
INSERT
  5
379
330
41
100
AcDbEntity
  8
0
100
AcDbBlockReference
  2
circle_pin
 10
2000.0
 20
114.0
 30
0.0
  0
INSERT
  5
37B
330
41
100
AcDbEntity
  8
0
100
AcDbBlockReference
  2
circle_pin
 10
2000.0
 20
118.0
 30
0.0
  0
INSERT
  5
37D
330
41
100
AcDbEntity
  8
0
100
AcDbBlockReference
  2
circle_pin
 10
2000.0
 20
122.0
 30
0.0
  0
INSERT
  5
37F
330
41
100
AcDbEntity
  8
0
100
AcDbBlockReference
  2
circle_pin
 10
2000.0
 20
126.0
 30
0.0
  0
INSERT
  5
381
330
41
100
AcDbEntity
  8
0
100
AcDbBlockReference
  2
circle_pin
 10
2000.0
 20
134.0
 30
0.0
  0
INSERT
  5
383
330
41
100
AcDbEntity
  8
0
100
AcDbBlockReference
  2
circle_pin
 10
2000.0
 20
138.0
 30
0.0
  0
INSERT
  5
385
330
41
100
AcDbEntity
  8
0
100
AcDbBlockReference
  2
circle_pin
 10
2000.0
 20
142.0
 30
0.0
  0
INSERT
  5
387
330
41
100
AcDbEntity
  8
0
100
AcDbBlockReference
  2
circle_pin
 10
2000.0
 20
146.0
 30
0.0
  0
INSERT
  5
389
330
41
100
AcDbEntity
  8
0
100
AcDbBlockReference
  2
circle_pin
 10
2000.0
 20
1978.0
 30
0.0
  0
INSERT
  5
38B
330
41
100
AcDbEntity
  8
0
100
AcDbBlockReference
  2
circle_pin
 10
2000.0
 20
1974.0
 30
0.0
  0
INSERT
  5
38D
330
41
100
AcDbEntity
  8
0
100
AcDbBlockReference
  2
circle_pin
 10
2000.0
 20
1970.0
 30
0.0
  0
INSERT
  5
38F
330
41
100
AcDbEntity
  8
0
100
AcDbBlockReference
  2
circle_pin
 10
2000.0
 20
1966.0
 30
0.0
  0
INSERT
  5
391
330
41
100
AcDbEntity
  8
0
100
AcDbBlockReference
  2
circle_pin
 10
2000.0
 20
1962.0
 30
0.0
  0
INSERT
  5
393
330
41
100
AcDbEntity
  8
0
100
AcDbBlockReference
  2
circle_pin
 10
2000.0
 20
1958.0
 30
0.0
  0
INSERT
  5
395
330
41
100
AcDbEntity
  8
0
100
AcDbBlockReference
  2
circle_pin
 10
2000.0
 20
1954.0
 30
0.0
  0
INSERT
  5
397
330
41
100
AcDbEntity
  8
0
100
AcDbBlockReference
  2
circle_pin
 10
2000.0
 20
1950.0
 30
0.0
  0
INSERT
  5
399
330
41
100
AcDbEntity
  8
0
100
AcDbBlockReference
  2
circle_pin
 10
2000.0
 20
1942.0
 30
0.0
  0
INSERT
  5
39B
330
41
100
AcDbEntity
  8
0
100
AcDbBlockReference
  2
circle_pin
 10
2000.0
 20
1938.0
 30
0.0
  0
INSERT
  5
39D
330
41
100
AcDbEntity
  8
0
100
AcDbBlockReference
  2
circle_pin
 10
2000.0
 20
1934.0
 30
0.0
  0
INSERT
  5
39F
330
41
100
AcDbEntity
  8
0
100
AcDbBlockReference
  2
circle_pin
 10
2000.0
 20
1930.0
 30
0.0
  0
INSERT
  5
3A1
330
41
100
AcDbEntity
  8
0
100
AcDbBlockReference
  2
circle_pin
 10
2000.0
 20
1926.0
 30
0.0
  0
INSERT
  5
3A3
330
41
100
AcDbEntity
  8
0
100
AcDbBlockReference
  2
circle_pin
 10
2000.0
 20
1922.0
 30
0.0
  0
INSERT
  5
3A5
330
41
100
AcDbEntity
  8
0
100
AcDbBlockReference
  2
circle_pin
 10
2000.0
 20
1918.0
 30
0.0
  0
INSERT
  5
3A7
330
41
100
AcDbEntity
  8
0
100
AcDbBlockReference
  2
circle_pin
 10
2000.0
 20
1914.0
 30
0.0
  0
INSERT
  5
3A9
330
41
100
AcDbEntity
  8
0
100
AcDbBlockReference
  2
circle_pin
 10
2000.0
 20
1906.0
 30
0.0
  0
INSERT
  5
3AB
330
41
100
AcDbEntity
  8
0
100
AcDbBlockReference
  2
circle_pin
 10
2000.0
 20
1902.0
 30
0.0
  0
INSERT
  5
3AD
330
41
100
AcDbEntity
  8
0
100
AcDbBlockReference
  2
circle_pin
 10
2000.0
 20
1898.0
 30
0.0
  0
INSERT
  5
3AF
330
41
100
AcDbEntity
  8
0
100
AcDbBlockReference
  2
circle_pin
 10
2000.0
 20
1894.0
 30
0.0
  0
INSERT
  5
3B1
330
41
100
AcDbEntity
  8
0
100
AcDbBlockReference
  2
circle_pin
 10
2000.0
 20
1886.0
 30
0.0
  0
INSERT
  5
3B3
330
41
100
AcDbEntity
  8
0
100
AcDbBlockReference
  2
circle_pin
 10
2000.0
 20
1882.0
 30
0.0
  0
INSERT
  5
3B5
330
41
100
AcDbEntity
  8
0
100
AcDbBlockReference
  2
circle_pin
 10
2000.0
 20
1878.0
 30
0.0
  0
INSERT
  5
3B7
330
41
100
AcDbEntity
  8
0
100
AcDbBlockReference
  2
circle_pin
 10
2000.0
 20
1874.0
 30
0.0
  0
INSERT
  5
3B9
330
41
100
AcDbEntity
  8
0
100
AcDbBlockReference
  2
circle_pin
 10
2000.0
 20
1866.0
 30
0.0
  0
INSERT
  5
3BB
330
41
100
AcDbEntity
  8
0
100
AcDbBlockReference
  2
circle_pin
 10
2000.0
 20
1862.0
 30
0.0
  0
INSERT
  5
3BD
330
41
100
AcDbEntity
  8
0
100
AcDbBlockReference
  2
circle_pin
 10
2000.0
 20
1858.0
 30
0.0
  0
INSERT
  5
3BF
330
41
100
AcDbEntity
  8
0
100
AcDbBlockReference
  2
circle_pin
 10
2000.0
 20
1854.0
 30
0.0
  0
INSERT
  5
3C1
330
41
100
AcDbEntity
  8
0
100
AcDbBlockReference
  2
circle_pin
 10
2000.0
 20
1398.0
 30
0.0
  0
INSERT
  5
3C3
330
41
100
AcDbEntity
  8
0
100
AcDbBlockReference
  2
circle_pin
 10
2000.0
 20
1394.0
 30
0.0
  0
INSERT
  5
3C5
330
41
100
AcDbEntity
  8
0
100
AcDbBlockReference
  2
circle_pin
 10
2000.0
 20
1390.0
 30
0.0
  0
INSERT
  5
3C7
330
41
100
AcDbEntity
  8
0
100
AcDbBlockReference
  2
circle_pin
 10
2000.0
 20
1386.0
 30
0.0
  0
INSERT
  5
3C9
330
41
100
AcDbEntity
  8
0
100
AcDbBlockReference
  2
circle_pin
 10
2000.0
 20
1382.0
 30
0.0
  0
INSERT
  5
3CB
330
41
100
AcDbEntity
  8
0
100
AcDbBlockReference
  2
circle_pin
 10
2000.0
 20
1378.0
 30
0.0
  0
INSERT
  5
3CD
330
41
100
AcDbEntity
  8
0
100
AcDbBlockReference
  2
circle_pin
 10
2000.0
 20
1374.0
 30
0.0
  0
INSERT
  5
3CF
330
41
100
AcDbEntity
  8
0
100
AcDbBlockReference
  2
circle_pin
 10
2000.0
 20
1370.0
 30
0.0
  0
INSERT
  5
3D1
330
41
100
AcDbEntity
  8
0
100
AcDbBlockReference
  2
circle_pin
 10
2000.0
 20
1366.0
 30
0.0
  0
INSERT
  5
3D3
330
41
100
AcDbEntity
  8
0
100
AcDbBlockReference
  2
circle_pin
 10
2000.0
 20
1362.0
 30
0.0
  0
INSERT
  5
3D5
330
41
100
AcDbEntity
  8
0
100
AcDbBlockReference
  2
circle_pin
 10
2000.0
 20
1358.0
 30
0.0
  0
INSERT
  5
3D7
330
41
100
AcDbEntity
  8
0
100
AcDbBlockReference
  2
circle_pin
 10
2000.0
 20
1354.0
 30
0.0
  0
INSERT
  5
3D9
330
41
100
AcDbEntity
  8
0
100
AcDbBlockReference
  2
circle_pin
 10
2000.0
 20
1350.0
 30
0.0
  0
INSERT
  5
3DB
330
41
100
AcDbEntity
  8
0
100
AcDbBlockReference
  2
circle_pin
 10
2000.0
 20
1346.0
 30
0.0
  0
INSERT
  5
3DD
330
41
100
AcDbEntity
  8
0
100
AcDbBlockReference
  2
circle_pin
 10
2000.0
 20
1342.0
 30
0.0
  0
INSERT
  5
3DF
330
41
100
AcDbEntity
  8
0
100
AcDbBlockReference
  2
circle_pin
 10
2000.0
 20
1338.0
 30
0.0
  0
INSERT
  5
3E1
330
41
100
AcDbEntity
  8
0
100
AcDbBlockReference
  2
circle_pin
 10
2000.0
 20
1330.0
 30
0.0
  0
INSERT
  5
3E3
330
41
100
AcDbEntity
  8
0
100
AcDbBlockReference
  2
circle_pin
 10
2000.0
 20
1326.0
 30
0.0
  0
INSERT
  5
3E5
330
41
100
AcDbEntity
  8
0
100
AcDbBlockReference
  2
circle_pin
 10
2000.0
 20
1322.0
 30
0.0
  0
INSERT
  5
3E7
330
41
100
AcDbEntity
  8
0
100
AcDbBlockReference
  2
circle_pin
 10
2000.0
 20
1318.0
 30
0.0
  0
INSERT
  5
3E9
330
41
100
AcDbEntity
  8
0
100
AcDbBlockReference
  2
circle_pin
 10
2000.0
 20
1310.0
 30
0.0
  0
INSERT
  5
3EB
330
41
100
AcDbEntity
  8
0
100
AcDbBlockReference
  2
circle_pin
 10
2000.0
 20
1306.0
 30
0.0
  0
INSERT
  5
3ED
330
41
100
AcDbEntity
  8
0
100
AcDbBlockReference
  2
circle_pin
 10
2000.0
 20
1302.0
 30
0.0
  0
INSERT
  5
3EF
330
41
100
AcDbEntity
  8
0
100
AcDbBlockReference
  2
circle_pin
 10
2000.0
 20
1298.0
 30
0.0
  0
INSERT
  5
3F1
330
41
100
AcDbEntity
  8
0
100
AcDbBlockReference
  2
circle_pin
 10
2000.0
 20
1290.0
 30
0.0
  0
INSERT
  5
3F3
330
41
100
AcDbEntity
  8
0
100
AcDbBlockReference
  2
circle_pin
 10
2000.0
 20
1286.0
 30
0.0
  0
INSERT
  5
3F5
330
41
100
AcDbEntity
  8
0
100
AcDbBlockReference
  2
circle_pin
 10
2000.0
 20
1282.0
 30
0.0
  0
INSERT
  5
3F7
330
41
100
AcDbEntity
  8
0
100
AcDbBlockReference
  2
circle_pin
 10
2000.0
 20
1278.0
 30
0.0
  0
INSERT
  5
3F9
330
41
100
AcDbEntity
  8
0
100
AcDbBlockReference
  2
circle_pin
 10
2000.0
 20
1270.0
 30
0.0
  0
INSERT
  5
3FB
330
41
100
AcDbEntity
  8
0
100
AcDbBlockReference
  2
circle_pin
 10
2000.0
 20
1266.0
 30
0.0
  0
INSERT
  5
3FD
330
41
100
AcDbEntity
  8
0
100
AcDbBlockReference
  2
circle_pin
 10
2000.0
 20
1262.0
 30
0.0
  0
INSERT
  5
3FF
330
41
100
AcDbEntity
  8
0
100
AcDbBlockReference
  2
circle_pin
 10
2000.0
 20
1258.0
 30
0.0
  0
INSERT
  5
401
330
41
100
AcDbEntity
  8
0
100
AcDbBlockReference
  2
circle_pin
 10
2000.0
 20
1198.0
 30
0.0
  0
INSERT
  5
403
330
41
100
AcDbEntity
  8
0
100
AcDbBlockReference
  2
circle_pin
 10
2000.0
 20
1194.0
 30
0.0
  0
INSERT
  5
405
330
41
100
AcDbEntity
  8
0
100
AcDbBlockReference
  2
circle_pin
 10
2000.0
 20
1190.0
 30
0.0
  0
INSERT
  5
407
330
41
100
AcDbEntity
  8
0
100
AcDbBlockReference
  2
circle_pin
 10
2000.0
 20
1186.0
 30
0.0
  0
INSERT
  5
409
330
41
100
AcDbEntity
  8
0
100
AcDbBlockReference
  2
circle_pin
 10
2000.0
 20
1182.0
 30
0.0
  0
INSERT
  5
40B
330
41
100
AcDbEntity
  8
0
100
AcDbBlockReference
  2
circle_pin
 10
2000.0
 20
1178.0
 30
0.0
  0
INSERT
  5
40D
330
41
100
AcDbEntity
  8
0
100
AcDbBlockReference
  2
circle_pin
 10
2000.0
 20
1174.0
 30
0.0
  0
INSERT
  5
40F
330
41
100
AcDbEntity
  8
0
100
AcDbBlockReference
  2
circle_pin
 10
2000.0
 20
1170.0
 30
0.0
  0
INSERT
  5
411
330
41
100
AcDbEntity
  8
0
100
AcDbBlockReference
  2
circle_pin
 10
2000.0
 20
1166.0
 30
0.0
  0
INSERT
  5
413
330
41
100
AcDbEntity
  8
0
100
AcDbBlockReference
  2
circle_pin
 10
2000.0
 20
1162.0
 30
0.0
  0
INSERT
  5
415
330
41
100
AcDbEntity
  8
0
100
AcDbBlockReference
  2
circle_pin
 10
2000.0
 20
1158.0
 30
0.0
  0
INSERT
  5
417
330
41
100
AcDbEntity
  8
0
100
AcDbBlockReference
  2
circle_pin
 10
2000.0
 20
1154.0
 30
0.0
  0
INSERT
  5
419
330
41
100
AcDbEntity
  8
0
100
AcDbBlockReference
  2
circle_pin
 10
2000.0
 20
1150.0
 30
0.0
  0
INSERT
  5
41B
330
41
100
AcDbEntity
  8
0
100
AcDbBlockReference
  2
circle_pin
 10
2000.0
 20
1146.0
 30
0.0
  0
INSERT
  5
41D
330
41
100
AcDbEntity
  8
0
100
AcDbBlockReference
  2
circle_pin
 10
2000.0
 20
1142.0
 30
0.0
  0
INSERT
  5
41F
330
41
100
AcDbEntity
  8
0
100
AcDbBlockReference
  2
circle_pin
 10
2000.0
 20
1138.0
 30
0.0
  0
INSERT
  5
421
330
41
100
AcDbEntity
  8
0
100
AcDbBlockReference
  2
circle_pin
 10
2000.0
 20
1130.0
 30
0.0
  0
INSERT
  5
423
330
41
100
AcDbEntity
  8
0
100
AcDbBlockReference
  2
circle_pin
 10
2000.0
 20
1126.0
 30
0.0
  0
INSERT
  5
425
330
41
100
AcDbEntity
  8
0
100
AcDbBlockReference
  2
circle_pin
 10
2000.0
 20
1122.0
 30
0.0
  0
INSERT
  5
427
330
41
100
AcDbEntity
  8
0
100
AcDbBlockReference
  2
circle_pin
 10
2000.0
 20
1118.0
 30
0.0
  0
INSERT
  5
429
330
41
100
AcDbEntity
  8
0
100
AcDbBlockReference
  2
circle_pin
 10
2000.0
 20
1110.0
 30
0.0
  0
INSERT
  5
42B
330
41
100
AcDbEntity
  8
0
100
AcDbBlockReference
  2
circle_pin
 10
2000.0
 20
1106.0
 30
0.0
  0
INSERT
  5
42D
330
41
100
AcDbEntity
  8
0
100
AcDbBlockReference
  2
circle_pin
 10
2000.0
 20
1102.0
 30
0.0
  0
INSERT
  5
42F
330
41
100
AcDbEntity
  8
0
100
AcDbBlockReference
  2
circle_pin
 10
2000.0
 20
1098.0
 30
0.0
  0
INSERT
  5
431
330
41
100
AcDbEntity
  8
0
100
AcDbBlockReference
  2
circle_pin
 10
2000.0
 20
1090.0
 30
0.0
  0
INSERT
  5
433
330
41
100
AcDbEntity
  8
0
100
AcDbBlockReference
  2
circle_pin
 10
2000.0
 20
1086.0
 30
0.0
  0
INSERT
  5
435
330
41
100
AcDbEntity
  8
0
100
AcDbBlockReference
  2
circle_pin
 10
2000.0
 20
1082.0
 30
0.0
  0
INSERT
  5
437
330
41
100
AcDbEntity
  8
0
100
AcDbBlockReference
  2
circle_pin
 10
2000.0
 20
1078.0
 30
0.0
  0
INSERT
  5
439
330
41
100
AcDbEntity
  8
0
100
AcDbBlockReference
  2
circle_pin
 10
2000.0
 20
1070.0
 30
0.0
  0
INSERT
  5
43B
330
41
100
AcDbEntity
  8
0
100
AcDbBlockReference
  2
circle_pin
 10
2000.0
 20
1066.0
 30
0.0
  0
INSERT
  5
43D
330
41
100
AcDbEntity
  8
0
100
AcDbBlockReference
  2
circle_pin
 10
2000.0
 20
1062.0
 30
0.0
  0
INSERT
  5
43F
330
41
100
AcDbEntity
  8
0
100
AcDbBlockReference
  2
circle_pin
 10
2000.0
 20
1058.0
 30
0.0
  0
INSERT
  5
441
330
41
100
AcDbEntity
  8
0
100
AcDbBlockReference
  2
circle_pin
 10
2000.0
 20
806.0
 30
0.0
  0
INSERT
  5
443
330
41
100
AcDbEntity
  8
0
100
AcDbBlockReference
  2
circle_pin
 10
2000.0
 20
810.0
 30
0.0
  0
INSERT
  5
445
330
41
100
AcDbEntity
  8
0
100
AcDbBlockReference
  2
circle_pin
 10
2000.0
 20
814.0
 30
0.0
  0
INSERT
  5
447
330
41
100
AcDbEntity
  8
0
100
AcDbBlockReference
  2
circle_pin
 10
2000.0
 20
818.0
 30
0.0
  0
INSERT
  5
449
330
41
100
AcDbEntity
  8
0
100
AcDbBlockReference
  2
circle_pin
 10
2000.0
 20
822.0
 30
0.0
  0
INSERT
  5
44B
330
41
100
AcDbEntity
  8
0
100
AcDbBlockReference
  2
circle_pin
 10
2000.0
 20
826.0
 30
0.0
  0
INSERT
  5
44D
330
41
100
AcDbEntity
  8
0
100
AcDbBlockReference
  2
circle_pin
 10
2000.0
 20
830.0
 30
0.0
  0
INSERT
  5
44F
330
41
100
AcDbEntity
  8
0
100
AcDbBlockReference
  2
circle_pin
 10
2000.0
 20
834.0
 30
0.0
  0
INSERT
  5
451
330
41
100
AcDbEntity
  8
0
100
AcDbBlockReference
  2
circle_pin
 10
2000.0
 20
838.0
 30
0.0
  0
INSERT
  5
453
330
41
100
AcDbEntity
  8
0
100
AcDbBlockReference
  2
circle_pin
 10
2000.0
 20
842.0
 30
0.0
  0
INSERT
  5
455
330
41
100
AcDbEntity
  8
0
100
AcDbBlockReference
  2
circle_pin
 10
2000.0
 20
846.0
 30
0.0
  0
INSERT
  5
457
330
41
100
AcDbEntity
  8
0
100
AcDbBlockReference
  2
circle_pin
 10
2000.0
 20
850.0
 30
0.0
  0
INSERT
  5
459
330
41
100
AcDbEntity
  8
0
100
AcDbBlockReference
  2
circle_pin
 10
2000.0
 20
854.0
 30
0.0
  0
INSERT
  5
45B
330
41
100
AcDbEntity
  8
0
100
AcDbBlockReference
  2
circle_pin
 10
2000.0
 20
858.0
 30
0.0
  0
INSERT
  5
45D
330
41
100
AcDbEntity
  8
0
100
AcDbBlockReference
  2
circle_pin
 10
2000.0
 20
862.0
 30
0.0
  0
INSERT
  5
45F
330
41
100
AcDbEntity
  8
0
100
AcDbBlockReference
  2
circle_pin
 10
2000.0
 20
866.0
 30
0.0
  0
INSERT
  5
461
330
41
100
AcDbEntity
  8
0
100
AcDbBlockReference
  2
circle_pin
 10
2000.0
 20
870.0
 30
0.0
  0
INSERT
  5
463
330
41
100
AcDbEntity
  8
0
100
AcDbBlockReference
  2
circle_pin
 10
2000.0
 20
874.0
 30
0.0
  0
INSERT
  5
465
330
41
100
AcDbEntity
  8
0
100
AcDbBlockReference
  2
circle_pin
 10
2000.0
 20
878.0
 30
0.0
  0
INSERT
  5
467
330
41
100
AcDbEntity
  8
0
100
AcDbBlockReference
  2
circle_pin
 10
2000.0
 20
882.0
 30
0.0
  0
INSERT
  5
469
330
41
100
AcDbEntity
  8
0
100
AcDbBlockReference
  2
circle_pin
 10
2000.0
 20
886.0
 30
0.0
  0
INSERT
  5
46B
330
41
100
AcDbEntity
  8
0
100
AcDbBlockReference
  2
circle_pin
 10
2000.0
 20
890.0
 30
0.0
  0
INSERT
  5
46D
330
41
100
AcDbEntity
  8
0
100
AcDbBlockReference
  2
circle_pin
 10
2000.0
 20
894.0
 30
0.0
  0
INSERT
  5
46F
330
41
100
AcDbEntity
  8
0
100
AcDbBlockReference
  2
circle_pin
 10
2000.0
 20
898.0
 30
0.0
  0
INSERT
  5
471
330
41
100
AcDbEntity
  8
0
100
AcDbBlockReference
  2
circle_pin
 10
2000.0
 20
902.0
 30
0.0
  0
INSERT
  5
473
330
41
100
AcDbEntity
  8
0
100
AcDbBlockReference
  2
circle_pin
 10
2000.0
 20
906.0
 30
0.0
  0
INSERT
  5
475
330
41
100
AcDbEntity
  8
0
100
AcDbBlockReference
  2
circle_pin
 10
2000.0
 20
910.0
 30
0.0
  0
INSERT
  5
477
330
41
100
AcDbEntity
  8
0
100
AcDbBlockReference
  2
circle_pin
 10
2000.0
 20
914.0
 30
0.0
  0
INSERT
  5
479
330
41
100
AcDbEntity
  8
0
100
AcDbBlockReference
  2
circle_pin
 10
2000.0
 20
918.0
 30
0.0
  0
INSERT
  5
47B
330
41
100
AcDbEntity
  8
0
100
AcDbBlockReference
  2
circle_pin
 10
2000.0
 20
922.0
 30
0.0
  0
INSERT
  5
47D
330
41
100
AcDbEntity
  8
0
100
AcDbBlockReference
  2
circle_pin
 10
2000.0
 20
926.0
 30
0.0
  0
INSERT
  5
47F
330
41
100
AcDbEntity
  8
0
100
AcDbBlockReference
  2
circle_pin
 10
2000.0
 20
930.0
 30
0.0
  0
INSERT
  5
481
330
41
100
AcDbEntity
  8
0
100
AcDbBlockReference
  2
circle_pin
 10
2000.0
 20
934.0
 30
0.0
  0
INSERT
  5
483
330
41
100
AcDbEntity
  8
0
100
AcDbBlockReference
  2
circle_pin
 10
2000.0
 20
938.0
 30
0.0
  0
INSERT
  5
485
330
41
100
AcDbEntity
  8
0
100
AcDbBlockReference
  2
circle_pin
 10
2000.0
 20
942.0
 30
0.0
  0
INSERT
  5
487
330
41
100
AcDbEntity
  8
0
100
AcDbBlockReference
  2
circle_pin
 10
2000.0
 20
946.0
 30
0.0
  0
INSERT
  5
489
330
41
100
AcDbEntity
  8
0
100
AcDbBlockReference
  2
circle_pin
 10
2000.0
 20
950.0
 30
0.0
  0
INSERT
  5
48B
330
41
100
AcDbEntity
  8
0
100
AcDbBlockReference
  2
circle_pin
 10
2000.0
 20
954.0
 30
0.0
  0
INSERT
  5
48D
330
41
100
AcDbEntity
  8
0
100
AcDbBlockReference
  2
circle_pin
 10
2000.0
 20
958.0
 30
0.0
  0
INSERT
  5
48F
330
41
100
AcDbEntity
  8
0
100
AcDbBlockReference
  2
circle_pin
 10
2000.0
 20
962.0
 30
0.0
  0
INSERT
  5
491
330
41
100
AcDbEntity
  8
0
100
AcDbBlockReference
  2
circle_pin
 10
2000.0
 20
966.0
 30
0.0
  0
INSERT
  5
493
330
41
100
AcDbEntity
  8
0
100
AcDbBlockReference
  2
circle_pin
 10
2000.0
 20
970.0
 30
0.0
  0
INSERT
  5
495
330
41
100
AcDbEntity
  8
0
100
AcDbBlockReference
  2
circle_pin
 10
2000.0
 20
974.0
 30
0.0
  0
INSERT
  5
497
330
41
100
AcDbEntity
  8
0
100
AcDbBlockReference
  2
circle_pin
 10
2000.0
 20
978.0
 30
0.0
  0
INSERT
  5
499
330
41
100
AcDbEntity
  8
0
100
AcDbBlockReference
  2
circle_pin
 10
2000.0
 20
982.0
 30
0.0
  0
INSERT
  5
49B
330
41
100
AcDbEntity
  8
0
100
AcDbBlockReference
  2
circle_pin
 10
2000.0
 20
986.0
 30
0.0
  0
INSERT
  5
49D
330
41
100
AcDbEntity
  8
0
100
AcDbBlockReference
  2
circle_pin
 10
2000.0
 20
990.0
 30
0.0
  0
INSERT
  5
49F
330
41
100
AcDbEntity
  8
0
100
AcDbBlockReference
  2
circle_pin
 10
2000.0
 20
994.0
 30
0.0
  0
INSERT
  5
4A1
330
41
100
AcDbEntity
  8
0
100
AcDbBlockReference
  2
circle_pin
 10
2000.0
 20
998.0
 30
0.0
  0
INSERT
  5
4A3
330
41
100
AcDbEntity
  8
0
100
AcDbBlockReference
  2
circle_pin
 10
2000.0
 20
1002.0
 30
0.0
  0
INSERT
  5
4A5
330
41
100
AcDbEntity
  8
0
100
AcDbBlockReference
  2
circle_pin
 10
2000.0
 20
1006.0
 30
0.0
  0
INSERT
  5
4A7
330
41
100
AcDbEntity
  8
0
100
AcDbBlockReference
  2
circle_pin
 10
2000.0
 20
1010.0
 30
0.0
  0
INSERT
  5
4A9
330
41
100
AcDbEntity
  8
0
100
AcDbBlockReference
  2
circle_pin
 10
2000.0
 20
1014.0
 30
0.0
  0
INSERT
  5
4AB
330
41
100
AcDbEntity
  8
0
100
AcDbBlockReference
  2
circle_pin
 10
2000.0
 20
1018.0
 30
0.0
  0
INSERT
  5
4AD
330
41
100
AcDbEntity
  8
0
100
AcDbBlockReference
  2
circle_pin
 10
2000.0
 20
1022.0
 30
0.0
  0
INSERT
  5
4AF
330
41
100
AcDbEntity
  8
0
100
AcDbBlockReference
  2
circle_pin
 10
2000.0
 20
1026.0
 30
0.0
  0
INSERT
  5
4B1
330
41
100
AcDbEntity
  8
0
100
AcDbBlockReference
  2
circle_pin
 10
2000.0
 20
1030.0
 30
0.0
  0
INSERT
  5
4B3
330
41
100
AcDbEntity
  8
0
100
AcDbBlockReference
  2
circle_pin
 10
2000.0
 20
1034.0
 30
0.0
  0
INSERT
  5
4B5
330
41
100
AcDbEntity
  8
0
100
AcDbBlockReference
  2
circle_pin
 10
2000.0
 20
1038.0
 30
0.0
  0
INSERT
  5
4B7
330
41
100
AcDbEntity
  8
0
100
AcDbBlockReference
  2
circle_pin
 10
2000.0
 20
1042.0
 30
0.0
  0
INSERT
  5
4B9
330
41
100
AcDbEntity
  8
0
100
AcDbBlockReference
  2
circle_pin
 10
2000.0
 20
1046.0
 30
0.0
  0
INSERT
  5
4BB
330
41
100
AcDbEntity
  8
0
100
AcDbBlockReference
  2
circle_pin
 10
2000.0
 20
1050.0
 30
0.0
  0
INSERT
  5
4BD
330
41
100
AcDbEntity
  8
0
100
AcDbBlockReference
  2
circle_pin
 10
2000.0
 20
1054.0
 30
0.0
  0
INSERT
  5
4BF
330
41
100
AcDbEntity
  8
0
100
AcDbBlockReference
  2
circle_pin
 10
2000.0
 20
1058.0
 30
0.0
  0
INSERT
  5
4C1
330
41
100
AcDbEntity
  8
0
100
AcDbBlockReference
  2
circle_pin
 10
2000.0
 20
1066.0
 30
0.0
  0
INSERT
  5
4C3
330
41
100
AcDbEntity
  8
0
100
AcDbBlockReference
  2
circle_pin
 10
2000.0
 20
1070.0
 30
0.0
  0
INSERT
  5
4C5
330
41
100
AcDbEntity
  8
0
100
AcDbBlockReference
  2
circle_pin
 10
2000.0
 20
1074.0
 30
0.0
  0
INSERT
  5
4C7
330
41
100
AcDbEntity
  8
0
100
AcDbBlockReference
  2
circle_pin
 10
2000.0
 20
1078.0
 30
0.0
  0
INSERT
  5
4C9
330
41
100
AcDbEntity
  8
0
100
AcDbBlockReference
  2
circle_pin
 10
2000.0
 20
1082.0
 30
0.0
  0
INSERT
  5
4CB
330
41
100
AcDbEntity
  8
0
100
AcDbBlockReference
  2
circle_pin
 10
2000.0
 20
1086.0
 30
0.0
  0
INSERT
  5
4CD
330
41
100
AcDbEntity
  8
0
100
AcDbBlockReference
  2
circle_pin
 10
2000.0
 20
1090.0
 30
0.0
  0
INSERT
  5
4CF
330
41
100
AcDbEntity
  8
0
100
AcDbBlockReference
  2
circle_pin
 10
2000.0
 20
1094.0
 30
0.0
  0
INSERT
  5
4D1
330
41
100
AcDbEntity
  8
0
100
AcDbBlockReference
  2
circle_pin
 10
2000.0
 20
1098.0
 30
0.0
  0
INSERT
  5
4D3
330
41
100
AcDbEntity
  8
0
100
AcDbBlockReference
  2
circle_pin
 10
2000.0
 20
1102.0
 30
0.0
  0
INSERT
  5
4D5
330
41
100
AcDbEntity
  8
0
100
AcDbBlockReference
  2
circle_pin
 10
2000.0
 20
1106.0
 30
0.0
  0
INSERT
  5
4D7
330
41
100
AcDbEntity
  8
0
100
AcDbBlockReference
  2
circle_pin
 10
2000.0
 20
1110.0
 30
0.0
  0
INSERT
  5
4D9
330
41
100
AcDbEntity
  8
0
100
AcDbBlockReference
  2
circle_pin
 10
2000.0
 20
1114.0
 30
0.0
  0
INSERT
  5
4DB
330
41
100
AcDbEntity
  8
0
100
AcDbBlockReference
  2
circle_pin
 10
2000.0
 20
1118.0
 30
0.0
  0
INSERT
  5
4DD
330
41
100
AcDbEntity
  8
0
100
AcDbBlockReference
  2
circle_pin
 10
2000.0
 20
1122.0
 30
0.0
  0
INSERT
  5
4DF
330
41
100
AcDbEntity
  8
0
100
AcDbBlockReference
  2
circle_pin
 10
2000.0
 20
1126.0
 30
0.0
  0
INSERT
  5
4E1
330
41
100
AcDbEntity
  8
0
100
AcDbBlockReference
  2
circle_pin
 10
2000.0
 20
1130.0
 30
0.0
  0
INSERT
  5
4E3
330
41
100
AcDbEntity
  8
0
100
AcDbBlockReference
  2
circle_pin
 10
2000.0
 20
1134.0
 30
0.0
  0
INSERT
  5
4E5
330
41
100
AcDbEntity
  8
0
100
AcDbBlockReference
  2
circle_pin
 10
2000.0
 20
1138.0
 30
0.0
  0
INSERT
  5
4E7
330
41
100
AcDbEntity
  8
0
100
AcDbBlockReference
  2
circle_pin
 10
2000.0
 20
1142.0
 30
0.0
  0
INSERT
  5
4E9
330
41
100
AcDbEntity
  8
0
100
AcDbBlockReference
  2
circle_pin
 10
2000.0
 20
1146.0
 30
0.0
  0
INSERT
  5
4EB
330
41
100
AcDbEntity
  8
0
100
AcDbBlockReference
  2
circle_pin
 10
2000.0
 20
1150.0
 30
0.0
  0
INSERT
  5
4ED
330
41
100
AcDbEntity
  8
0
100
AcDbBlockReference
  2
circle_pin
 10
2000.0
 20
1154.0
 30
0.0
  0
INSERT
  5
4EF
330
41
100
AcDbEntity
  8
0
100
AcDbBlockReference
  2
circle_pin
 10
2000.0
 20
1158.0
 30
0.0
  0
INSERT
  5
4F1
330
41
100
AcDbEntity
  8
0
100
AcDbBlockReference
  2
circle_pin
 10
2000.0
 20
1162.0
 30
0.0
  0
INSERT
  5
4F3
330
41
100
AcDbEntity
  8
0
100
AcDbBlockReference
  2
circle_pin
 10
2000.0
 20
1166.0
 30
0.0
  0
INSERT
  5
4F5
330
41
100
AcDbEntity
  8
0
100
AcDbBlockReference
  2
circle_pin
 10
2000.0
 20
1170.0
 30
0.0
  0
INSERT
  5
4F7
330
41
100
AcDbEntity
  8
0
100
AcDbBlockReference
  2
circle_pin
 10
2000.0
 20
1174.0
 30
0.0
  0
INSERT
  5
4F9
330
41
100
AcDbEntity
  8
0
100
AcDbBlockReference
  2
circle_pin
 10
2000.0
 20
1178.0
 30
0.0
  0
INSERT
  5
4FB
330
41
100
AcDbEntity
  8
0
100
AcDbBlockReference
  2
circle_pin
 10
2000.0
 20
1182.0
 30
0.0
  0
INSERT
  5
4FD
330
41
100
AcDbEntity
  8
0
100
AcDbBlockReference
  2
circle_pin
 10
2000.0
 20
1186.0
 30
0.0
  0
INSERT
  5
4FF
330
41
100
AcDbEntity
  8
0
100
AcDbBlockReference
  2
circle_pin
 10
2000.0
 20
1190.0
 30
0.0
  0
INSERT
  5
501
330
41
100
AcDbEntity
  8
0
100
AcDbBlockReference
  2
circle_pin
 10
2000.0
 20
1194.0
 30
0.0
  0
INSERT
  5
503
330
41
100
AcDbEntity
  8
0
100
AcDbBlockReference
  2
circle_pin
 10
2000.0
 20
1198.0
 30
0.0
  0
INSERT
  5
505
330
41
100
AcDbEntity
  8
0
100
AcDbBlockReference
  2
circle_pin
 10
2000.0
 20
1202.0
 30
0.0
  0
INSERT
  5
507
330
41
100
AcDbEntity
  8
0
100
AcDbBlockReference
  2
circle_pin
 10
2000.0
 20
1206.0
 30
0.0
  0
INSERT
  5
509
330
41
100
AcDbEntity
  8
0
100
AcDbBlockReference
  2
circle_pin
 10
2000.0
 20
1210.0
 30
0.0
  0
INSERT
  5
50B
330
41
100
AcDbEntity
  8
0
100
AcDbBlockReference
  2
circle_pin
 10
2000.0
 20
1214.0
 30
0.0
  0
INSERT
  5
50D
330
41
100
AcDbEntity
  8
0
100
AcDbBlockReference
  2
circle_pin
 10
2000.0
 20
1218.0
 30
0.0
  0
INSERT
  5
50F
330
41
100
AcDbEntity
  8
0
100
AcDbBlockReference
  2
circle_pin
 10
2000.0
 20
1222.0
 30
0.0
  0
INSERT
  5
511
330
41
100
AcDbEntity
  8
0
100
AcDbBlockReference
  2
circle_pin
 10
2000.0
 20
1226.0
 30
0.0
  0
INSERT
  5
513
330
41
100
AcDbEntity
  8
0
100
AcDbBlockReference
  2
circle_pin
 10
2000.0
 20
1230.0
 30
0.0
  0
INSERT
  5
515
330
41
100
AcDbEntity
  8
0
100
AcDbBlockReference
  2
circle_pin
 10
2000.0
 20
1234.0
 30
0.0
  0
INSERT
  5
517
330
41
100
AcDbEntity
  8
0
100
AcDbBlockReference
  2
circle_pin
 10
2000.0
 20
1238.0
 30
0.0
  0
INSERT
  5
519
330
41
100
AcDbEntity
  8
0
100
AcDbBlockReference
  2
circle_pin
 10
2000.0
 20
1242.0
 30
0.0
  0
INSERT
  5
51B
330
41
100
AcDbEntity
  8
0
100
AcDbBlockReference
  2
circle_pin
 10
2000.0
 20
1246.0
 30
0.0
  0
INSERT
  5
51D
330
41
100
AcDbEntity
  8
0
100
AcDbBlockReference
  2
circle_pin
 10
2000.0
 20
1250.0
 30
0.0
  0
INSERT
  5
51F
330
41
100
AcDbEntity
  8
0
100
AcDbBlockReference
  2
circle_pin
 10
2000.0
 20
1254.0
 30
0.0
  0
INSERT
  5
521
330
41
100
AcDbEntity
  8
0
100
AcDbBlockReference
  2
circle_pin
 10
2000.0
 20
1258.0
 30
0.0
  0
INSERT
  5
523
330
41
100
AcDbEntity
  8
0
100
AcDbBlockReference
  2
circle_pin
 10
2000.0
 20
1262.0
 30
0.0
  0
INSERT
  5
525
330
41
100
AcDbEntity
  8
0
100
AcDbBlockReference
  2
circle_pin
 10
2000.0
 20
1266.0
 30
0.0
  0
INSERT
  5
527
330
41
100
AcDbEntity
  8
0
100
AcDbBlockReference
  2
circle_pin
 10
2000.0
 20
1270.0
 30
0.0
  0
INSERT
  5
529
330
41
100
AcDbEntity
  8
0
100
AcDbBlockReference
  2
circle_pin
 10
2000.0
 20
1274.0
 30
0.0
  0
INSERT
  5
52B
330
41
100
AcDbEntity
  8
0
100
AcDbBlockReference
  2
circle_pin
 10
2000.0
 20
1278.0
 30
0.0
  0
INSERT
  5
52D
330
41
100
AcDbEntity
  8
0
100
AcDbBlockReference
  2
circle_pin
 10
2000.0
 20
1282.0
 30
0.0
  0
INSERT
  5
52F
330
41
100
AcDbEntity
  8
0
100
AcDbBlockReference
  2
circle_pin
 10
2000.0
 20
1286.0
 30
0.0
  0
INSERT
  5
531
330
41
100
AcDbEntity
  8
0
100
AcDbBlockReference
  2
circle_pin
 10
2000.0
 20
1290.0
 30
0.0
  0
INSERT
  5
533
330
41
100
AcDbEntity
  8
0
100
AcDbBlockReference
  2
circle_pin
 10
2000.0
 20
1294.0
 30
0.0
  0
INSERT
  5
535
330
41
100
AcDbEntity
  8
0
100
AcDbBlockReference
  2
circle_pin
 10
2000.0
 20
1298.0
 30
0.0
  0
INSERT
  5
537
330
41
100
AcDbEntity
  8
0
100
AcDbBlockReference
  2
circle_pin
 10
2000.0
 20
1302.0
 30
0.0
  0
INSERT
  5
539
330
41
100
AcDbEntity
  8
0
100
AcDbBlockReference
  2
circle_pin
 10
2000.0
 20
1306.0
 30
0.0
  0
INSERT
  5
53B
330
41
100
AcDbEntity
  8
0
100
AcDbBlockReference
  2
circle_pin
 10
2000.0
 20
1310.0
 30
0.0
  0
INSERT
  5
53D
330
41
100
AcDbEntity
  8
0
100
AcDbBlockReference
  2
circle_pin
 10
2000.0
 20
1314.0
 30
0.0
  0
INSERT
  5
53F
330
41
100
AcDbEntity
  8
0
100
AcDbBlockReference
  2
circle_pin
 10
2000.0
 20
1318.0
 30
0.0
  0
INSERT
  5
541
330
41
100
AcDbEntity
  8
0
100
AcDbBlockReference
  2
circle_pin
 10
2000.0
 20
1322.0
 30
0.0
  0
INSERT
  5
543
330
41
100
AcDbEntity
  8
0
100
AcDbBlockReference
  2
circle_pin
 10
2000.0
 20
1326.0
 30
0.0
  0
INSERT
  5
545
330
41
100
AcDbEntity
  8
0
100
AcDbBlockReference
  2
circle_pin
 10
2000.0
 20
1330.0
 30
0.0
  0
INSERT
  5
547
330
41
100
AcDbEntity
  8
0
100
AcDbBlockReference
  2
circle_pin
 10
2000.0
 20
1334.0
 30
0.0
  0
INSERT
  5
549
330
41
100
AcDbEntity
  8
0
100
AcDbBlockReference
  2
circle_pin
 10
2000.0
 20
1338.0
 30
0.0
  0
INSERT
  5
54B
330
41
100
AcDbEntity
  8
0
100
AcDbBlockReference
  2
circle_pin
 10
2000.0
 20
1342.0
 30
0.0
  0
INSERT
  5
54D
330
41
100
AcDbEntity
  8
0
100
AcDbBlockReference
  2
circle_pin
 10
2000.0
 20
1346.0
 30
0.0
  0
INSERT
  5
54F
330
41
100
AcDbEntity
  8
0
100
AcDbBlockReference
  2
circle_pin
 10
2000.0
 20
1350.0
 30
0.0
  0
INSERT
  5
551
330
41
100
AcDbEntity
  8
0
100
AcDbBlockReference
  2
circle_pin
 10
2000.0
 20
1354.0
 30
0.0
  0
INSERT
  5
553
330
41
100
AcDbEntity
  8
0
100
AcDbBlockReference
  2
circle_pin
 10
2000.0
 20
1358.0
 30
0.0
  0
INSERT
  5
555
330
41
100
AcDbEntity
  8
0
100
AcDbBlockReference
  2
circle_pin
 10
2000.0
 20
1362.0
 30
0.0
  0
INSERT
  5
557
330
41
100
AcDbEntity
  8
0
100
AcDbBlockReference
  2
circle_pin
 10
2000.0
 20
1366.0
 30
0.0
  0
INSERT
  5
559
330
41
100
AcDbEntity
  8
0
100
AcDbBlockReference
  2
circle_pin
 10
2000.0
 20
1370.0
 30
0.0
  0
INSERT
  5
55B
330
41
100
AcDbEntity
  8
0
100
AcDbBlockReference
  2
circle_pin
 10
2000.0
 20
1374.0
 30
0.0
  0
INSERT
  5
55D
330
41
100
AcDbEntity
  8
0
100
AcDbBlockReference
  2
circle_pin
 10
2000.0
 20
1378.0
 30
0.0
  0
INSERT
  5
55F
330
41
100
AcDbEntity
  8
0
100
AcDbBlockReference
  2
circle_pin
 10
2000.0
 20
1382.0
 30
0.0
  0
INSERT
  5
561
330
41
100
AcDbEntity
  8
0
100
AcDbBlockReference
  2
circle_pin
 10
2000.0
 20
1386.0
 30
0.0
  0
INSERT
  5
563
330
41
100
AcDbEntity
  8
0
100
AcDbBlockReference
  2
circle_pin
 10
2000.0
 20
1390.0
 30
0.0
  0
INSERT
  5
565
330
41
100
AcDbEntity
  8
0
100
AcDbBlockReference
  2
circle_pin
 10
2000.0
 20
1394.0
 30
0.0
  0
INSERT
  5
567
330
41
100
AcDbEntity
  8
0
100
AcDbBlockReference
  2
circle_pin
 10
2000.0
 20
1398.0
 30
0.0
  0
INSERT
  5
569
330
41
100
AcDbEntity
  8
0
100
AcDbBlockReference
  2
circle_pin
 10
2000.0
 20
1402.0
 30
0.0
  0
INSERT
  5
56B
330
41
100
AcDbEntity
  8
0
100
AcDbBlockReference
  2
circle_pin
 10
2000.0
 20
1406.0
 30
0.0
  0
INSERT
  5
56D
330
41
100
AcDbEntity
  8
0
100
AcDbBlockReference
  2
circle_pin
 10
2000.0
 20
1410.0
 30
0.0
  0
INSERT
  5
56F
330
41
100
AcDbEntity
  8
0
100
AcDbBlockReference
  2
circle_pin
 10
2000.0
 20
1414.0
 30
0.0
  0
INSERT
  5
571
330
41
100
AcDbEntity
  8
0
100
AcDbBlockReference
  2
circle_pin
 10
2000.0
 20
1418.0
 30
0.0
  0
INSERT
  5
573
330
41
100
AcDbEntity
  8
0
100
AcDbBlockReference
  2
circle_pin
 10
2000.0
 20
1422.0
 30
0.0
  0
INSERT
  5
575
330
41
100
AcDbEntity
  8
0
100
AcDbBlockReference
  2
circle_pin
 10
2000.0
 20
1426.0
 30
0.0
  0
INSERT
  5
577
330
41
100
AcDbEntity
  8
0
100
AcDbBlockReference
  2
circle_pin
 10
2000.0
 20
1430.0
 30
0.0
  0
INSERT
  5
579
330
41
100
AcDbEntity
  8
0
100
AcDbBlockReference
  2
circle_pin
 10
2000.0
 20
1434.0
 30
0.0
  0
INSERT
  5
57B
330
41
100
AcDbEntity
  8
0
100
AcDbBlockReference
  2
circle_pin
 10
2000.0
 20
1438.0
 30
0.0
  0
INSERT
  5
57D
330
41
100
AcDbEntity
  8
0
100
AcDbBlockReference
  2
circle_pin
 10
2000.0
 20
1442.0
 30
0.0
  0
INSERT
  5
57F
330
41
100
AcDbEntity
  8
0
100
AcDbBlockReference
  2
circle_pin
 10
2000.0
 20
1446.0
 30
0.0
  0
ENDBLK
  5
43
330
41
100
AcDbEntity
  8
0
100
AcDbBlockEnd
  0
BLOCK
  5
46
330
45
100
AcDbEntity
  8
0
100
AcDbBlockBegin
  2
circle_pin
 70
0
 10
0.0
 20
0.0
 30
0.0
  3
circle_pin
  1

  0
CIRCLE
  5
48
330
45
100
AcDbEntity
  8
0
100
AcDbCircle
 10
0.0
 20
0.0
 30
0.0
 40
2.0
  0
ENDBLK
  5
47
330
45
100
AcDbEntity
  8
0
100
AcDbBlockEnd
  0
BLOCK
  5
612
330
611
100
AcDbEntity
  8
0
100
AcDbBlockBegin
  2
SWH_E
 70
0
 10
0.0
 20
0.0
 30
0.0
  3
SWH_E
  1

  0
LWPOLYLINE
  5
614
330
611
100
AcDbEntity
  8
0
100
AcDbPolyline
 90
4
 70
1
 10
0.0
 20
0.0
 10
2000.0
 20
0.0
 10
2000.0
 20
2000.0
 10
0.0
 20
2000.0
  0
INSERT
  5
615
330
611
100
AcDbEntity
  8
0
100
AcDbBlockReference
  2
circle_pin
 10
22.0
 20
0.0
 30
0.0
  0
INSERT
  5
617
330
611
100
AcDbEntity
  8
0
100
AcDbBlockReference
  2
circle_pin
 10
26.0
 20
0.0
 30
0.0
  0
INSERT
  5
619
330
611
100
AcDbEntity
  8
0
100
AcDbBlockReference
  2
circle_pin
 10
30.0
 20
0.0
 30
0.0
  0
INSERT
  5
61B
330
611
100
AcDbEntity
  8
0
100
AcDbBlockReference
  2
circle_pin
 10
34.0
 20
0.0
 30
0.0
  0
INSERT
  5
61D
330
611
100
AcDbEntity
  8
0
100
AcDbBlockReference
  2
circle_pin
 10
38.0
 20
0.0
 30
0.0
  0
INSERT
  5
61F
330
611
100
AcDbEntity
  8
0
100
AcDbBlockReference
  2
circle_pin
 10
42.0
 20
0.0
 30
0.0
  0
INSERT
  5
621
330
611
100
AcDbEntity
  8
0
100
AcDbBlockReference
  2
circle_pin
 10
46.0
 20
0.0
 30
0.0
  0
INSERT
  5
623
330
611
100
AcDbEntity
  8
0
100
AcDbBlockReference
  2
circle_pin
 10
50.0
 20
0.0
 30
0.0
  0
INSERT
  5
625
330
611
100
AcDbEntity
  8
0
100
AcDbBlockReference
  2
circle_pin
 10
58.0
 20
0.0
 30
0.0
  0
INSERT
  5
627
330
611
100
AcDbEntity
  8
0
100
AcDbBlockReference
  2
circle_pin
 10
62.0
 20
0.0
 30
0.0
  0
INSERT
  5
629
330
611
100
AcDbEntity
  8
0
100
AcDbBlockReference
  2
circle_pin
 10
66.0
 20
0.0
 30
0.0
  0
INSERT
  5
62B
330
611
100
AcDbEntity
  8
0
100
AcDbBlockReference
  2
circle_pin
 10
70.0
 20
0.0
 30
0.0
  0
INSERT
  5
62D
330
611
100
AcDbEntity
  8
0
100
AcDbBlockReference
  2
circle_pin
 10
74.0
 20
0.0
 30
0.0
  0
INSERT
  5
62F
330
611
100
AcDbEntity
  8
0
100
AcDbBlockReference
  2
circle_pin
 10
78.0
 20
0.0
 30
0.0
  0
INSERT
  5
631
330
611
100
AcDbEntity
  8
0
100
AcDbBlockReference
  2
circle_pin
 10
82.0
 20
0.0
 30
0.0
  0
INSERT
  5
633
330
611
100
AcDbEntity
  8
0
100
AcDbBlockReference
  2
circle_pin
 10
86.0
 20
0.0
 30
0.0
  0
INSERT
  5
635
330
611
100
AcDbEntity
  8
0
100
AcDbBlockReference
  2
circle_pin
 10
94.0
 20
0.0
 30
0.0
  0
INSERT
  5
637
330
611
100
AcDbEntity
  8
0
100
AcDbBlockReference
  2
circle_pin
 10
98.0
 20
0.0
 30
0.0
  0
INSERT
  5
639
330
611
100
AcDbEntity
  8
0
100
AcDbBlockReference
  2
circle_pin
 10
102.0
 20
0.0
 30
0.0
  0
INSERT
  5
63B
330
611
100
AcDbEntity
  8
0
100
AcDbBlockReference
  2
circle_pin
 10
106.0
 20
0.0
 30
0.0
  0
INSERT
  5
63D
330
611
100
AcDbEntity
  8
0
100
AcDbBlockReference
  2
circle_pin
 10
114.0
 20
0.0
 30
0.0
  0
INSERT
  5
63F
330
611
100
AcDbEntity
  8
0
100
AcDbBlockReference
  2
circle_pin
 10
118.0
 20
0.0
 30
0.0
  0
INSERT
  5
641
330
611
100
AcDbEntity
  8
0
100
AcDbBlockReference
  2
circle_pin
 10
122.0
 20
0.0
 30
0.0
  0
INSERT
  5
643
330
611
100
AcDbEntity
  8
0
100
AcDbBlockReference
  2
circle_pin
 10
126.0
 20
0.0
 30
0.0
  0
INSERT
  5
645
330
611
100
AcDbEntity
  8
0
100
AcDbBlockReference
  2
circle_pin
 10
134.0
 20
0.0
 30
0.0
  0
INSERT
  5
647
330
611
100
AcDbEntity
  8
0
100
AcDbBlockReference
  2
circle_pin
 10
138.0
 20
0.0
 30
0.0
  0
INSERT
  5
649
330
611
100
AcDbEntity
  8
0
100
AcDbBlockReference
  2
circle_pin
 10
142.0
 20
0.0
 30
0.0
  0
INSERT
  5
64B
330
611
100
AcDbEntity
  8
0
100
AcDbBlockReference
  2
circle_pin
 10
146.0
 20
0.0
 30
0.0
  0
INSERT
  5
64D
330
611
100
AcDbEntity
  8
0
100
AcDbBlockReference
  2
circle_pin
 10
606.0
 20
0.0
 30
0.0
  0
INSERT
  5
64F
330
611
100
AcDbEntity
  8
0
100
AcDbBlockReference
  2
circle_pin
 10
614.0
 20
0.0
 30
0.0
  0
INSERT
  5
651
330
611
100
AcDbEntity
  8
0
100
AcDbBlockReference
  2
circle_pin
 10
618.0
 20
0.0
 30
0.0
  0
INSERT
  5
653
330
611
100
AcDbEntity
  8
0
100
AcDbBlockReference
  2
circle_pin
 10
622.0
 20
0.0
 30
0.0
  0
INSERT
  5
655
330
611
100
AcDbEntity
  8
0
100
AcDbBlockReference
  2
circle_pin
 10
626.0
 20
0.0
 30
0.0
  0
INSERT
  5
657
330
611
100
AcDbEntity
  8
0
100
AcDbBlockReference
  2
circle_pin
 10
634.0
 20
0.0
 30
0.0
  0
INSERT
  5
659
330
611
100
AcDbEntity
  8
0
100
AcDbBlockReference
  2
circle_pin
 10
638.0
 20
0.0
 30
0.0
  0
INSERT
  5
65B
330
611
100
AcDbEntity
  8
0
100
AcDbBlockReference
  2
circle_pin
 10
642.0
 20
0.0
 30
0.0
  0
INSERT
  5
65D
330
611
100
AcDbEntity
  8
0
100
AcDbBlockReference
  2
circle_pin
 10
646.0
 20
0.0
 30
0.0
  0
INSERT
  5
65F
330
611
100
AcDbEntity
  8
0
100
AcDbBlockReference
  2
circle_pin
 10
650.0
 20
0.0
 30
0.0
  0
INSERT
  5
661
330
611
100
AcDbEntity
  8
0
100
AcDbBlockReference
  2
circle_pin
 10
654.0
 20
0.0
 30
0.0
  0
INSERT
  5
663
330
611
100
AcDbEntity
  8
0
100
AcDbBlockReference
  2
circle_pin
 10
658.0
 20
0.0
 30
0.0
  0
INSERT
  5
665
330
611
100
AcDbEntity
  8
0
100
AcDbBlockReference
  2
circle_pin
 10
662.0
 20
0.0
 30
0.0
  0
INSERT
  5
667
330
611
100
AcDbEntity
  8
0
100
AcDbBlockReference
  2
circle_pin
 10
666.0
 20
0.0
 30
0.0
  0
INSERT
  5
669
330
611
100
AcDbEntity
  8
0
100
AcDbBlockReference
  2
circle_pin
 10
670.0
 20
0.0
 30
0.0
  0
INSERT
  5
66B
330
611
100
AcDbEntity
  8
0
100
AcDbBlockReference
  2
circle_pin
 10
674.0
 20
0.0
 30
0.0
  0
INSERT
  5
66D
330
611
100
AcDbEntity
  8
0
100
AcDbBlockReference
  2
circle_pin
 10
678.0
 20
0.0
 30
0.0
  0
INSERT
  5
66F
330
611
100
AcDbEntity
  8
0
100
AcDbBlockReference
  2
circle_pin
 10
686.0
 20
0.0
 30
0.0
  0
INSERT
  5
671
330
611
100
AcDbEntity
  8
0
100
AcDbBlockReference
  2
circle_pin
 10
690.0
 20
0.0
 30
0.0
  0
INSERT
  5
673
330
611
100
AcDbEntity
  8
0
100
AcDbBlockReference
  2
circle_pin
 10
694.0
 20
0.0
 30
0.0
  0
INSERT
  5
675
330
611
100
AcDbEntity
  8
0
100
AcDbBlockReference
  2
circle_pin
 10
702.0
 20
0.0
 30
0.0
  0
INSERT
  5
677
330
611
100
AcDbEntity
  8
0
100
AcDbBlockReference
  2
circle_pin
 10
706.0
 20
0.0
 30
0.0
  0
INSERT
  5
679
330
611
100
AcDbEntity
  8
0
100
AcDbBlockReference
  2
circle_pin
 10
710.0
 20
0.0
 30
0.0
  0
INSERT
  5
67B
330
611
100
AcDbEntity
  8
0
100
AcDbBlockReference
  2
circle_pin
 10
718.0
 20
0.0
 30
0.0
  0
INSERT
  5
67D
330
611
100
AcDbEntity
  8
0
100
AcDbBlockReference
  2
circle_pin
 10
722.0
 20
0.0
 30
0.0
  0
INSERT
  5
67F
330
611
100
AcDbEntity
  8
0
100
AcDbBlockReference
  2
circle_pin
 10
726.0
 20
0.0
 30
0.0
  0
INSERT
  5
681
330
611
100
AcDbEntity
  8
0
100
AcDbBlockReference
  2
circle_pin
 10
730.0
 20
0.0
 30
0.0
  0
INSERT
  5
683
330
611
100
AcDbEntity
  8
0
100
AcDbBlockReference
  2
circle_pin
 10
738.0
 20
0.0
 30
0.0
  0
INSERT
  5
685
330
611
100
AcDbEntity
  8
0
100
AcDbBlockReference
  2
circle_pin
 10
742.0
 20
0.0
 30
0.0
  0
INSERT
  5
687
330
611
100
AcDbEntity
  8
0
100
AcDbBlockReference
  2
circle_pin
 10
746.0
 20
0.0
 30
0.0
  0
INSERT
  5
689
330
611
100
AcDbEntity
  8
0
100
AcDbBlockReference
  2
circle_pin
 10
750.0
 20
0.0
 30
0.0
  0
INSERT
  5
68B
330
611
100
AcDbEntity
  8
0
100
AcDbBlockReference
  2
circle_pin
 10
758.0
 20
0.0
 30
0.0
  0
INSERT
  5
68D
330
611
100
AcDbEntity
  8
0
100
AcDbBlockReference
  2
circle_pin
 10
762.0
 20
0.0
 30
0.0
  0
INSERT
  5
68F
330
611
100
AcDbEntity
  8
0
100
AcDbBlockReference
  2
circle_pin
 10
766.0
 20
0.0
 30
0.0
  0
INSERT
  5
691
330
611
100
AcDbEntity
  8
0
100
AcDbBlockReference
  2
circle_pin
 10
770.0
 20
0.0
 30
0.0
  0
INSERT
  5
693
330
611
100
AcDbEntity
  8
0
100
AcDbBlockReference
  2
circle_pin
 10
774.0
 20
0.0
 30
0.0
  0
INSERT
  5
695
330
611
100
AcDbEntity
  8
0
100
AcDbBlockReference
  2
circle_pin
 10
778.0
 20
0.0
 30
0.0
  0
INSERT
  5
697
330
611
100
AcDbEntity
  8
0
100
AcDbBlockReference
  2
circle_pin
 10
782.0
 20
0.0
 30
0.0
  0
INSERT
  5
699
330
611
100
AcDbEntity
  8
0
100
AcDbBlockReference
  2
circle_pin
 10
786.0
 20
0.0
 30
0.0
  0
INSERT
  5
69B
330
611
100
AcDbEntity
  8
0
100
AcDbBlockReference
  2
circle_pin
 10
790.0
 20
0.0
 30
0.0
  0
INSERT
  5
69D
330
611
100
AcDbEntity
  8
0
100
AcDbBlockReference
  2
circle_pin
 10
794.0
 20
0.0
 30
0.0
  0
INSERT
  5
69F
330
611
100
AcDbEntity
  8
0
100
AcDbBlockReference
  2
circle_pin
 10
798.0
 20
0.0
 30
0.0
  0
INSERT
  5
6A1
330
611
100
AcDbEntity
  8
0
100
AcDbBlockReference
  2
circle_pin
 10
802.0
 20
0.0
 30
0.0
  0
INSERT
  5
6A3
330
611
100
AcDbEntity
  8
0
100
AcDbBlockReference
  2
circle_pin
 10
810.0
 20
0.0
 30
0.0
  0
INSERT
  5
6A5
330
611
100
AcDbEntity
  8
0
100
AcDbBlockReference
  2
circle_pin
 10
814.0
 20
0.0
 30
0.0
  0
INSERT
  5
6A7
330
611
100
AcDbEntity
  8
0
100
AcDbBlockReference
  2
circle_pin
 10
818.0
 20
0.0
 30
0.0
  0
INSERT
  5
6A9
330
611
100
AcDbEntity
  8
0
100
AcDbBlockReference
  2
circle_pin
 10
826.0
 20
0.0
 30
0.0
  0
INSERT
  5
6AB
330
611
100
AcDbEntity
  8
0
100
AcDbBlockReference
  2
circle_pin
 10
830.0
 20
0.0
 30
0.0
  0
INSERT
  5
6AD
330
611
100
AcDbEntity
  8
0
100
AcDbBlockReference
  2
circle_pin
 10
834.0
 20
0.0
 30
0.0
  0
INSERT
  5
6AF
330
611
100
AcDbEntity
  8
0
100
AcDbBlockReference
  2
circle_pin
 10
1978.0
 20
0.0
 30
0.0
  0
INSERT
  5
6B1
330
611
100
AcDbEntity
  8
0
100
AcDbBlockReference
  2
circle_pin
 10
1974.0
 20
0.0
 30
0.0
  0
INSERT
  5
6B3
330
611
100
AcDbEntity
  8
0
100
AcDbBlockReference
  2
circle_pin
 10
1970.0
 20
0.0
 30
0.0
  0
INSERT
  5
6B5
330
611
100
AcDbEntity
  8
0
100
AcDbBlockReference
  2
circle_pin
 10
1966.0
 20
0.0
 30
0.0
  0
INSERT
  5
6B7
330
611
100
AcDbEntity
  8
0
100
AcDbBlockReference
  2
circle_pin
 10
1962.0
 20
0.0
 30
0.0
  0
INSERT
  5
6B9
330
611
100
AcDbEntity
  8
0
100
AcDbBlockReference
  2
circle_pin
 10
1958.0
 20
0.0
 30
0.0
  0
INSERT
  5
6BB
330
611
100
AcDbEntity
  8
0
100
AcDbBlockReference
  2
circle_pin
 10
1954.0
 20
0.0
 30
0.0
  0
INSERT
  5
6BD
330
611
100
AcDbEntity
  8
0
100
AcDbBlockReference
  2
circle_pin
 10
1950.0
 20
0.0
 30
0.0
  0
INSERT
  5
6BF
330
611
100
AcDbEntity
  8
0
100
AcDbBlockReference
  2
circle_pin
 10
1942.0
 20
0.0
 30
0.0
  0
INSERT
  5
6C1
330
611
100
AcDbEntity
  8
0
100
AcDbBlockReference
  2
circle_pin
 10
1938.0
 20
0.0
 30
0.0
  0
INSERT
  5
6C3
330
611
100
AcDbEntity
  8
0
100
AcDbBlockReference
  2
circle_pin
 10
1934.0
 20
0.0
 30
0.0
  0
INSERT
  5
6C5
330
611
100
AcDbEntity
  8
0
100
AcDbBlockReference
  2
circle_pin
 10
1930.0
 20
0.0
 30
0.0
  0
INSERT
  5
6C7
330
611
100
AcDbEntity
  8
0
100
AcDbBlockReference
  2
circle_pin
 10
1926.0
 20
0.0
 30
0.0
  0
INSERT
  5
6C9
330
611
100
AcDbEntity
  8
0
100
AcDbBlockReference
  2
circle_pin
 10
1922.0
 20
0.0
 30
0.0
  0
INSERT
  5
6CB
330
611
100
AcDbEntity
  8
0
100
AcDbBlockReference
  2
circle_pin
 10
1918.0
 20
0.0
 30
0.0
  0
INSERT
  5
6CD
330
611
100
AcDbEntity
  8
0
100
AcDbBlockReference
  2
circle_pin
 10
1914.0
 20
0.0
 30
0.0
  0
INSERT
  5
6CF
330
611
100
AcDbEntity
  8
0
100
AcDbBlockReference
  2
circle_pin
 10
1906.0
 20
0.0
 30
0.0
  0
INSERT
  5
6D1
330
611
100
AcDbEntity
  8
0
100
AcDbBlockReference
  2
circle_pin
 10
1902.0
 20
0.0
 30
0.0
  0
INSERT
  5
6D3
330
611
100
AcDbEntity
  8
0
100
AcDbBlockReference
  2
circle_pin
 10
1898.0
 20
0.0
 30
0.0
  0
INSERT
  5
6D5
330
611
100
AcDbEntity
  8
0
100
AcDbBlockReference
  2
circle_pin
 10
1894.0
 20
0.0
 30
0.0
  0
INSERT
  5
6D7
330
611
100
AcDbEntity
  8
0
100
AcDbBlockReference
  2
circle_pin
 10
1886.0
 20
0.0
 30
0.0
  0
INSERT
  5
6D9
330
611
100
AcDbEntity
  8
0
100
AcDbBlockReference
  2
circle_pin
 10
1882.0
 20
0.0
 30
0.0
  0
INSERT
  5
6DB
330
611
100
AcDbEntity
  8
0
100
AcDbBlockReference
  2
circle_pin
 10
1878.0
 20
0.0
 30
0.0
  0
INSERT
  5
6DD
330
611
100
AcDbEntity
  8
0
100
AcDbBlockReference
  2
circle_pin
 10
1874.0
 20
0.0
 30
0.0
  0
INSERT
  5
6DF
330
611
100
AcDbEntity
  8
0
100
AcDbBlockReference
  2
circle_pin
 10
1866.0
 20
0.0
 30
0.0
  0
INSERT
  5
6E1
330
611
100
AcDbEntity
  8
0
100
AcDbBlockReference
  2
circle_pin
 10
1862.0
 20
0.0
 30
0.0
  0
INSERT
  5
6E3
330
611
100
AcDbEntity
  8
0
100
AcDbBlockReference
  2
circle_pin
 10
1858.0
 20
0.0
 30
0.0
  0
INSERT
  5
6E5
330
611
100
AcDbEntity
  8
0
100
AcDbBlockReference
  2
circle_pin
 10
1854.0
 20
0.0
 30
0.0
  0
INSERT
  5
6E7
330
611
100
AcDbEntity
  8
0
100
AcDbBlockReference
  2
circle_pin
 10
22.0
 20
2000.0
 30
0.0
  0
INSERT
  5
6E9
330
611
100
AcDbEntity
  8
0
100
AcDbBlockReference
  2
circle_pin
 10
26.0
 20
2000.0
 30
0.0
  0
INSERT
  5
6EB
330
611
100
AcDbEntity
  8
0
100
AcDbBlockReference
  2
circle_pin
 10
30.0
 20
2000.0
 30
0.0
  0
INSERT
  5
6ED
330
611
100
AcDbEntity
  8
0
100
AcDbBlockReference
  2
circle_pin
 10
34.0
 20
2000.0
 30
0.0
  0
INSERT
  5
6EF
330
611
100
AcDbEntity
  8
0
100
AcDbBlockReference
  2
circle_pin
 10
38.0
 20
2000.0
 30
0.0
  0
INSERT
  5
6F1
330
611
100
AcDbEntity
  8
0
100
AcDbBlockReference
  2
circle_pin
 10
42.0
 20
2000.0
 30
0.0
  0
INSERT
  5
6F3
330
611
100
AcDbEntity
  8
0
100
AcDbBlockReference
  2
circle_pin
 10
46.0
 20
2000.0
 30
0.0
  0
INSERT
  5
6F5
330
611
100
AcDbEntity
  8
0
100
AcDbBlockReference
  2
circle_pin
 10
50.0
 20
2000.0
 30
0.0
  0
INSERT
  5
6F7
330
611
100
AcDbEntity
  8
0
100
AcDbBlockReference
  2
circle_pin
 10
58.0
 20
2000.0
 30
0.0
  0
INSERT
  5
6F9
330
611
100
AcDbEntity
  8
0
100
AcDbBlockReference
  2
circle_pin
 10
62.0
 20
2000.0
 30
0.0
  0
INSERT
  5
6FB
330
611
100
AcDbEntity
  8
0
100
AcDbBlockReference
  2
circle_pin
 10
66.0
 20
2000.0
 30
0.0
  0
INSERT
  5
6FD
330
611
100
AcDbEntity
  8
0
100
AcDbBlockReference
  2
circle_pin
 10
70.0
 20
2000.0
 30
0.0
  0
INSERT
  5
6FF
330
611
100
AcDbEntity
  8
0
100
AcDbBlockReference
  2
circle_pin
 10
74.0
 20
2000.0
 30
0.0
  0
INSERT
  5
701
330
611
100
AcDbEntity
  8
0
100
AcDbBlockReference
  2
circle_pin
 10
78.0
 20
2000.0
 30
0.0
  0
INSERT
  5
703
330
611
100
AcDbEntity
  8
0
100
AcDbBlockReference
  2
circle_pin
 10
82.0
 20
2000.0
 30
0.0
  0
INSERT
  5
705
330
611
100
AcDbEntity
  8
0
100
AcDbBlockReference
  2
circle_pin
 10
86.0
 20
2000.0
 30
0.0
  0
INSERT
  5
707
330
611
100
AcDbEntity
  8
0
100
AcDbBlockReference
  2
circle_pin
 10
94.0
 20
2000.0
 30
0.0
  0
INSERT
  5
709
330
611
100
AcDbEntity
  8
0
100
AcDbBlockReference
  2
circle_pin
 10
98.0
 20
2000.0
 30
0.0
  0
INSERT
  5
70B
330
611
100
AcDbEntity
  8
0
100
AcDbBlockReference
  2
circle_pin
 10
102.0
 20
2000.0
 30
0.0
  0
INSERT
  5
70D
330
611
100
AcDbEntity
  8
0
100
AcDbBlockReference
  2
circle_pin
 10
106.0
 20
2000.0
 30
0.0
  0
INSERT
  5
70F
330
611
100
AcDbEntity
  8
0
100
AcDbBlockReference
  2
circle_pin
 10
114.0
 20
2000.0
 30
0.0
  0
INSERT
  5
711
330
611
100
AcDbEntity
  8
0
100
AcDbBlockReference
  2
circle_pin
 10
118.0
 20
2000.0
 30
0.0
  0
INSERT
  5
713
330
611
100
AcDbEntity
  8
0
100
AcDbBlockReference
  2
circle_pin
 10
122.0
 20
2000.0
 30
0.0
  0
INSERT
  5
715
330
611
100
AcDbEntity
  8
0
100
AcDbBlockReference
  2
circle_pin
 10
126.0
 20
2000.0
 30
0.0
  0
INSERT
  5
717
330
611
100
AcDbEntity
  8
0
100
AcDbBlockReference
  2
circle_pin
 10
134.0
 20
2000.0
 30
0.0
  0
INSERT
  5
719
330
611
100
AcDbEntity
  8
0
100
AcDbBlockReference
  2
circle_pin
 10
138.0
 20
2000.0
 30
0.0
  0
INSERT
  5
71B
330
611
100
AcDbEntity
  8
0
100
AcDbBlockReference
  2
circle_pin
 10
142.0
 20
2000.0
 30
0.0
  0
INSERT
  5
71D
330
611
100
AcDbEntity
  8
0
100
AcDbBlockReference
  2
circle_pin
 10
146.0
 20
2000.0
 30
0.0
  0
INSERT
  5
71F
330
611
100
AcDbEntity
  8
0
100
AcDbBlockReference
  2
circle_pin
 10
606.0
 20
2000.0
 30
0.0
  0
INSERT
  5
721
330
611
100
AcDbEntity
  8
0
100
AcDbBlockReference
  2
circle_pin
 10
614.0
 20
2000.0
 30
0.0
  0
INSERT
  5
723
330
611
100
AcDbEntity
  8
0
100
AcDbBlockReference
  2
circle_pin
 10
618.0
 20
2000.0
 30
0.0
  0
INSERT
  5
725
330
611
100
AcDbEntity
  8
0
100
AcDbBlockReference
  2
circle_pin
 10
622.0
 20
2000.0
 30
0.0
  0
INSERT
  5
727
330
611
100
AcDbEntity
  8
0
100
AcDbBlockReference
  2
circle_pin
 10
626.0
 20
2000.0
 30
0.0
  0
INSERT
  5
729
330
611
100
AcDbEntity
  8
0
100
AcDbBlockReference
  2
circle_pin
 10
634.0
 20
2000.0
 30
0.0
  0
INSERT
  5
72B
330
611
100
AcDbEntity
  8
0
100
AcDbBlockReference
  2
circle_pin
 10
638.0
 20
2000.0
 30
0.0
  0
INSERT
  5
72D
330
611
100
AcDbEntity
  8
0
100
AcDbBlockReference
  2
circle_pin
 10
642.0
 20
2000.0
 30
0.0
  0
INSERT
  5
72F
330
611
100
AcDbEntity
  8
0
100
AcDbBlockReference
  2
circle_pin
 10
646.0
 20
2000.0
 30
0.0
  0
INSERT
  5
731
330
611
100
AcDbEntity
  8
0
100
AcDbBlockReference
  2
circle_pin
 10
650.0
 20
2000.0
 30
0.0
  0
INSERT
  5
733
330
611
100
AcDbEntity
  8
0
100
AcDbBlockReference
  2
circle_pin
 10
654.0
 20
2000.0
 30
0.0
  0
INSERT
  5
735
330
611
100
AcDbEntity
  8
0
100
AcDbBlockReference
  2
circle_pin
 10
658.0
 20
2000.0
 30
0.0
  0
INSERT
  5
737
330
611
100
AcDbEntity
  8
0
100
AcDbBlockReference
  2
circle_pin
 10
662.0
 20
2000.0
 30
0.0
  0
INSERT
  5
739
330
611
100
AcDbEntity
  8
0
100
AcDbBlockReference
  2
circle_pin
 10
666.0
 20
2000.0
 30
0.0
  0
INSERT
  5
73B
330
611
100
AcDbEntity
  8
0
100
AcDbBlockReference
  2
circle_pin
 10
670.0
 20
2000.0
 30
0.0
  0
INSERT
  5
73D
330
611
100
AcDbEntity
  8
0
100
AcDbBlockReference
  2
circle_pin
 10
674.0
 20
2000.0
 30
0.0
  0
INSERT
  5
73F
330
611
100
AcDbEntity
  8
0
100
AcDbBlockReference
  2
circle_pin
 10
678.0
 20
2000.0
 30
0.0
  0
INSERT
  5
741
330
611
100
AcDbEntity
  8
0
100
AcDbBlockReference
  2
circle_pin
 10
686.0
 20
2000.0
 30
0.0
  0
INSERT
  5
743
330
611
100
AcDbEntity
  8
0
100
AcDbBlockReference
  2
circle_pin
 10
690.0
 20
2000.0
 30
0.0
  0
INSERT
  5
745
330
611
100
AcDbEntity
  8
0
100
AcDbBlockReference
  2
circle_pin
 10
694.0
 20
2000.0
 30
0.0
  0
INSERT
  5
747
330
611
100
AcDbEntity
  8
0
100
AcDbBlockReference
  2
circle_pin
 10
702.0
 20
2000.0
 30
0.0
  0
INSERT
  5
749
330
611
100
AcDbEntity
  8
0
100
AcDbBlockReference
  2
circle_pin
 10
706.0
 20
2000.0
 30
0.0
  0
INSERT
  5
74B
330
611
100
AcDbEntity
  8
0
100
AcDbBlockReference
  2
circle_pin
 10
710.0
 20
2000.0
 30
0.0
  0
INSERT
  5
74D
330
611
100
AcDbEntity
  8
0
100
AcDbBlockReference
  2
circle_pin
 10
718.0
 20
2000.0
 30
0.0
  0
INSERT
  5
74F
330
611
100
AcDbEntity
  8
0
100
AcDbBlockReference
  2
circle_pin
 10
722.0
 20
2000.0
 30
0.0
  0
INSERT
  5
751
330
611
100
AcDbEntity
  8
0
100
AcDbBlockReference
  2
circle_pin
 10
726.0
 20
2000.0
 30
0.0
  0
INSERT
  5
753
330
611
100
AcDbEntity
  8
0
100
AcDbBlockReference
  2
circle_pin
 10
730.0
 20
2000.0
 30
0.0
  0
INSERT
  5
755
330
611
100
AcDbEntity
  8
0
100
AcDbBlockReference
  2
circle_pin
 10
738.0
 20
2000.0
 30
0.0
  0
INSERT
  5
757
330
611
100
AcDbEntity
  8
0
100
AcDbBlockReference
  2
circle_pin
 10
742.0
 20
2000.0
 30
0.0
  0
INSERT
  5
759
330
611
100
AcDbEntity
  8
0
100
AcDbBlockReference
  2
circle_pin
 10
746.0
 20
2000.0
 30
0.0
  0
INSERT
  5
75B
330
611
100
AcDbEntity
  8
0
100
AcDbBlockReference
  2
circle_pin
 10
750.0
 20
2000.0
 30
0.0
  0
INSERT
  5
75D
330
611
100
AcDbEntity
  8
0
100
AcDbBlockReference
  2
circle_pin
 10
758.0
 20
2000.0
 30
0.0
  0
INSERT
  5
75F
330
611
100
AcDbEntity
  8
0
100
AcDbBlockReference
  2
circle_pin
 10
762.0
 20
2000.0
 30
0.0
  0
INSERT
  5
761
330
611
100
AcDbEntity
  8
0
100
AcDbBlockReference
  2
circle_pin
 10
766.0
 20
2000.0
 30
0.0
  0
INSERT
  5
763
330
611
100
AcDbEntity
  8
0
100
AcDbBlockReference
  2
circle_pin
 10
770.0
 20
2000.0
 30
0.0
  0
INSERT
  5
765
330
611
100
AcDbEntity
  8
0
100
AcDbBlockReference
  2
circle_pin
 10
774.0
 20
2000.0
 30
0.0
  0
INSERT
  5
767
330
611
100
AcDbEntity
  8
0
100
AcDbBlockReference
  2
circle_pin
 10
778.0
 20
2000.0
 30
0.0
  0
INSERT
  5
769
330
611
100
AcDbEntity
  8
0
100
AcDbBlockReference
  2
circle_pin
 10
782.0
 20
2000.0
 30
0.0
  0
INSERT
  5
76B
330
611
100
AcDbEntity
  8
0
100
AcDbBlockReference
  2
circle_pin
 10
786.0
 20
2000.0
 30
0.0
  0
INSERT
  5
76D
330
611
100
AcDbEntity
  8
0
100
AcDbBlockReference
  2
circle_pin
 10
790.0
 20
2000.0
 30
0.0
  0
INSERT
  5
76F
330
611
100
AcDbEntity
  8
0
100
AcDbBlockReference
  2
circle_pin
 10
794.0
 20
2000.0
 30
0.0
  0
INSERT
  5
771
330
611
100
AcDbEntity
  8
0
100
AcDbBlockReference
  2
circle_pin
 10
798.0
 20
2000.0
 30
0.0
  0
INSERT
  5
773
330
611
100
AcDbEntity
  8
0
100
AcDbBlockReference
  2
circle_pin
 10
802.0
 20
2000.0
 30
0.0
  0
INSERT
  5
775
330
611
100
AcDbEntity
  8
0
100
AcDbBlockReference
  2
circle_pin
 10
810.0
 20
2000.0
 30
0.0
  0
INSERT
  5
777
330
611
100
AcDbEntity
  8
0
100
AcDbBlockReference
  2
circle_pin
 10
814.0
 20
2000.0
 30
0.0
  0
INSERT
  5
779
330
611
100
AcDbEntity
  8
0
100
AcDbBlockReference
  2
circle_pin
 10
818.0
 20
2000.0
 30
0.0
  0
INSERT
  5
77B
330
611
100
AcDbEntity
  8
0
100
AcDbBlockReference
  2
circle_pin
 10
826.0
 20
2000.0
 30
0.0
  0
INSERT
  5
77D
330
611
100
AcDbEntity
  8
0
100
AcDbBlockReference
  2
circle_pin
 10
830.0
 20
2000.0
 30
0.0
  0
INSERT
  5
77F
330
611
100
AcDbEntity
  8
0
100
AcDbBlockReference
  2
circle_pin
 10
834.0
 20
2000.0
 30
0.0
  0
INSERT
  5
781
330
611
100
AcDbEntity
  8
0
100
AcDbBlockReference
  2
circle_pin
 10
1978.0
 20
2000.0
 30
0.0
  0
INSERT
  5
783
330
611
100
AcDbEntity
  8
0
100
AcDbBlockReference
  2
circle_pin
 10
1974.0
 20
2000.0
 30
0.0
  0
INSERT
  5
785
330
611
100
AcDbEntity
  8
0
100
AcDbBlockReference
  2
circle_pin
 10
1970.0
 20
2000.0
 30
0.0
  0
INSERT
  5
787
330
611
100
AcDbEntity
  8
0
100
AcDbBlockReference
  2
circle_pin
 10
1966.0
 20
2000.0
 30
0.0
  0
INSERT
  5
789
330
611
100
AcDbEntity
  8
0
100
AcDbBlockReference
  2
circle_pin
 10
1962.0
 20
2000.0
 30
0.0
  0
INSERT
  5
78B
330
611
100
AcDbEntity
  8
0
100
AcDbBlockReference
  2
circle_pin
 10
1958.0
 20
2000.0
 30
0.0
  0
INSERT
  5
78D
330
611
100
AcDbEntity
  8
0
100
AcDbBlockReference
  2
circle_pin
 10
1954.0
 20
2000.0
 30
0.0
  0
INSERT
  5
78F
330
611
100
AcDbEntity
  8
0
100
AcDbBlockReference
  2
circle_pin
 10
1950.0
 20
2000.0
 30
0.0
  0
INSERT
  5
791
330
611
100
AcDbEntity
  8
0
100
AcDbBlockReference
  2
circle_pin
 10
1942.0
 20
2000.0
 30
0.0
  0
INSERT
  5
793
330
611
100
AcDbEntity
  8
0
100
AcDbBlockReference
  2
circle_pin
 10
1938.0
 20
2000.0
 30
0.0
  0
INSERT
  5
795
330
611
100
AcDbEntity
  8
0
100
AcDbBlockReference
  2
circle_pin
 10
1934.0
 20
2000.0
 30
0.0
  0
INSERT
  5
797
330
611
100
AcDbEntity
  8
0
100
AcDbBlockReference
  2
circle_pin
 10
1930.0
 20
2000.0
 30
0.0
  0
INSERT
  5
799
330
611
100
AcDbEntity
  8
0
100
AcDbBlockReference
  2
circle_pin
 10
1926.0
 20
2000.0
 30
0.0
  0
INSERT
  5
79B
330
611
100
AcDbEntity
  8
0
100
AcDbBlockReference
  2
circle_pin
 10
1922.0
 20
2000.0
 30
0.0
  0
INSERT
  5
79D
330
611
100
AcDbEntity
  8
0
100
AcDbBlockReference
  2
circle_pin
 10
1918.0
 20
2000.0
 30
0.0
  0
INSERT
  5
79F
330
611
100
AcDbEntity
  8
0
100
AcDbBlockReference
  2
circle_pin
 10
1914.0
 20
2000.0
 30
0.0
  0
INSERT
  5
7A1
330
611
100
AcDbEntity
  8
0
100
AcDbBlockReference
  2
circle_pin
 10
1906.0
 20
2000.0
 30
0.0
  0
INSERT
  5
7A3
330
611
100
AcDbEntity
  8
0
100
AcDbBlockReference
  2
circle_pin
 10
1902.0
 20
2000.0
 30
0.0
  0
INSERT
  5
7A5
330
611
100
AcDbEntity
  8
0
100
AcDbBlockReference
  2
circle_pin
 10
1898.0
 20
2000.0
 30
0.0
  0
INSERT
  5
7A7
330
611
100
AcDbEntity
  8
0
100
AcDbBlockReference
  2
circle_pin
 10
1894.0
 20
2000.0
 30
0.0
  0
INSERT
  5
7A9
330
611
100
AcDbEntity
  8
0
100
AcDbBlockReference
  2
circle_pin
 10
1886.0
 20
2000.0
 30
0.0
  0
INSERT
  5
7AB
330
611
100
AcDbEntity
  8
0
100
AcDbBlockReference
  2
circle_pin
 10
1882.0
 20
2000.0
 30
0.0
  0
INSERT
  5
7AD
330
611
100
AcDbEntity
  8
0
100
AcDbBlockReference
  2
circle_pin
 10
1878.0
 20
2000.0
 30
0.0
  0
INSERT
  5
7AF
330
611
100
AcDbEntity
  8
0
100
AcDbBlockReference
  2
circle_pin
 10
1874.0
 20
2000.0
 30
0.0
  0
INSERT
  5
7B1
330
611
100
AcDbEntity
  8
0
100
AcDbBlockReference
  2
circle_pin
 10
1866.0
 20
2000.0
 30
0.0
  0
INSERT
  5
7B3
330
611
100
AcDbEntity
  8
0
100
AcDbBlockReference
  2
circle_pin
 10
1862.0
 20
2000.0
 30
0.0
  0
INSERT
  5
7B5
330
611
100
AcDbEntity
  8
0
100
AcDbBlockReference
  2
circle_pin
 10
1858.0
 20
2000.0
 30
0.0
  0
INSERT
  5
7B7
330
611
100
AcDbEntity
  8
0
100
AcDbBlockReference
  2
circle_pin
 10
1854.0
 20
2000.0
 30
0.0
  0
INSERT
  5
7B9
330
611
100
AcDbEntity
  8
0
100
AcDbBlockReference
  2
circle_pin
 10
0.0
 20
22.0
 30
0.0
  0
INSERT
  5
7BB
330
611
100
AcDbEntity
  8
0
100
AcDbBlockReference
  2
circle_pin
 10
0.0
 20
26.0
 30
0.0
  0
INSERT
  5
7BD
330
611
100
AcDbEntity
  8
0
100
AcDbBlockReference
  2
circle_pin
 10
0.0
 20
30.0
 30
0.0
  0
INSERT
  5
7BF
330
611
100
AcDbEntity
  8
0
100
AcDbBlockReference
  2
circle_pin
 10
0.0
 20
34.0
 30
0.0
  0
INSERT
  5
7C1
330
611
100
AcDbEntity
  8
0
100
AcDbBlockReference
  2
circle_pin
 10
0.0
 20
38.0
 30
0.0
  0
INSERT
  5
7C3
330
611
100
AcDbEntity
  8
0
100
AcDbBlockReference
  2
circle_pin
 10
0.0
 20
42.0
 30
0.0
  0
INSERT
  5
7C5
330
611
100
AcDbEntity
  8
0
100
AcDbBlockReference
  2
circle_pin
 10
0.0
 20
46.0
 30
0.0
  0
INSERT
  5
7C7
330
611
100
AcDbEntity
  8
0
100
AcDbBlockReference
  2
circle_pin
 10
0.0
 20
50.0
 30
0.0
  0
INSERT
  5
7C9
330
611
100
AcDbEntity
  8
0
100
AcDbBlockReference
  2
circle_pin
 10
0.0
 20
58.0
 30
0.0
  0
INSERT
  5
7CB
330
611
100
AcDbEntity
  8
0
100
AcDbBlockReference
  2
circle_pin
 10
0.0
 20
62.0
 30
0.0
  0
INSERT
  5
7CD
330
611
100
AcDbEntity
  8
0
100
AcDbBlockReference
  2
circle_pin
 10
0.0
 20
66.0
 30
0.0
  0
INSERT
  5
7CF
330
611
100
AcDbEntity
  8
0
100
AcDbBlockReference
  2
circle_pin
 10
0.0
 20
70.0
 30
0.0
  0
INSERT
  5
7D1
330
611
100
AcDbEntity
  8
0
100
AcDbBlockReference
  2
circle_pin
 10
0.0
 20
74.0
 30
0.0
  0
INSERT
  5
7D3
330
611
100
AcDbEntity
  8
0
100
AcDbBlockReference
  2
circle_pin
 10
0.0
 20
78.0
 30
0.0
  0
INSERT
  5
7D5
330
611
100
AcDbEntity
  8
0
100
AcDbBlockReference
  2
circle_pin
 10
0.0
 20
82.0
 30
0.0
  0
INSERT
  5
7D7
330
611
100
AcDbEntity
  8
0
100
AcDbBlockReference
  2
circle_pin
 10
0.0
 20
86.0
 30
0.0
  0
INSERT
  5
7D9
330
611
100
AcDbEntity
  8
0
100
AcDbBlockReference
  2
circle_pin
 10
0.0
 20
94.0
 30
0.0
  0
INSERT
  5
7DB
330
611
100
AcDbEntity
  8
0
100
AcDbBlockReference
  2
circle_pin
 10
0.0
 20
98.0
 30
0.0
  0
INSERT
  5
7DD
330
611
100
AcDbEntity
  8
0
100
AcDbBlockReference
  2
circle_pin
 10
0.0
 20
102.0
 30
0.0
  0
INSERT
  5
7DF
330
611
100
AcDbEntity
  8
0
100
AcDbBlockReference
  2
circle_pin
 10
0.0
 20
106.0
 30
0.0
  0
INSERT
  5
7E1
330
611
100
AcDbEntity
  8
0
100
AcDbBlockReference
  2
circle_pin
 10
0.0
 20
114.0
 30
0.0
  0
INSERT
  5
7E3
330
611
100
AcDbEntity
  8
0
100
AcDbBlockReference
  2
circle_pin
 10
0.0
 20
118.0
 30
0.0
  0
INSERT
  5
7E5
330
611
100
AcDbEntity
  8
0
100
AcDbBlockReference
  2
circle_pin
 10
0.0
 20
122.0
 30
0.0
  0
INSERT
  5
7E7
330
611
100
AcDbEntity
  8
0
100
AcDbBlockReference
  2
circle_pin
 10
0.0
 20
126.0
 30
0.0
  0
INSERT
  5
7E9
330
611
100
AcDbEntity
  8
0
100
AcDbBlockReference
  2
circle_pin
 10
0.0
 20
134.0
 30
0.0
  0
INSERT
  5
7EB
330
611
100
AcDbEntity
  8
0
100
AcDbBlockReference
  2
circle_pin
 10
0.0
 20
138.0
 30
0.0
  0
INSERT
  5
7ED
330
611
100
AcDbEntity
  8
0
100
AcDbBlockReference
  2
circle_pin
 10
0.0
 20
142.0
 30
0.0
  0
INSERT
  5
7EF
330
611
100
AcDbEntity
  8
0
100
AcDbBlockReference
  2
circle_pin
 10
0.0
 20
146.0
 30
0.0
  0
INSERT
  5
7F1
330
611
100
AcDbEntity
  8
0
100
AcDbBlockReference
  2
circle_pin
 10
0.0
 20
1398.0
 30
0.0
  0
INSERT
  5
7F3
330
611
100
AcDbEntity
  8
0
100
AcDbBlockReference
  2
circle_pin
 10
0.0
 20
1394.0
 30
0.0
  0
INSERT
  5
7F5
330
611
100
AcDbEntity
  8
0
100
AcDbBlockReference
  2
circle_pin
 10
0.0
 20
1390.0
 30
0.0
  0
INSERT
  5
7F7
330
611
100
AcDbEntity
  8
0
100
AcDbBlockReference
  2
circle_pin
 10
0.0
 20
1386.0
 30
0.0
  0
INSERT
  5
7F9
330
611
100
AcDbEntity
  8
0
100
AcDbBlockReference
  2
circle_pin
 10
0.0
 20
1382.0
 30
0.0
  0
INSERT
  5
7FB
330
611
100
AcDbEntity
  8
0
100
AcDbBlockReference
  2
circle_pin
 10
0.0
 20
1378.0
 30
0.0
  0
INSERT
  5
7FD
330
611
100
AcDbEntity
  8
0
100
AcDbBlockReference
  2
circle_pin
 10
0.0
 20
1374.0
 30
0.0
  0
INSERT
  5
7FF
330
611
100
AcDbEntity
  8
0
100
AcDbBlockReference
  2
circle_pin
 10
0.0
 20
1370.0
 30
0.0
  0
INSERT
  5
801
330
611
100
AcDbEntity
  8
0
100
AcDbBlockReference
  2
circle_pin
 10
0.0
 20
1366.0
 30
0.0
  0
INSERT
  5
803
330
611
100
AcDbEntity
  8
0
100
AcDbBlockReference
  2
circle_pin
 10
0.0
 20
1362.0
 30
0.0
  0
INSERT
  5
805
330
611
100
AcDbEntity
  8
0
100
AcDbBlockReference
  2
circle_pin
 10
0.0
 20
1358.0
 30
0.0
  0
INSERT
  5
807
330
611
100
AcDbEntity
  8
0
100
AcDbBlockReference
  2
circle_pin
 10
0.0
 20
1354.0
 30
0.0
  0
INSERT
  5
809
330
611
100
AcDbEntity
  8
0
100
AcDbBlockReference
  2
circle_pin
 10
0.0
 20
1350.0
 30
0.0
  0
INSERT
  5
80B
330
611
100
AcDbEntity
  8
0
100
AcDbBlockReference
  2
circle_pin
 10
0.0
 20
1346.0
 30
0.0
  0
INSERT
  5
80D
330
611
100
AcDbEntity
  8
0
100
AcDbBlockReference
  2
circle_pin
 10
0.0
 20
1342.0
 30
0.0
  0
INSERT
  5
80F
330
611
100
AcDbEntity
  8
0
100
AcDbBlockReference
  2
circle_pin
 10
0.0
 20
1338.0
 30
0.0
  0
INSERT
  5
811
330
611
100
AcDbEntity
  8
0
100
AcDbBlockReference
  2
circle_pin
 10
0.0
 20
1330.0
 30
0.0
  0
INSERT
  5
813
330
611
100
AcDbEntity
  8
0
100
AcDbBlockReference
  2
circle_pin
 10
0.0
 20
1326.0
 30
0.0
  0
INSERT
  5
815
330
611
100
AcDbEntity
  8
0
100
AcDbBlockReference
  2
circle_pin
 10
0.0
 20
1322.0
 30
0.0
  0
INSERT
  5
817
330
611
100
AcDbEntity
  8
0
100
AcDbBlockReference
  2
circle_pin
 10
0.0
 20
1318.0
 30
0.0
  0
INSERT
  5
819
330
611
100
AcDbEntity
  8
0
100
AcDbBlockReference
  2
circle_pin
 10
0.0
 20
1310.0
 30
0.0
  0
INSERT
  5
81B
330
611
100
AcDbEntity
  8
0
100
AcDbBlockReference
  2
circle_pin
 10
0.0
 20
1306.0
 30
0.0
  0
INSERT
  5
81D
330
611
100
AcDbEntity
  8
0
100
AcDbBlockReference
  2
circle_pin
 10
0.0
 20
1302.0
 30
0.0
  0
INSERT
  5
81F
330
611
100
AcDbEntity
  8
0
100
AcDbBlockReference
  2
circle_pin
 10
0.0
 20
1298.0
 30
0.0
  0
INSERT
  5
821
330
611
100
AcDbEntity
  8
0
100
AcDbBlockReference
  2
circle_pin
 10
0.0
 20
1290.0
 30
0.0
  0
INSERT
  5
823
330
611
100
AcDbEntity
  8
0
100
AcDbBlockReference
  2
circle_pin
 10
0.0
 20
1286.0
 30
0.0
  0
INSERT
  5
825
330
611
100
AcDbEntity
  8
0
100
AcDbBlockReference
  2
circle_pin
 10
0.0
 20
1282.0
 30
0.0
  0
INSERT
  5
827
330
611
100
AcDbEntity
  8
0
100
AcDbBlockReference
  2
circle_pin
 10
0.0
 20
1278.0
 30
0.0
  0
INSERT
  5
829
330
611
100
AcDbEntity
  8
0
100
AcDbBlockReference
  2
circle_pin
 10
0.0
 20
1270.0
 30
0.0
  0
INSERT
  5
82B
330
611
100
AcDbEntity
  8
0
100
AcDbBlockReference
  2
circle_pin
 10
0.0
 20
1266.0
 30
0.0
  0
INSERT
  5
82D
330
611
100
AcDbEntity
  8
0
100
AcDbBlockReference
  2
circle_pin
 10
0.0
 20
1262.0
 30
0.0
  0
INSERT
  5
82F
330
611
100
AcDbEntity
  8
0
100
AcDbBlockReference
  2
circle_pin
 10
0.0
 20
1258.0
 30
0.0
  0
INSERT
  5
831
330
611
100
AcDbEntity
  8
0
100
AcDbBlockReference
  2
circle_pin
 10
0.0
 20
1198.0
 30
0.0
  0
INSERT
  5
833
330
611
100
AcDbEntity
  8
0
100
AcDbBlockReference
  2
circle_pin
 10
0.0
 20
1194.0
 30
0.0
  0
INSERT
  5
835
330
611
100
AcDbEntity
  8
0
100
AcDbBlockReference
  2
circle_pin
 10
0.0
 20
1190.0
 30
0.0
  0
INSERT
  5
837
330
611
100
AcDbEntity
  8
0
100
AcDbBlockReference
  2
circle_pin
 10
0.0
 20
1186.0
 30
0.0
  0
INSERT
  5
839
330
611
100
AcDbEntity
  8
0
100
AcDbBlockReference
  2
circle_pin
 10
0.0
 20
1182.0
 30
0.0
  0
INSERT
  5
83B
330
611
100
AcDbEntity
  8
0
100
AcDbBlockReference
  2
circle_pin
 10
0.0
 20
1178.0
 30
0.0
  0
INSERT
  5
83D
330
611
100
AcDbEntity
  8
0
100
AcDbBlockReference
  2
circle_pin
 10
0.0
 20
1174.0
 30
0.0
  0
INSERT
  5
83F
330
611
100
AcDbEntity
  8
0
100
AcDbBlockReference
  2
circle_pin
 10
0.0
 20
1170.0
 30
0.0
  0
INSERT
  5
841
330
611
100
AcDbEntity
  8
0
100
AcDbBlockReference
  2
circle_pin
 10
0.0
 20
1166.0
 30
0.0
  0
INSERT
  5
843
330
611
100
AcDbEntity
  8
0
100
AcDbBlockReference
  2
circle_pin
 10
0.0
 20
1162.0
 30
0.0
  0
INSERT
  5
845
330
611
100
AcDbEntity
  8
0
100
AcDbBlockReference
  2
circle_pin
 10
0.0
 20
1158.0
 30
0.0
  0
INSERT
  5
847
330
611
100
AcDbEntity
  8
0
100
AcDbBlockReference
  2
circle_pin
 10
0.0
 20
1154.0
 30
0.0
  0
INSERT
  5
849
330
611
100
AcDbEntity
  8
0
100
AcDbBlockReference
  2
circle_pin
 10
0.0
 20
1150.0
 30
0.0
  0
INSERT
  5
84B
330
611
100
AcDbEntity
  8
0
100
AcDbBlockReference
  2
circle_pin
 10
0.0
 20
1146.0
 30
0.0
  0
INSERT
  5
84D
330
611
100
AcDbEntity
  8
0
100
AcDbBlockReference
  2
circle_pin
 10
0.0
 20
1142.0
 30
0.0
  0
INSERT
  5
84F
330
611
100
AcDbEntity
  8
0
100
AcDbBlockReference
  2
circle_pin
 10
0.0
 20
1138.0
 30
0.0
  0
INSERT
  5
851
330
611
100
AcDbEntity
  8
0
100
AcDbBlockReference
  2
circle_pin
 10
0.0
 20
1130.0
 30
0.0
  0
INSERT
  5
853
330
611
100
AcDbEntity
  8
0
100
AcDbBlockReference
  2
circle_pin
 10
0.0
 20
1126.0
 30
0.0
  0
INSERT
  5
855
330
611
100
AcDbEntity
  8
0
100
AcDbBlockReference
  2
circle_pin
 10
0.0
 20
1122.0
 30
0.0
  0
INSERT
  5
857
330
611
100
AcDbEntity
  8
0
100
AcDbBlockReference
  2
circle_pin
 10
0.0
 20
1118.0
 30
0.0
  0
INSERT
  5
859
330
611
100
AcDbEntity
  8
0
100
AcDbBlockReference
  2
circle_pin
 10
0.0
 20
1110.0
 30
0.0
  0
INSERT
  5
85B
330
611
100
AcDbEntity
  8
0
100
AcDbBlockReference
  2
circle_pin
 10
0.0
 20
1106.0
 30
0.0
  0
INSERT
  5
85D
330
611
100
AcDbEntity
  8
0
100
AcDbBlockReference
  2
circle_pin
 10
0.0
 20
1102.0
 30
0.0
  0
INSERT
  5
85F
330
611
100
AcDbEntity
  8
0
100
AcDbBlockReference
  2
circle_pin
 10
0.0
 20
1098.0
 30
0.0
  0
INSERT
  5
861
330
611
100
AcDbEntity
  8
0
100
AcDbBlockReference
  2
circle_pin
 10
0.0
 20
1090.0
 30
0.0
  0
INSERT
  5
863
330
611
100
AcDbEntity
  8
0
100
AcDbBlockReference
  2
circle_pin
 10
0.0
 20
1086.0
 30
0.0
  0
INSERT
  5
865
330
611
100
AcDbEntity
  8
0
100
AcDbBlockReference
  2
circle_pin
 10
0.0
 20
1082.0
 30
0.0
  0
INSERT
  5
867
330
611
100
AcDbEntity
  8
0
100
AcDbBlockReference
  2
circle_pin
 10
0.0
 20
1078.0
 30
0.0
  0
INSERT
  5
869
330
611
100
AcDbEntity
  8
0
100
AcDbBlockReference
  2
circle_pin
 10
0.0
 20
1070.0
 30
0.0
  0
INSERT
  5
86B
330
611
100
AcDbEntity
  8
0
100
AcDbBlockReference
  2
circle_pin
 10
0.0
 20
1066.0
 30
0.0
  0
INSERT
  5
86D
330
611
100
AcDbEntity
  8
0
100
AcDbBlockReference
  2
circle_pin
 10
0.0
 20
1062.0
 30
0.0
  0
INSERT
  5
86F
330
611
100
AcDbEntity
  8
0
100
AcDbBlockReference
  2
circle_pin
 10
0.0
 20
1058.0
 30
0.0
  0
INSERT
  5
871
330
611
100
AcDbEntity
  8
0
100
AcDbBlockReference
  2
circle_pin
 10
0.0
 20
806.0
 30
0.0
  0
INSERT
  5
873
330
611
100
AcDbEntity
  8
0
100
AcDbBlockReference
  2
circle_pin
 10
0.0
 20
810.0
 30
0.0
  0
INSERT
  5
875
330
611
100
AcDbEntity
  8
0
100
AcDbBlockReference
  2
circle_pin
 10
0.0
 20
814.0
 30
0.0
  0
INSERT
  5
877
330
611
100
AcDbEntity
  8
0
100
AcDbBlockReference
  2
circle_pin
 10
0.0
 20
818.0
 30
0.0
  0
INSERT
  5
879
330
611
100
AcDbEntity
  8
0
100
AcDbBlockReference
  2
circle_pin
 10
0.0
 20
822.0
 30
0.0
  0
INSERT
  5
87B
330
611
100
AcDbEntity
  8
0
100
AcDbBlockReference
  2
circle_pin
 10
0.0
 20
826.0
 30
0.0
  0
INSERT
  5
87D
330
611
100
AcDbEntity
  8
0
100
AcDbBlockReference
  2
circle_pin
 10
0.0
 20
830.0
 30
0.0
  0
INSERT
  5
87F
330
611
100
AcDbEntity
  8
0
100
AcDbBlockReference
  2
circle_pin
 10
0.0
 20
834.0
 30
0.0
  0
INSERT
  5
881
330
611
100
AcDbEntity
  8
0
100
AcDbBlockReference
  2
circle_pin
 10
0.0
 20
838.0
 30
0.0
  0
INSERT
  5
883
330
611
100
AcDbEntity
  8
0
100
AcDbBlockReference
  2
circle_pin
 10
0.0
 20
842.0
 30
0.0
  0
INSERT
  5
885
330
611
100
AcDbEntity
  8
0
100
AcDbBlockReference
  2
circle_pin
 10
0.0
 20
846.0
 30
0.0
  0
INSERT
  5
887
330
611
100
AcDbEntity
  8
0
100
AcDbBlockReference
  2
circle_pin
 10
0.0
 20
850.0
 30
0.0
  0
INSERT
  5
889
330
611
100
AcDbEntity
  8
0
100
AcDbBlockReference
  2
circle_pin
 10
0.0
 20
854.0
 30
0.0
  0
INSERT
  5
88B
330
611
100
AcDbEntity
  8
0
100
AcDbBlockReference
  2
circle_pin
 10
0.0
 20
858.0
 30
0.0
  0
INSERT
  5
88D
330
611
100
AcDbEntity
  8
0
100
AcDbBlockReference
  2
circle_pin
 10
0.0
 20
862.0
 30
0.0
  0
INSERT
  5
88F
330
611
100
AcDbEntity
  8
0
100
AcDbBlockReference
  2
circle_pin
 10
0.0
 20
866.0
 30
0.0
  0
INSERT
  5
891
330
611
100
AcDbEntity
  8
0
100
AcDbBlockReference
  2
circle_pin
 10
0.0
 20
870.0
 30
0.0
  0
INSERT
  5
893
330
611
100
AcDbEntity
  8
0
100
AcDbBlockReference
  2
circle_pin
 10
0.0
 20
874.0
 30
0.0
  0
INSERT
  5
895
330
611
100
AcDbEntity
  8
0
100
AcDbBlockReference
  2
circle_pin
 10
0.0
 20
878.0
 30
0.0
  0
INSERT
  5
897
330
611
100
AcDbEntity
  8
0
100
AcDbBlockReference
  2
circle_pin
 10
0.0
 20
882.0
 30
0.0
  0
INSERT
  5
899
330
611
100
AcDbEntity
  8
0
100
AcDbBlockReference
  2
circle_pin
 10
0.0
 20
886.0
 30
0.0
  0
INSERT
  5
89B
330
611
100
AcDbEntity
  8
0
100
AcDbBlockReference
  2
circle_pin
 10
0.0
 20
890.0
 30
0.0
  0
INSERT
  5
89D
330
611
100
AcDbEntity
  8
0
100
AcDbBlockReference
  2
circle_pin
 10
0.0
 20
894.0
 30
0.0
  0
INSERT
  5
89F
330
611
100
AcDbEntity
  8
0
100
AcDbBlockReference
  2
circle_pin
 10
0.0
 20
898.0
 30
0.0
  0
INSERT
  5
8A1
330
611
100
AcDbEntity
  8
0
100
AcDbBlockReference
  2
circle_pin
 10
0.0
 20
902.0
 30
0.0
  0
INSERT
  5
8A3
330
611
100
AcDbEntity
  8
0
100
AcDbBlockReference
  2
circle_pin
 10
0.0
 20
906.0
 30
0.0
  0
INSERT
  5
8A5
330
611
100
AcDbEntity
  8
0
100
AcDbBlockReference
  2
circle_pin
 10
0.0
 20
910.0
 30
0.0
  0
INSERT
  5
8A7
330
611
100
AcDbEntity
  8
0
100
AcDbBlockReference
  2
circle_pin
 10
0.0
 20
914.0
 30
0.0
  0
INSERT
  5
8A9
330
611
100
AcDbEntity
  8
0
100
AcDbBlockReference
  2
circle_pin
 10
0.0
 20
918.0
 30
0.0
  0
INSERT
  5
8AB
330
611
100
AcDbEntity
  8
0
100
AcDbBlockReference
  2
circle_pin
 10
0.0
 20
922.0
 30
0.0
  0
INSERT
  5
8AD
330
611
100
AcDbEntity
  8
0
100
AcDbBlockReference
  2
circle_pin
 10
0.0
 20
926.0
 30
0.0
  0
INSERT
  5
8AF
330
611
100
AcDbEntity
  8
0
100
AcDbBlockReference
  2
circle_pin
 10
0.0
 20
930.0
 30
0.0
  0
INSERT
  5
8B1
330
611
100
AcDbEntity
  8
0
100
AcDbBlockReference
  2
circle_pin
 10
0.0
 20
934.0
 30
0.0
  0
INSERT
  5
8B3
330
611
100
AcDbEntity
  8
0
100
AcDbBlockReference
  2
circle_pin
 10
0.0
 20
938.0
 30
0.0
  0
INSERT
  5
8B5
330
611
100
AcDbEntity
  8
0
100
AcDbBlockReference
  2
circle_pin
 10
0.0
 20
942.0
 30
0.0
  0
INSERT
  5
8B7
330
611
100
AcDbEntity
  8
0
100
AcDbBlockReference
  2
circle_pin
 10
0.0
 20
946.0
 30
0.0
  0
INSERT
  5
8B9
330
611
100
AcDbEntity
  8
0
100
AcDbBlockReference
  2
circle_pin
 10
0.0
 20
950.0
 30
0.0
  0
INSERT
  5
8BB
330
611
100
AcDbEntity
  8
0
100
AcDbBlockReference
  2
circle_pin
 10
0.0
 20
954.0
 30
0.0
  0
INSERT
  5
8BD
330
611
100
AcDbEntity
  8
0
100
AcDbBlockReference
  2
circle_pin
 10
0.0
 20
958.0
 30
0.0
  0
INSERT
  5
8BF
330
611
100
AcDbEntity
  8
0
100
AcDbBlockReference
  2
circle_pin
 10
0.0
 20
962.0
 30
0.0
  0
INSERT
  5
8C1
330
611
100
AcDbEntity
  8
0
100
AcDbBlockReference
  2
circle_pin
 10
0.0
 20
966.0
 30
0.0
  0
INSERT
  5
8C3
330
611
100
AcDbEntity
  8
0
100
AcDbBlockReference
  2
circle_pin
 10
0.0
 20
970.0
 30
0.0
  0
INSERT
  5
8C5
330
611
100
AcDbEntity
  8
0
100
AcDbBlockReference
  2
circle_pin
 10
0.0
 20
974.0
 30
0.0
  0
INSERT
  5
8C7
330
611
100
AcDbEntity
  8
0
100
AcDbBlockReference
  2
circle_pin
 10
0.0
 20
978.0
 30
0.0
  0
INSERT
  5
8C9
330
611
100
AcDbEntity
  8
0
100
AcDbBlockReference
  2
circle_pin
 10
0.0
 20
982.0
 30
0.0
  0
INSERT
  5
8CB
330
611
100
AcDbEntity
  8
0
100
AcDbBlockReference
  2
circle_pin
 10
0.0
 20
986.0
 30
0.0
  0
INSERT
  5
8CD
330
611
100
AcDbEntity
  8
0
100
AcDbBlockReference
  2
circle_pin
 10
0.0
 20
990.0
 30
0.0
  0
INSERT
  5
8CF
330
611
100
AcDbEntity
  8
0
100
AcDbBlockReference
  2
circle_pin
 10
0.0
 20
994.0
 30
0.0
  0
INSERT
  5
8D1
330
611
100
AcDbEntity
  8
0
100
AcDbBlockReference
  2
circle_pin
 10
0.0
 20
998.0
 30
0.0
  0
INSERT
  5
8D3
330
611
100
AcDbEntity
  8
0
100
AcDbBlockReference
  2
circle_pin
 10
0.0
 20
1002.0
 30
0.0
  0
INSERT
  5
8D5
330
611
100
AcDbEntity
  8
0
100
AcDbBlockReference
  2
circle_pin
 10
0.0
 20
1006.0
 30
0.0
  0
INSERT
  5
8D7
330
611
100
AcDbEntity
  8
0
100
AcDbBlockReference
  2
circle_pin
 10
0.0
 20
1010.0
 30
0.0
  0
INSERT
  5
8D9
330
611
100
AcDbEntity
  8
0
100
AcDbBlockReference
  2
circle_pin
 10
0.0
 20
1014.0
 30
0.0
  0
INSERT
  5
8DB
330
611
100
AcDbEntity
  8
0
100
AcDbBlockReference
  2
circle_pin
 10
0.0
 20
1018.0
 30
0.0
  0
INSERT
  5
8DD
330
611
100
AcDbEntity
  8
0
100
AcDbBlockReference
  2
circle_pin
 10
0.0
 20
1022.0
 30
0.0
  0
INSERT
  5
8DF
330
611
100
AcDbEntity
  8
0
100
AcDbBlockReference
  2
circle_pin
 10
0.0
 20
1026.0
 30
0.0
  0
INSERT
  5
8E1
330
611
100
AcDbEntity
  8
0
100
AcDbBlockReference
  2
circle_pin
 10
0.0
 20
1030.0
 30
0.0
  0
INSERT
  5
8E3
330
611
100
AcDbEntity
  8
0
100
AcDbBlockReference
  2
circle_pin
 10
0.0
 20
1034.0
 30
0.0
  0
INSERT
  5
8E5
330
611
100
AcDbEntity
  8
0
100
AcDbBlockReference
  2
circle_pin
 10
0.0
 20
1038.0
 30
0.0
  0
INSERT
  5
8E7
330
611
100
AcDbEntity
  8
0
100
AcDbBlockReference
  2
circle_pin
 10
0.0
 20
1042.0
 30
0.0
  0
INSERT
  5
8E9
330
611
100
AcDbEntity
  8
0
100
AcDbBlockReference
  2
circle_pin
 10
0.0
 20
1046.0
 30
0.0
  0
INSERT
  5
8EB
330
611
100
AcDbEntity
  8
0
100
AcDbBlockReference
  2
circle_pin
 10
0.0
 20
1050.0
 30
0.0
  0
INSERT
  5
8ED
330
611
100
AcDbEntity
  8
0
100
AcDbBlockReference
  2
circle_pin
 10
0.0
 20
1054.0
 30
0.0
  0
INSERT
  5
8EF
330
611
100
AcDbEntity
  8
0
100
AcDbBlockReference
  2
circle_pin
 10
0.0
 20
1058.0
 30
0.0
  0
INSERT
  5
8F1
330
611
100
AcDbEntity
  8
0
100
AcDbBlockReference
  2
circle_pin
 10
0.0
 20
1066.0
 30
0.0
  0
INSERT
  5
8F3
330
611
100
AcDbEntity
  8
0
100
AcDbBlockReference
  2
circle_pin
 10
0.0
 20
1070.0
 30
0.0
  0
INSERT
  5
8F5
330
611
100
AcDbEntity
  8
0
100
AcDbBlockReference
  2
circle_pin
 10
0.0
 20
1074.0
 30
0.0
  0
INSERT
  5
8F7
330
611
100
AcDbEntity
  8
0
100
AcDbBlockReference
  2
circle_pin
 10
0.0
 20
1078.0
 30
0.0
  0
INSERT
  5
8F9
330
611
100
AcDbEntity
  8
0
100
AcDbBlockReference
  2
circle_pin
 10
0.0
 20
1082.0
 30
0.0
  0
INSERT
  5
8FB
330
611
100
AcDbEntity
  8
0
100
AcDbBlockReference
  2
circle_pin
 10
0.0
 20
1086.0
 30
0.0
  0
INSERT
  5
8FD
330
611
100
AcDbEntity
  8
0
100
AcDbBlockReference
  2
circle_pin
 10
0.0
 20
1090.0
 30
0.0
  0
INSERT
  5
8FF
330
611
100
AcDbEntity
  8
0
100
AcDbBlockReference
  2
circle_pin
 10
0.0
 20
1094.0
 30
0.0
  0
INSERT
  5
901
330
611
100
AcDbEntity
  8
0
100
AcDbBlockReference
  2
circle_pin
 10
0.0
 20
1098.0
 30
0.0
  0
INSERT
  5
903
330
611
100
AcDbEntity
  8
0
100
AcDbBlockReference
  2
circle_pin
 10
0.0
 20
1102.0
 30
0.0
  0
INSERT
  5
905
330
611
100
AcDbEntity
  8
0
100
AcDbBlockReference
  2
circle_pin
 10
0.0
 20
1106.0
 30
0.0
  0
INSERT
  5
907
330
611
100
AcDbEntity
  8
0
100
AcDbBlockReference
  2
circle_pin
 10
0.0
 20
1110.0
 30
0.0
  0
INSERT
  5
909
330
611
100
AcDbEntity
  8
0
100
AcDbBlockReference
  2
circle_pin
 10
0.0
 20
1114.0
 30
0.0
  0
INSERT
  5
90B
330
611
100
AcDbEntity
  8
0
100
AcDbBlockReference
  2
circle_pin
 10
0.0
 20
1118.0
 30
0.0
  0
INSERT
  5
90D
330
611
100
AcDbEntity
  8
0
100
AcDbBlockReference
  2
circle_pin
 10
0.0
 20
1122.0
 30
0.0
  0
INSERT
  5
90F
330
611
100
AcDbEntity
  8
0
100
AcDbBlockReference
  2
circle_pin
 10
0.0
 20
1126.0
 30
0.0
  0
INSERT
  5
911
330
611
100
AcDbEntity
  8
0
100
AcDbBlockReference
  2
circle_pin
 10
0.0
 20
1130.0
 30
0.0
  0
INSERT
  5
913
330
611
100
AcDbEntity
  8
0
100
AcDbBlockReference
  2
circle_pin
 10
0.0
 20
1134.0
 30
0.0
  0
INSERT
  5
915
330
611
100
AcDbEntity
  8
0
100
AcDbBlockReference
  2
circle_pin
 10
0.0
 20
1138.0
 30
0.0
  0
INSERT
  5
917
330
611
100
AcDbEntity
  8
0
100
AcDbBlockReference
  2
circle_pin
 10
0.0
 20
1142.0
 30
0.0
  0
INSERT
  5
919
330
611
100
AcDbEntity
  8
0
100
AcDbBlockReference
  2
circle_pin
 10
0.0
 20
1146.0
 30
0.0
  0
INSERT
  5
91B
330
611
100
AcDbEntity
  8
0
100
AcDbBlockReference
  2
circle_pin
 10
0.0
 20
1150.0
 30
0.0
  0
INSERT
  5
91D
330
611
100
AcDbEntity
  8
0
100
AcDbBlockReference
  2
circle_pin
 10
0.0
 20
1154.0
 30
0.0
  0
INSERT
  5
91F
330
611
100
AcDbEntity
  8
0
100
AcDbBlockReference
  2
circle_pin
 10
0.0
 20
1158.0
 30
0.0
  0
INSERT
  5
921
330
611
100
AcDbEntity
  8
0
100
AcDbBlockReference
  2
circle_pin
 10
0.0
 20
1162.0
 30
0.0
  0
INSERT
  5
923
330
611
100
AcDbEntity
  8
0
100
AcDbBlockReference
  2
circle_pin
 10
0.0
 20
1166.0
 30
0.0
  0
INSERT
  5
925
330
611
100
AcDbEntity
  8
0
100
AcDbBlockReference
  2
circle_pin
 10
0.0
 20
1170.0
 30
0.0
  0
INSERT
  5
927
330
611
100
AcDbEntity
  8
0
100
AcDbBlockReference
  2
circle_pin
 10
0.0
 20
1174.0
 30
0.0
  0
INSERT
  5
929
330
611
100
AcDbEntity
  8
0
100
AcDbBlockReference
  2
circle_pin
 10
0.0
 20
1178.0
 30
0.0
  0
INSERT
  5
92B
330
611
100
AcDbEntity
  8
0
100
AcDbBlockReference
  2
circle_pin
 10
0.0
 20
1182.0
 30
0.0
  0
INSERT
  5
92D
330
611
100
AcDbEntity
  8
0
100
AcDbBlockReference
  2
circle_pin
 10
0.0
 20
1186.0
 30
0.0
  0
INSERT
  5
92F
330
611
100
AcDbEntity
  8
0
100
AcDbBlockReference
  2
circle_pin
 10
0.0
 20
1190.0
 30
0.0
  0
INSERT
  5
931
330
611
100
AcDbEntity
  8
0
100
AcDbBlockReference
  2
circle_pin
 10
0.0
 20
1194.0
 30
0.0
  0
INSERT
  5
933
330
611
100
AcDbEntity
  8
0
100
AcDbBlockReference
  2
circle_pin
 10
0.0
 20
1198.0
 30
0.0
  0
INSERT
  5
935
330
611
100
AcDbEntity
  8
0
100
AcDbBlockReference
  2
circle_pin
 10
0.0
 20
1202.0
 30
0.0
  0
INSERT
  5
937
330
611
100
AcDbEntity
  8
0
100
AcDbBlockReference
  2
circle_pin
 10
0.0
 20
1206.0
 30
0.0
  0
INSERT
  5
939
330
611
100
AcDbEntity
  8
0
100
AcDbBlockReference
  2
circle_pin
 10
0.0
 20
1210.0
 30
0.0
  0
INSERT
  5
93B
330
611
100
AcDbEntity
  8
0
100
AcDbBlockReference
  2
circle_pin
 10
0.0
 20
1214.0
 30
0.0
  0
INSERT
  5
93D
330
611
100
AcDbEntity
  8
0
100
AcDbBlockReference
  2
circle_pin
 10
0.0
 20
1218.0
 30
0.0
  0
INSERT
  5
93F
330
611
100
AcDbEntity
  8
0
100
AcDbBlockReference
  2
circle_pin
 10
0.0
 20
1222.0
 30
0.0
  0
INSERT
  5
941
330
611
100
AcDbEntity
  8
0
100
AcDbBlockReference
  2
circle_pin
 10
0.0
 20
1226.0
 30
0.0
  0
INSERT
  5
943
330
611
100
AcDbEntity
  8
0
100
AcDbBlockReference
  2
circle_pin
 10
0.0
 20
1230.0
 30
0.0
  0
INSERT
  5
945
330
611
100
AcDbEntity
  8
0
100
AcDbBlockReference
  2
circle_pin
 10
0.0
 20
1234.0
 30
0.0
  0
INSERT
  5
947
330
611
100
AcDbEntity
  8
0
100
AcDbBlockReference
  2
circle_pin
 10
0.0
 20
1238.0
 30
0.0
  0
INSERT
  5
949
330
611
100
AcDbEntity
  8
0
100
AcDbBlockReference
  2
circle_pin
 10
0.0
 20
1242.0
 30
0.0
  0
INSERT
  5
94B
330
611
100
AcDbEntity
  8
0
100
AcDbBlockReference
  2
circle_pin
 10
0.0
 20
1246.0
 30
0.0
  0
INSERT
  5
94D
330
611
100
AcDbEntity
  8
0
100
AcDbBlockReference
  2
circle_pin
 10
0.0
 20
1250.0
 30
0.0
  0
INSERT
  5
94F
330
611
100
AcDbEntity
  8
0
100
AcDbBlockReference
  2
circle_pin
 10
0.0
 20
1254.0
 30
0.0
  0
INSERT
  5
951
330
611
100
AcDbEntity
  8
0
100
AcDbBlockReference
  2
circle_pin
 10
0.0
 20
1258.0
 30
0.0
  0
INSERT
  5
953
330
611
100
AcDbEntity
  8
0
100
AcDbBlockReference
  2
circle_pin
 10
0.0
 20
1262.0
 30
0.0
  0
INSERT
  5
955
330
611
100
AcDbEntity
  8
0
100
AcDbBlockReference
  2
circle_pin
 10
0.0
 20
1266.0
 30
0.0
  0
INSERT
  5
957
330
611
100
AcDbEntity
  8
0
100
AcDbBlockReference
  2
circle_pin
 10
0.0
 20
1270.0
 30
0.0
  0
INSERT
  5
959
330
611
100
AcDbEntity
  8
0
100
AcDbBlockReference
  2
circle_pin
 10
0.0
 20
1274.0
 30
0.0
  0
INSERT
  5
95B
330
611
100
AcDbEntity
  8
0
100
AcDbBlockReference
  2
circle_pin
 10
0.0
 20
1278.0
 30
0.0
  0
INSERT
  5
95D
330
611
100
AcDbEntity
  8
0
100
AcDbBlockReference
  2
circle_pin
 10
0.0
 20
1282.0
 30
0.0
  0
INSERT
  5
95F
330
611
100
AcDbEntity
  8
0
100
AcDbBlockReference
  2
circle_pin
 10
0.0
 20
1286.0
 30
0.0
  0
INSERT
  5
961
330
611
100
AcDbEntity
  8
0
100
AcDbBlockReference
  2
circle_pin
 10
0.0
 20
1290.0
 30
0.0
  0
INSERT
  5
963
330
611
100
AcDbEntity
  8
0
100
AcDbBlockReference
  2
circle_pin
 10
0.0
 20
1294.0
 30
0.0
  0
INSERT
  5
965
330
611
100
AcDbEntity
  8
0
100
AcDbBlockReference
  2
circle_pin
 10
0.0
 20
1298.0
 30
0.0
  0
INSERT
  5
967
330
611
100
AcDbEntity
  8
0
100
AcDbBlockReference
  2
circle_pin
 10
0.0
 20
1302.0
 30
0.0
  0
INSERT
  5
969
330
611
100
AcDbEntity
  8
0
100
AcDbBlockReference
  2
circle_pin
 10
0.0
 20
1306.0
 30
0.0
  0
INSERT
  5
96B
330
611
100
AcDbEntity
  8
0
100
AcDbBlockReference
  2
circle_pin
 10
0.0
 20
1310.0
 30
0.0
  0
INSERT
  5
96D
330
611
100
AcDbEntity
  8
0
100
AcDbBlockReference
  2
circle_pin
 10
0.0
 20
1314.0
 30
0.0
  0
INSERT
  5
96F
330
611
100
AcDbEntity
  8
0
100
AcDbBlockReference
  2
circle_pin
 10
0.0
 20
1318.0
 30
0.0
  0
INSERT
  5
971
330
611
100
AcDbEntity
  8
0
100
AcDbBlockReference
  2
circle_pin
 10
0.0
 20
1322.0
 30
0.0
  0
INSERT
  5
973
330
611
100
AcDbEntity
  8
0
100
AcDbBlockReference
  2
circle_pin
 10
0.0
 20
1326.0
 30
0.0
  0
INSERT
  5
975
330
611
100
AcDbEntity
  8
0
100
AcDbBlockReference
  2
circle_pin
 10
0.0
 20
1330.0
 30
0.0
  0
INSERT
  5
977
330
611
100
AcDbEntity
  8
0
100
AcDbBlockReference
  2
circle_pin
 10
0.0
 20
1334.0
 30
0.0
  0
INSERT
  5
979
330
611
100
AcDbEntity
  8
0
100
AcDbBlockReference
  2
circle_pin
 10
0.0
 20
1338.0
 30
0.0
  0
INSERT
  5
97B
330
611
100
AcDbEntity
  8
0
100
AcDbBlockReference
  2
circle_pin
 10
0.0
 20
1342.0
 30
0.0
  0
INSERT
  5
97D
330
611
100
AcDbEntity
  8
0
100
AcDbBlockReference
  2
circle_pin
 10
0.0
 20
1346.0
 30
0.0
  0
INSERT
  5
97F
330
611
100
AcDbEntity
  8
0
100
AcDbBlockReference
  2
circle_pin
 10
0.0
 20
1350.0
 30
0.0
  0
INSERT
  5
981
330
611
100
AcDbEntity
  8
0
100
AcDbBlockReference
  2
circle_pin
 10
0.0
 20
1354.0
 30
0.0
  0
INSERT
  5
983
330
611
100
AcDbEntity
  8
0
100
AcDbBlockReference
  2
circle_pin
 10
0.0
 20
1358.0
 30
0.0
  0
INSERT
  5
985
330
611
100
AcDbEntity
  8
0
100
AcDbBlockReference
  2
circle_pin
 10
0.0
 20
1362.0
 30
0.0
  0
INSERT
  5
987
330
611
100
AcDbEntity
  8
0
100
AcDbBlockReference
  2
circle_pin
 10
0.0
 20
1366.0
 30
0.0
  0
INSERT
  5
989
330
611
100
AcDbEntity
  8
0
100
AcDbBlockReference
  2
circle_pin
 10
0.0
 20
1370.0
 30
0.0
  0
INSERT
  5
98B
330
611
100
AcDbEntity
  8
0
100
AcDbBlockReference
  2
circle_pin
 10
0.0
 20
1374.0
 30
0.0
  0
INSERT
  5
98D
330
611
100
AcDbEntity
  8
0
100
AcDbBlockReference
  2
circle_pin
 10
0.0
 20
1378.0
 30
0.0
  0
INSERT
  5
98F
330
611
100
AcDbEntity
  8
0
100
AcDbBlockReference
  2
circle_pin
 10
0.0
 20
1382.0
 30
0.0
  0
INSERT
  5
991
330
611
100
AcDbEntity
  8
0
100
AcDbBlockReference
  2
circle_pin
 10
0.0
 20
1386.0
 30
0.0
  0
INSERT
  5
993
330
611
100
AcDbEntity
  8
0
100
AcDbBlockReference
  2
circle_pin
 10
0.0
 20
1390.0
 30
0.0
  0
INSERT
  5
995
330
611
100
AcDbEntity
  8
0
100
AcDbBlockReference
  2
circle_pin
 10
0.0
 20
1394.0
 30
0.0
  0
INSERT
  5
997
330
611
100
AcDbEntity
  8
0
100
AcDbBlockReference
  2
circle_pin
 10
0.0
 20
1398.0
 30
0.0
  0
INSERT
  5
999
330
611
100
AcDbEntity
  8
0
100
AcDbBlockReference
  2
circle_pin
 10
0.0
 20
1402.0
 30
0.0
  0
INSERT
  5
99B
330
611
100
AcDbEntity
  8
0
100
AcDbBlockReference
  2
circle_pin
 10
0.0
 20
1406.0
 30
0.0
  0
INSERT
  5
99D
330
611
100
AcDbEntity
  8
0
100
AcDbBlockReference
  2
circle_pin
 10
0.0
 20
1410.0
 30
0.0
  0
INSERT
  5
99F
330
611
100
AcDbEntity
  8
0
100
AcDbBlockReference
  2
circle_pin
 10
0.0
 20
1414.0
 30
0.0
  0
INSERT
  5
9A1
330
611
100
AcDbEntity
  8
0
100
AcDbBlockReference
  2
circle_pin
 10
0.0
 20
1418.0
 30
0.0
  0
INSERT
  5
9A3
330
611
100
AcDbEntity
  8
0
100
AcDbBlockReference
  2
circle_pin
 10
0.0
 20
1422.0
 30
0.0
  0
INSERT
  5
9A5
330
611
100
AcDbEntity
  8
0
100
AcDbBlockReference
  2
circle_pin
 10
0.0
 20
1426.0
 30
0.0
  0
INSERT
  5
9A7
330
611
100
AcDbEntity
  8
0
100
AcDbBlockReference
  2
circle_pin
 10
0.0
 20
1430.0
 30
0.0
  0
INSERT
  5
9A9
330
611
100
AcDbEntity
  8
0
100
AcDbBlockReference
  2
circle_pin
 10
0.0
 20
1434.0
 30
0.0
  0
INSERT
  5
9AB
330
611
100
AcDbEntity
  8
0
100
AcDbBlockReference
  2
circle_pin
 10
0.0
 20
1438.0
 30
0.0
  0
INSERT
  5
9AD
330
611
100
AcDbEntity
  8
0
100
AcDbBlockReference
  2
circle_pin
 10
0.0
 20
1442.0
 30
0.0
  0
INSERT
  5
9AF
330
611
100
AcDbEntity
  8
0
100
AcDbBlockReference
  2
circle_pin
 10
0.0
 20
1446.0
 30
0.0
  0
INSERT
  5
9B1
330
611
100
AcDbEntity
  8
0
100
AcDbBlockReference
  2
circle_pin
 10
0.0
 20
1978.0
 30
0.0
  0
INSERT
  5
9B3
330
611
100
AcDbEntity
  8
0
100
AcDbBlockReference
  2
circle_pin
 10
0.0
 20
1974.0
 30
0.0
  0
INSERT
  5
9B5
330
611
100
AcDbEntity
  8
0
100
AcDbBlockReference
  2
circle_pin
 10
0.0
 20
1970.0
 30
0.0
  0
INSERT
  5
9B7
330
611
100
AcDbEntity
  8
0
100
AcDbBlockReference
  2
circle_pin
 10
0.0
 20
1966.0
 30
0.0
  0
INSERT
  5
9B9
330
611
100
AcDbEntity
  8
0
100
AcDbBlockReference
  2
circle_pin
 10
0.0
 20
1962.0
 30
0.0
  0
INSERT
  5
9BB
330
611
100
AcDbEntity
  8
0
100
AcDbBlockReference
  2
circle_pin
 10
0.0
 20
1958.0
 30
0.0
  0
INSERT
  5
9BD
330
611
100
AcDbEntity
  8
0
100
AcDbBlockReference
  2
circle_pin
 10
0.0
 20
1954.0
 30
0.0
  0
INSERT
  5
9BF
330
611
100
AcDbEntity
  8
0
100
AcDbBlockReference
  2
circle_pin
 10
0.0
 20
1950.0
 30
0.0
  0
INSERT
  5
9C1
330
611
100
AcDbEntity
  8
0
100
AcDbBlockReference
  2
circle_pin
 10
0.0
 20
1942.0
 30
0.0
  0
INSERT
  5
9C3
330
611
100
AcDbEntity
  8
0
100
AcDbBlockReference
  2
circle_pin
 10
0.0
 20
1938.0
 30
0.0
  0
INSERT
  5
9C5
330
611
100
AcDbEntity
  8
0
100
AcDbBlockReference
  2
circle_pin
 10
0.0
 20
1934.0
 30
0.0
  0
INSERT
  5
9C7
330
611
100
AcDbEntity
  8
0
100
AcDbBlockReference
  2
circle_pin
 10
0.0
 20
1930.0
 30
0.0
  0
INSERT
  5
9C9
330
611
100
AcDbEntity
  8
0
100
AcDbBlockReference
  2
circle_pin
 10
0.0
 20
1926.0
 30
0.0
  0
INSERT
  5
9CB
330
611
100
AcDbEntity
  8
0
100
AcDbBlockReference
  2
circle_pin
 10
0.0
 20
1922.0
 30
0.0
  0
INSERT
  5
9CD
330
611
100
AcDbEntity
  8
0
100
AcDbBlockReference
  2
circle_pin
 10
0.0
 20
1918.0
 30
0.0
  0
INSERT
  5
9CF
330
611
100
AcDbEntity
  8
0
100
AcDbBlockReference
  2
circle_pin
 10
0.0
 20
1914.0
 30
0.0
  0
INSERT
  5
9D1
330
611
100
AcDbEntity
  8
0
100
AcDbBlockReference
  2
circle_pin
 10
0.0
 20
1906.0
 30
0.0
  0
INSERT
  5
9D3
330
611
100
AcDbEntity
  8
0
100
AcDbBlockReference
  2
circle_pin
 10
0.0
 20
1902.0
 30
0.0
  0
INSERT
  5
9D5
330
611
100
AcDbEntity
  8
0
100
AcDbBlockReference
  2
circle_pin
 10
0.0
 20
1898.0
 30
0.0
  0
INSERT
  5
9D7
330
611
100
AcDbEntity
  8
0
100
AcDbBlockReference
  2
circle_pin
 10
0.0
 20
1894.0
 30
0.0
  0
INSERT
  5
9D9
330
611
100
AcDbEntity
  8
0
100
AcDbBlockReference
  2
circle_pin
 10
0.0
 20
1886.0
 30
0.0
  0
INSERT
  5
9DB
330
611
100
AcDbEntity
  8
0
100
AcDbBlockReference
  2
circle_pin
 10
0.0
 20
1882.0
 30
0.0
  0
INSERT
  5
9DD
330
611
100
AcDbEntity
  8
0
100
AcDbBlockReference
  2
circle_pin
 10
0.0
 20
1878.0
 30
0.0
  0
INSERT
  5
9DF
330
611
100
AcDbEntity
  8
0
100
AcDbBlockReference
  2
circle_pin
 10
0.0
 20
1874.0
 30
0.0
  0
INSERT
  5
9E1
330
611
100
AcDbEntity
  8
0
100
AcDbBlockReference
  2
circle_pin
 10
0.0
 20
1866.0
 30
0.0
  0
INSERT
  5
9E3
330
611
100
AcDbEntity
  8
0
100
AcDbBlockReference
  2
circle_pin
 10
0.0
 20
1862.0
 30
0.0
  0
INSERT
  5
9E5
330
611
100
AcDbEntity
  8
0
100
AcDbBlockReference
  2
circle_pin
 10
0.0
 20
1858.0
 30
0.0
  0
INSERT
  5
9E7
330
611
100
AcDbEntity
  8
0
100
AcDbBlockReference
  2
circle_pin
 10
0.0
 20
1854.0
 30
0.0
  0
INSERT
  5
9E9
330
611
100
AcDbEntity
  8
0
100
AcDbBlockReference
  2
circle_pin
 10
2000.0
 20
22.0
 30
0.0
  0
INSERT
  5
9EB
330
611
100
AcDbEntity
  8
0
100
AcDbBlockReference
  2
circle_pin
 10
2000.0
 20
26.0
 30
0.0
  0
INSERT
  5
9ED
330
611
100
AcDbEntity
  8
0
100
AcDbBlockReference
  2
circle_pin
 10
2000.0
 20
30.0
 30
0.0
  0
INSERT
  5
9EF
330
611
100
AcDbEntity
  8
0
100
AcDbBlockReference
  2
circle_pin
 10
2000.0
 20
34.0
 30
0.0
  0
INSERT
  5
9F1
330
611
100
AcDbEntity
  8
0
100
AcDbBlockReference
  2
circle_pin
 10
2000.0
 20
38.0
 30
0.0
  0
INSERT
  5
9F3
330
611
100
AcDbEntity
  8
0
100
AcDbBlockReference
  2
circle_pin
 10
2000.0
 20
42.0
 30
0.0
  0
INSERT
  5
9F5
330
611
100
AcDbEntity
  8
0
100
AcDbBlockReference
  2
circle_pin
 10
2000.0
 20
46.0
 30
0.0
  0
INSERT
  5
9F7
330
611
100
AcDbEntity
  8
0
100
AcDbBlockReference
  2
circle_pin
 10
2000.0
 20
50.0
 30
0.0
  0
INSERT
  5
9F9
330
611
100
AcDbEntity
  8
0
100
AcDbBlockReference
  2
circle_pin
 10
2000.0
 20
58.0
 30
0.0
  0
INSERT
  5
9FB
330
611
100
AcDbEntity
  8
0
100
AcDbBlockReference
  2
circle_pin
 10
2000.0
 20
62.0
 30
0.0
  0
INSERT
  5
9FD
330
611
100
AcDbEntity
  8
0
100
AcDbBlockReference
  2
circle_pin
 10
2000.0
 20
66.0
 30
0.0
  0
INSERT
  5
9FF
330
611
100
AcDbEntity
  8
0
100
AcDbBlockReference
  2
circle_pin
 10
2000.0
 20
70.0
 30
0.0
  0
INSERT
  5
A01
330
611
100
AcDbEntity
  8
0
100
AcDbBlockReference
  2
circle_pin
 10
2000.0
 20
74.0
 30
0.0
  0
INSERT
  5
A03
330
611
100
AcDbEntity
  8
0
100
AcDbBlockReference
  2
circle_pin
 10
2000.0
 20
78.0
 30
0.0
  0
INSERT
  5
A05
330
611
100
AcDbEntity
  8
0
100
AcDbBlockReference
  2
circle_pin
 10
2000.0
 20
82.0
 30
0.0
  0
INSERT
  5
A07
330
611
100
AcDbEntity
  8
0
100
AcDbBlockReference
  2
circle_pin
 10
2000.0
 20
86.0
 30
0.0
  0
INSERT
  5
A09
330
611
100
AcDbEntity
  8
0
100
AcDbBlockReference
  2
circle_pin
 10
2000.0
 20
94.0
 30
0.0
  0
INSERT
  5
A0B
330
611
100
AcDbEntity
  8
0
100
AcDbBlockReference
  2
circle_pin
 10
2000.0
 20
98.0
 30
0.0
  0
INSERT
  5
A0D
330
611
100
AcDbEntity
  8
0
100
AcDbBlockReference
  2
circle_pin
 10
2000.0
 20
102.0
 30
0.0
  0
INSERT
  5
A0F
330
611
100
AcDbEntity
  8
0
100
AcDbBlockReference
  2
circle_pin
 10
2000.0
 20
106.0
 30
0.0
  0
INSERT
  5
A11
330
611
100
AcDbEntity
  8
0
100
AcDbBlockReference
  2
circle_pin
 10
2000.0
 20
114.0
 30
0.0
  0
INSERT
  5
A13
330
611
100
AcDbEntity
  8
0
100
AcDbBlockReference
  2
circle_pin
 10
2000.0
 20
118.0
 30
0.0
  0
INSERT
  5
A15
330
611
100
AcDbEntity
  8
0
100
AcDbBlockReference
  2
circle_pin
 10
2000.0
 20
122.0
 30
0.0
  0
INSERT
  5
A17
330
611
100
AcDbEntity
  8
0
100
AcDbBlockReference
  2
circle_pin
 10
2000.0
 20
126.0
 30
0.0
  0
INSERT
  5
A19
330
611
100
AcDbEntity
  8
0
100
AcDbBlockReference
  2
circle_pin
 10
2000.0
 20
134.0
 30
0.0
  0
INSERT
  5
A1B
330
611
100
AcDbEntity
  8
0
100
AcDbBlockReference
  2
circle_pin
 10
2000.0
 20
138.0
 30
0.0
  0
INSERT
  5
A1D
330
611
100
AcDbEntity
  8
0
100
AcDbBlockReference
  2
circle_pin
 10
2000.0
 20
142.0
 30
0.0
  0
INSERT
  5
A1F
330
611
100
AcDbEntity
  8
0
100
AcDbBlockReference
  2
circle_pin
 10
2000.0
 20
146.0
 30
0.0
  0
INSERT
  5
A21
330
611
100
AcDbEntity
  8
0
100
AcDbBlockReference
  2
circle_pin
 10
2000.0
 20
806.0
 30
0.0
  0
INSERT
  5
A23
330
611
100
AcDbEntity
  8
0
100
AcDbBlockReference
  2
circle_pin
 10
2000.0
 20
810.0
 30
0.0
  0
INSERT
  5
A25
330
611
100
AcDbEntity
  8
0
100
AcDbBlockReference
  2
circle_pin
 10
2000.0
 20
814.0
 30
0.0
  0
INSERT
  5
A27
330
611
100
AcDbEntity
  8
0
100
AcDbBlockReference
  2
circle_pin
 10
2000.0
 20
818.0
 30
0.0
  0
INSERT
  5
A29
330
611
100
AcDbEntity
  8
0
100
AcDbBlockReference
  2
circle_pin
 10
2000.0
 20
822.0
 30
0.0
  0
INSERT
  5
A2B
330
611
100
AcDbEntity
  8
0
100
AcDbBlockReference
  2
circle_pin
 10
2000.0
 20
826.0
 30
0.0
  0
INSERT
  5
A2D
330
611
100
AcDbEntity
  8
0
100
AcDbBlockReference
  2
circle_pin
 10
2000.0
 20
830.0
 30
0.0
  0
INSERT
  5
A2F
330
611
100
AcDbEntity
  8
0
100
AcDbBlockReference
  2
circle_pin
 10
2000.0
 20
834.0
 30
0.0
  0
INSERT
  5
A31
330
611
100
AcDbEntity
  8
0
100
AcDbBlockReference
  2
circle_pin
 10
2000.0
 20
838.0
 30
0.0
  0
INSERT
  5
A33
330
611
100
AcDbEntity
  8
0
100
AcDbBlockReference
  2
circle_pin
 10
2000.0
 20
842.0
 30
0.0
  0
INSERT
  5
A35
330
611
100
AcDbEntity
  8
0
100
AcDbBlockReference
  2
circle_pin
 10
2000.0
 20
846.0
 30
0.0
  0
INSERT
  5
A37
330
611
100
AcDbEntity
  8
0
100
AcDbBlockReference
  2
circle_pin
 10
2000.0
 20
850.0
 30
0.0
  0
INSERT
  5
A39
330
611
100
AcDbEntity
  8
0
100
AcDbBlockReference
  2
circle_pin
 10
2000.0
 20
854.0
 30
0.0
  0
INSERT
  5
A3B
330
611
100
AcDbEntity
  8
0
100
AcDbBlockReference
  2
circle_pin
 10
2000.0
 20
858.0
 30
0.0
  0
INSERT
  5
A3D
330
611
100
AcDbEntity
  8
0
100
AcDbBlockReference
  2
circle_pin
 10
2000.0
 20
862.0
 30
0.0
  0
INSERT
  5
A3F
330
611
100
AcDbEntity
  8
0
100
AcDbBlockReference
  2
circle_pin
 10
2000.0
 20
866.0
 30
0.0
  0
INSERT
  5
A41
330
611
100
AcDbEntity
  8
0
100
AcDbBlockReference
  2
circle_pin
 10
2000.0
 20
874.0
 30
0.0
  0
INSERT
  5
A43
330
611
100
AcDbEntity
  8
0
100
AcDbBlockReference
  2
circle_pin
 10
2000.0
 20
878.0
 30
0.0
  0
INSERT
  5
A45
330
611
100
AcDbEntity
  8
0
100
AcDbBlockReference
  2
circle_pin
 10
2000.0
 20
882.0
 30
0.0
  0
INSERT
  5
A47
330
611
100
AcDbEntity
  8
0
100
AcDbBlockReference
  2
circle_pin
 10
2000.0
 20
886.0
 30
0.0
  0
INSERT
  5
A49
330
611
100
AcDbEntity
  8
0
100
AcDbBlockReference
  2
circle_pin
 10
2000.0
 20
890.0
 30
0.0
  0
INSERT
  5
A4B
330
611
100
AcDbEntity
  8
0
100
AcDbBlockReference
  2
circle_pin
 10
2000.0
 20
894.0
 30
0.0
  0
INSERT
  5
A4D
330
611
100
AcDbEntity
  8
0
100
AcDbBlockReference
  2
circle_pin
 10
2000.0
 20
898.0
 30
0.0
  0
INSERT
  5
A4F
330
611
100
AcDbEntity
  8
0
100
AcDbBlockReference
  2
circle_pin
 10
2000.0
 20
902.0
 30
0.0
  0
INSERT
  5
A51
330
611
100
AcDbEntity
  8
0
100
AcDbBlockReference
  2
circle_pin
 10
2000.0
 20
906.0
 30
0.0
  0
INSERT
  5
A53
330
611
100
AcDbEntity
  8
0
100
AcDbBlockReference
  2
circle_pin
 10
2000.0
 20
910.0
 30
0.0
  0
INSERT
  5
A55
330
611
100
AcDbEntity
  8
0
100
AcDbBlockReference
  2
circle_pin
 10
2000.0
 20
914.0
 30
0.0
  0
INSERT
  5
A57
330
611
100
AcDbEntity
  8
0
100
AcDbBlockReference
  2
circle_pin
 10
2000.0
 20
918.0
 30
0.0
  0
INSERT
  5
A59
330
611
100
AcDbEntity
  8
0
100
AcDbBlockReference
  2
circle_pin
 10
2000.0
 20
922.0
 30
0.0
  0
INSERT
  5
A5B
330
611
100
AcDbEntity
  8
0
100
AcDbBlockReference
  2
circle_pin
 10
2000.0
 20
926.0
 30
0.0
  0
INSERT
  5
A5D
330
611
100
AcDbEntity
  8
0
100
AcDbBlockReference
  2
circle_pin
 10
2000.0
 20
930.0
 30
0.0
  0
INSERT
  5
A5F
330
611
100
AcDbEntity
  8
0
100
AcDbBlockReference
  2
circle_pin
 10
2000.0
 20
934.0
 30
0.0
  0
INSERT
  5
A61
330
611
100
AcDbEntity
  8
0
100
AcDbBlockReference
  2
circle_pin
 10
2000.0
 20
938.0
 30
0.0
  0
INSERT
  5
A63
330
611
100
AcDbEntity
  8
0
100
AcDbBlockReference
  2
circle_pin
 10
2000.0
 20
942.0
 30
0.0
  0
INSERT
  5
A65
330
611
100
AcDbEntity
  8
0
100
AcDbBlockReference
  2
circle_pin
 10
2000.0
 20
946.0
 30
0.0
  0
INSERT
  5
A67
330
611
100
AcDbEntity
  8
0
100
AcDbBlockReference
  2
circle_pin
 10
2000.0
 20
950.0
 30
0.0
  0
INSERT
  5
A69
330
611
100
AcDbEntity
  8
0
100
AcDbBlockReference
  2
circle_pin
 10
2000.0
 20
954.0
 30
0.0
  0
INSERT
  5
A6B
330
611
100
AcDbEntity
  8
0
100
AcDbBlockReference
  2
circle_pin
 10
2000.0
 20
958.0
 30
0.0
  0
INSERT
  5
A6D
330
611
100
AcDbEntity
  8
0
100
AcDbBlockReference
  2
circle_pin
 10
2000.0
 20
962.0
 30
0.0
  0
INSERT
  5
A6F
330
611
100
AcDbEntity
  8
0
100
AcDbBlockReference
  2
circle_pin
 10
2000.0
 20
966.0
 30
0.0
  0
INSERT
  5
A71
330
611
100
AcDbEntity
  8
0
100
AcDbBlockReference
  2
circle_pin
 10
2000.0
 20
970.0
 30
0.0
  0
INSERT
  5
A73
330
611
100
AcDbEntity
  8
0
100
AcDbBlockReference
  2
circle_pin
 10
2000.0
 20
974.0
 30
0.0
  0
INSERT
  5
A75
330
611
100
AcDbEntity
  8
0
100
AcDbBlockReference
  2
circle_pin
 10
2000.0
 20
978.0
 30
0.0
  0
INSERT
  5
A77
330
611
100
AcDbEntity
  8
0
100
AcDbBlockReference
  2
circle_pin
 10
2000.0
 20
982.0
 30
0.0
  0
INSERT
  5
A79
330
611
100
AcDbEntity
  8
0
100
AcDbBlockReference
  2
circle_pin
 10
2000.0
 20
986.0
 30
0.0
  0
INSERT
  5
A7B
330
611
100
AcDbEntity
  8
0
100
AcDbBlockReference
  2
circle_pin
 10
2000.0
 20
990.0
 30
0.0
  0
INSERT
  5
A7D
330
611
100
AcDbEntity
  8
0
100
AcDbBlockReference
  2
circle_pin
 10
2000.0
 20
994.0
 30
0.0
  0
INSERT
  5
A7F
330
611
100
AcDbEntity
  8
0
100
AcDbBlockReference
  2
circle_pin
 10
2000.0
 20
998.0
 30
0.0
  0
INSERT
  5
A81
330
611
100
AcDbEntity
  8
0
100
AcDbBlockReference
  2
circle_pin
 10
2000.0
 20
1002.0
 30
0.0
  0
INSERT
  5
A83
330
611
100
AcDbEntity
  8
0
100
AcDbBlockReference
  2
circle_pin
 10
2000.0
 20
1006.0
 30
0.0
  0
INSERT
  5
A85
330
611
100
AcDbEntity
  8
0
100
AcDbBlockReference
  2
circle_pin
 10
2000.0
 20
1010.0
 30
0.0
  0
INSERT
  5
A87
330
611
100
AcDbEntity
  8
0
100
AcDbBlockReference
  2
circle_pin
 10
2000.0
 20
1014.0
 30
0.0
  0
INSERT
  5
A89
330
611
100
AcDbEntity
  8
0
100
AcDbBlockReference
  2
circle_pin
 10
2000.0
 20
1018.0
 30
0.0
  0
INSERT
  5
A8B
330
611
100
AcDbEntity
  8
0
100
AcDbBlockReference
  2
circle_pin
 10
2000.0
 20
1022.0
 30
0.0
  0
INSERT
  5
A8D
330
611
100
AcDbEntity
  8
0
100
AcDbBlockReference
  2
circle_pin
 10
2000.0
 20
1026.0
 30
0.0
  0
INSERT
  5
A8F
330
611
100
AcDbEntity
  8
0
100
AcDbBlockReference
  2
circle_pin
 10
2000.0
 20
1030.0
 30
0.0
  0
INSERT
  5
A91
330
611
100
AcDbEntity
  8
0
100
AcDbBlockReference
  2
circle_pin
 10
2000.0
 20
1034.0
 30
0.0
  0
INSERT
  5
A93
330
611
100
AcDbEntity
  8
0
100
AcDbBlockReference
  2
circle_pin
 10
2000.0
 20
1038.0
 30
0.0
  0
INSERT
  5
A95
330
611
100
AcDbEntity
  8
0
100
AcDbBlockReference
  2
circle_pin
 10
2000.0
 20
1042.0
 30
0.0
  0
INSERT
  5
A97
330
611
100
AcDbEntity
  8
0
100
AcDbBlockReference
  2
circle_pin
 10
2000.0
 20
1046.0
 30
0.0
  0
INSERT
  5
A99
330
611
100
AcDbEntity
  8
0
100
AcDbBlockReference
  2
circle_pin
 10
2000.0
 20
1050.0
 30
0.0
  0
INSERT
  5
A9B
330
611
100
AcDbEntity
  8
0
100
AcDbBlockReference
  2
circle_pin
 10
2000.0
 20
1054.0
 30
0.0
  0
INSERT
  5
A9D
330
611
100
AcDbEntity
  8
0
100
AcDbBlockReference
  2
circle_pin
 10
2000.0
 20
1058.0
 30
0.0
  0
INSERT
  5
A9F
330
611
100
AcDbEntity
  8
0
100
AcDbBlockReference
  2
circle_pin
 10
2000.0
 20
1062.0
 30
0.0
  0
INSERT
  5
AA1
330
611
100
AcDbEntity
  8
0
100
AcDbBlockReference
  2
circle_pin
 10
2000.0
 20
1066.0
 30
0.0
  0
INSERT
  5
AA3
330
611
100
AcDbEntity
  8
0
100
AcDbBlockReference
  2
circle_pin
 10
2000.0
 20
1070.0
 30
0.0
  0
INSERT
  5
AA5
330
611
100
AcDbEntity
  8
0
100
AcDbBlockReference
  2
circle_pin
 10
2000.0
 20
1074.0
 30
0.0
  0
INSERT
  5
AA7
330
611
100
AcDbEntity
  8
0
100
AcDbBlockReference
  2
circle_pin
 10
2000.0
 20
1078.0
 30
0.0
  0
INSERT
  5
AA9
330
611
100
AcDbEntity
  8
0
100
AcDbBlockReference
  2
circle_pin
 10
2000.0
 20
1082.0
 30
0.0
  0
INSERT
  5
AAB
330
611
100
AcDbEntity
  8
0
100
AcDbBlockReference
  2
circle_pin
 10
2000.0
 20
1086.0
 30
0.0
  0
INSERT
  5
AAD
330
611
100
AcDbEntity
  8
0
100
AcDbBlockReference
  2
circle_pin
 10
2000.0
 20
1090.0
 30
0.0
  0
INSERT
  5
AAF
330
611
100
AcDbEntity
  8
0
100
AcDbBlockReference
  2
circle_pin
 10
2000.0
 20
1094.0
 30
0.0
  0
INSERT
  5
AB1
330
611
100
AcDbEntity
  8
0
100
AcDbBlockReference
  2
circle_pin
 10
2000.0
 20
1098.0
 30
0.0
  0
INSERT
  5
AB3
330
611
100
AcDbEntity
  8
0
100
AcDbBlockReference
  2
circle_pin
 10
2000.0
 20
1102.0
 30
0.0
  0
INSERT
  5
AB5
330
611
100
AcDbEntity
  8
0
100
AcDbBlockReference
  2
circle_pin
 10
2000.0
 20
1106.0
 30
0.0
  0
INSERT
  5
AB7
330
611
100
AcDbEntity
  8
0
100
AcDbBlockReference
  2
circle_pin
 10
2000.0
 20
1110.0
 30
0.0
  0
INSERT
  5
AB9
330
611
100
AcDbEntity
  8
0
100
AcDbBlockReference
  2
circle_pin
 10
2000.0
 20
1114.0
 30
0.0
  0
INSERT
  5
ABB
330
611
100
AcDbEntity
  8
0
100
AcDbBlockReference
  2
circle_pin
 10
2000.0
 20
1118.0
 30
0.0
  0
INSERT
  5
ABD
330
611
100
AcDbEntity
  8
0
100
AcDbBlockReference
  2
circle_pin
 10
2000.0
 20
1122.0
 30
0.0
  0
INSERT
  5
ABF
330
611
100
AcDbEntity
  8
0
100
AcDbBlockReference
  2
circle_pin
 10
2000.0
 20
1126.0
 30
0.0
  0
INSERT
  5
AC1
330
611
100
AcDbEntity
  8
0
100
AcDbBlockReference
  2
circle_pin
 10
2000.0
 20
1134.0
 30
0.0
  0
INSERT
  5
AC3
330
611
100
AcDbEntity
  8
0
100
AcDbBlockReference
  2
circle_pin
 10
2000.0
 20
1138.0
 30
0.0
  0
INSERT
  5
AC5
330
611
100
AcDbEntity
  8
0
100
AcDbBlockReference
  2
circle_pin
 10
2000.0
 20
1142.0
 30
0.0
  0
INSERT
  5
AC7
330
611
100
AcDbEntity
  8
0
100
AcDbBlockReference
  2
circle_pin
 10
2000.0
 20
1146.0
 30
0.0
  0
INSERT
  5
AC9
330
611
100
AcDbEntity
  8
0
100
AcDbBlockReference
  2
circle_pin
 10
2000.0
 20
1150.0
 30
0.0
  0
INSERT
  5
ACB
330
611
100
AcDbEntity
  8
0
100
AcDbBlockReference
  2
circle_pin
 10
2000.0
 20
1154.0
 30
0.0
  0
INSERT
  5
ACD
330
611
100
AcDbEntity
  8
0
100
AcDbBlockReference
  2
circle_pin
 10
2000.0
 20
1158.0
 30
0.0
  0
INSERT
  5
ACF
330
611
100
AcDbEntity
  8
0
100
AcDbBlockReference
  2
circle_pin
 10
2000.0
 20
1162.0
 30
0.0
  0
INSERT
  5
AD1
330
611
100
AcDbEntity
  8
0
100
AcDbBlockReference
  2
circle_pin
 10
2000.0
 20
1166.0
 30
0.0
  0
INSERT
  5
AD3
330
611
100
AcDbEntity
  8
0
100
AcDbBlockReference
  2
circle_pin
 10
2000.0
 20
1170.0
 30
0.0
  0
INSERT
  5
AD5
330
611
100
AcDbEntity
  8
0
100
AcDbBlockReference
  2
circle_pin
 10
2000.0
 20
1178.0
 30
0.0
  0
INSERT
  5
AD7
330
611
100
AcDbEntity
  8
0
100
AcDbBlockReference
  2
circle_pin
 10
2000.0
 20
1182.0
 30
0.0
  0
INSERT
  5
AD9
330
611
100
AcDbEntity
  8
0
100
AcDbBlockReference
  2
circle_pin
 10
2000.0
 20
1186.0
 30
0.0
  0
INSERT
  5
ADB
330
611
100
AcDbEntity
  8
0
100
AcDbBlockReference
  2
circle_pin
 10
2000.0
 20
1190.0
 30
0.0
  0
INSERT
  5
ADD
330
611
100
AcDbEntity
  8
0
100
AcDbBlockReference
  2
circle_pin
 10
2000.0
 20
1194.0
 30
0.0
  0
INSERT
  5
ADF
330
611
100
AcDbEntity
  8
0
100
AcDbBlockReference
  2
circle_pin
 10
2000.0
 20
1198.0
 30
0.0
  0
INSERT
  5
AE1
330
611
100
AcDbEntity
  8
0
100
AcDbBlockReference
  2
circle_pin
 10
2000.0
 20
1202.0
 30
0.0
  0
INSERT
  5
AE3
330
611
100
AcDbEntity
  8
0
100
AcDbBlockReference
  2
circle_pin
 10
2000.0
 20
1206.0
 30
0.0
  0
INSERT
  5
AE5
330
611
100
AcDbEntity
  8
0
100
AcDbBlockReference
  2
circle_pin
 10
2000.0
 20
1210.0
 30
0.0
  0
INSERT
  5
AE7
330
611
100
AcDbEntity
  8
0
100
AcDbBlockReference
  2
circle_pin
 10
2000.0
 20
1214.0
 30
0.0
  0
INSERT
  5
AE9
330
611
100
AcDbEntity
  8
0
100
AcDbBlockReference
  2
circle_pin
 10
2000.0
 20
1218.0
 30
0.0
  0
INSERT
  5
AEB
330
611
100
AcDbEntity
  8
0
100
AcDbBlockReference
  2
circle_pin
 10
2000.0
 20
1222.0
 30
0.0
  0
INSERT
  5
AED
330
611
100
AcDbEntity
  8
0
100
AcDbBlockReference
  2
circle_pin
 10
2000.0
 20
1226.0
 30
0.0
  0
INSERT
  5
AEF
330
611
100
AcDbEntity
  8
0
100
AcDbBlockReference
  2
circle_pin
 10
2000.0
 20
1230.0
 30
0.0
  0
INSERT
  5
AF1
330
611
100
AcDbEntity
  8
0
100
AcDbBlockReference
  2
circle_pin
 10
2000.0
 20
1234.0
 30
0.0
  0
INSERT
  5
AF3
330
611
100
AcDbEntity
  8
0
100
AcDbBlockReference
  2
circle_pin
 10
2000.0
 20
1238.0
 30
0.0
  0
INSERT
  5
AF5
330
611
100
AcDbEntity
  8
0
100
AcDbBlockReference
  2
circle_pin
 10
2000.0
 20
1242.0
 30
0.0
  0
INSERT
  5
AF7
330
611
100
AcDbEntity
  8
0
100
AcDbBlockReference
  2
circle_pin
 10
2000.0
 20
1246.0
 30
0.0
  0
INSERT
  5
AF9
330
611
100
AcDbEntity
  8
0
100
AcDbBlockReference
  2
circle_pin
 10
2000.0
 20
1250.0
 30
0.0
  0
INSERT
  5
AFB
330
611
100
AcDbEntity
  8
0
100
AcDbBlockReference
  2
circle_pin
 10
2000.0
 20
1254.0
 30
0.0
  0
INSERT
  5
AFD
330
611
100
AcDbEntity
  8
0
100
AcDbBlockReference
  2
circle_pin
 10
2000.0
 20
1258.0
 30
0.0
  0
INSERT
  5
AFF
330
611
100
AcDbEntity
  8
0
100
AcDbBlockReference
  2
circle_pin
 10
2000.0
 20
1262.0
 30
0.0
  0
INSERT
  5
B01
330
611
100
AcDbEntity
  8
0
100
AcDbBlockReference
  2
circle_pin
 10
2000.0
 20
1266.0
 30
0.0
  0
INSERT
  5
B03
330
611
100
AcDbEntity
  8
0
100
AcDbBlockReference
  2
circle_pin
 10
2000.0
 20
1270.0
 30
0.0
  0
INSERT
  5
B05
330
611
100
AcDbEntity
  8
0
100
AcDbBlockReference
  2
circle_pin
 10
2000.0
 20
1274.0
 30
0.0
  0
INSERT
  5
B07
330
611
100
AcDbEntity
  8
0
100
AcDbBlockReference
  2
circle_pin
 10
2000.0
 20
1278.0
 30
0.0
  0
INSERT
  5
B09
330
611
100
AcDbEntity
  8
0
100
AcDbBlockReference
  2
circle_pin
 10
2000.0
 20
1282.0
 30
0.0
  0
INSERT
  5
B0B
330
611
100
AcDbEntity
  8
0
100
AcDbBlockReference
  2
circle_pin
 10
2000.0
 20
1286.0
 30
0.0
  0
INSERT
  5
B0D
330
611
100
AcDbEntity
  8
0
100
AcDbBlockReference
  2
circle_pin
 10
2000.0
 20
1290.0
 30
0.0
  0
INSERT
  5
B0F
330
611
100
AcDbEntity
  8
0
100
AcDbBlockReference
  2
circle_pin
 10
2000.0
 20
1294.0
 30
0.0
  0
INSERT
  5
B11
330
611
100
AcDbEntity
  8
0
100
AcDbBlockReference
  2
circle_pin
 10
2000.0
 20
1298.0
 30
0.0
  0
INSERT
  5
B13
330
611
100
AcDbEntity
  8
0
100
AcDbBlockReference
  2
circle_pin
 10
2000.0
 20
1302.0
 30
0.0
  0
INSERT
  5
B15
330
611
100
AcDbEntity
  8
0
100
AcDbBlockReference
  2
circle_pin
 10
2000.0
 20
1978.0
 30
0.0
  0
INSERT
  5
B17
330
611
100
AcDbEntity
  8
0
100
AcDbBlockReference
  2
circle_pin
 10
2000.0
 20
1974.0
 30
0.0
  0
INSERT
  5
B19
330
611
100
AcDbEntity
  8
0
100
AcDbBlockReference
  2
circle_pin
 10
2000.0
 20
1970.0
 30
0.0
  0
INSERT
  5
B1B
330
611
100
AcDbEntity
  8
0
100
AcDbBlockReference
  2
circle_pin
 10
2000.0
 20
1966.0
 30
0.0
  0
INSERT
  5
B1D
330
611
100
AcDbEntity
  8
0
100
AcDbBlockReference
  2
circle_pin
 10
2000.0
 20
1962.0
 30
0.0
  0
INSERT
  5
B1F
330
611
100
AcDbEntity
  8
0
100
AcDbBlockReference
  2
circle_pin
 10
2000.0
 20
1958.0
 30
0.0
  0
INSERT
  5
B21
330
611
100
AcDbEntity
  8
0
100
AcDbBlockReference
  2
circle_pin
 10
2000.0
 20
1954.0
 30
0.0
  0
INSERT
  5
B23
330
611
100
AcDbEntity
  8
0
100
AcDbBlockReference
  2
circle_pin
 10
2000.0
 20
1950.0
 30
0.0
  0
INSERT
  5
B25
330
611
100
AcDbEntity
  8
0
100
AcDbBlockReference
  2
circle_pin
 10
2000.0
 20
1942.0
 30
0.0
  0
INSERT
  5
B27
330
611
100
AcDbEntity
  8
0
100
AcDbBlockReference
  2
circle_pin
 10
2000.0
 20
1938.0
 30
0.0
  0
INSERT
  5
B29
330
611
100
AcDbEntity
  8
0
100
AcDbBlockReference
  2
circle_pin
 10
2000.0
 20
1934.0
 30
0.0
  0
INSERT
  5
B2B
330
611
100
AcDbEntity
  8
0
100
AcDbBlockReference
  2
circle_pin
 10
2000.0
 20
1930.0
 30
0.0
  0
INSERT
  5
B2D
330
611
100
AcDbEntity
  8
0
100
AcDbBlockReference
  2
circle_pin
 10
2000.0
 20
1926.0
 30
0.0
  0
INSERT
  5
B2F
330
611
100
AcDbEntity
  8
0
100
AcDbBlockReference
  2
circle_pin
 10
2000.0
 20
1922.0
 30
0.0
  0
INSERT
  5
B31
330
611
100
AcDbEntity
  8
0
100
AcDbBlockReference
  2
circle_pin
 10
2000.0
 20
1918.0
 30
0.0
  0
INSERT
  5
B33
330
611
100
AcDbEntity
  8
0
100
AcDbBlockReference
  2
circle_pin
 10
2000.0
 20
1914.0
 30
0.0
  0
INSERT
  5
B35
330
611
100
AcDbEntity
  8
0
100
AcDbBlockReference
  2
circle_pin
 10
2000.0
 20
1906.0
 30
0.0
  0
INSERT
  5
B37
330
611
100
AcDbEntity
  8
0
100
AcDbBlockReference
  2
circle_pin
 10
2000.0
 20
1902.0
 30
0.0
  0
INSERT
  5
B39
330
611
100
AcDbEntity
  8
0
100
AcDbBlockReference
  2
circle_pin
 10
2000.0
 20
1898.0
 30
0.0
  0
INSERT
  5
B3B
330
611
100
AcDbEntity
  8
0
100
AcDbBlockReference
  2
circle_pin
 10
2000.0
 20
1894.0
 30
0.0
  0
INSERT
  5
B3D
330
611
100
AcDbEntity
  8
0
100
AcDbBlockReference
  2
circle_pin
 10
2000.0
 20
1886.0
 30
0.0
  0
INSERT
  5
B3F
330
611
100
AcDbEntity
  8
0
100
AcDbBlockReference
  2
circle_pin
 10
2000.0
 20
1882.0
 30
0.0
  0
INSERT
  5
B41
330
611
100
AcDbEntity
  8
0
100
AcDbBlockReference
  2
circle_pin
 10
2000.0
 20
1878.0
 30
0.0
  0
INSERT
  5
B43
330
611
100
AcDbEntity
  8
0
100
AcDbBlockReference
  2
circle_pin
 10
2000.0
 20
1874.0
 30
0.0
  0
INSERT
  5
B45
330
611
100
AcDbEntity
  8
0
100
AcDbBlockReference
  2
circle_pin
 10
2000.0
 20
1866.0
 30
0.0
  0
INSERT
  5
B47
330
611
100
AcDbEntity
  8
0
100
AcDbBlockReference
  2
circle_pin
 10
2000.0
 20
1862.0
 30
0.0
  0
INSERT
  5
B49
330
611
100
AcDbEntity
  8
0
100
AcDbBlockReference
  2
circle_pin
 10
2000.0
 20
1858.0
 30
0.0
  0
INSERT
  5
B4B
330
611
100
AcDbEntity
  8
0
100
AcDbBlockReference
  2
circle_pin
 10
2000.0
 20
1854.0
 30
0.0
  0
ENDBLK
  5
613
330
611
100
AcDbEntity
  8
0
100
AcDbBlockEnd
  0
BLOCK
  5
BDE
330
BDD
100
AcDbEntity
  8
0
100
AcDbBlockBegin
  2
CLCL
 70
0
 10
0.0
 20
0.0
 30
0.0
  3
CLCL
  1

  0
LWPOLYLINE
  5
BE0
330
BDD
100
AcDbEntity
  8
0
100
AcDbPolyline
 90
4
 70
1
 10
0.0
 20
0.0
 10
200.0
 20
0.0
 10
200.0
 20
200.0
 10
0.0
 20
200.0
  0
INSERT
  5
C4F
330
BDD
100
AcDbEntity
  8
0
100
AcDbBlockReference
  2
SLABL
 10
25.0
 20
25.0
 30
0.0
  0
INSERT
  5
C51
330
BDD
100
AcDbEntity
  8
0
100
AcDbBlockReference
  2
circle_pin
 10
0.0
 20
100.0
 30
0.0
  0
INSERT
  5
C53
330
BDD
100
AcDbEntity
  8
0
100
AcDbBlockReference
  2
circle_pin
 10
200.0
 20
100.0
 30
0.0
  0
ENDBLK
  5
BDF
330
BDD
100
AcDbEntity
  8
0
100
AcDbBlockEnd
  0
BLOCK
  5
BE2
330
BE1
100
AcDbEntity
  8
0
100
AcDbBlockBegin
  2
SLABL
 70
0
 10
0.0
 20
0.0
 30
0.0
  3
SLABL
  1

  0
LWPOLYLINE
  5
BE4
330
BE1
100
AcDbEntity
  8
0
100
AcDbPolyline
 90
4
 70
1
 10
0.0
 20
0.0
 10
150.0
 20
0.0
 10
150.0
 20
150.0
 10
0.0
 20
150.0
  0
INSERT
  5
BF9
330
BE1
100
AcDbEntity
  8
0
100
AcDbBlockReference
  2
LUT
 10
10.0
 20
15.0
 30
0.0
  0
INSERT
  5
BFB
330
BE1
100
AcDbEntity
  8
0
100
AcDbBlockReference
  2
LUT
 10
10.0
 20
30.0
 30
0.0
  0
INSERT
  5
BFD
330
BE1
100
AcDbEntity
  8
0
100
AcDbBlockReference
  2
LUT
 10
10.0
 20
45.0
 30
0.0
  0
INSERT
  5
BFF
330
BE1
100
AcDbEntity
  8
0
100
AcDbBlockReference
  2
LUT
 10
10.0
 20
60.0
 30
0.0
  0
INSERT
  5
C01
330
BE1
100
AcDbEntity
  8
0
100
AcDbBlockReference
  2
LUT
 10
10.0
 20
80.0
 30
0.0
  0
INSERT
  5
C03
330
BE1
100
AcDbEntity
  8
0
100
AcDbBlockReference
  2
LUT
 10
10.0
 20
95.0
 30
0.0
  0
INSERT
  5
C05
330
BE1
100
AcDbEntity
  8
0
100
AcDbBlockReference
  2
LUT
 10
10.0
 20
110.0
 30
0.0
  0
INSERT
  5
C07
330
BE1
100
AcDbEntity
  8
0
100
AcDbBlockReference
  2
LUT
 10
10.0
 20
125.0
 30
0.0
  0
INSERT
  5
C11
330
BE1
100
AcDbEntity
  8
0
100
AcDbBlockReference
  2
MUX2
 10
30.0
 20
25.0
 30
0.0
  0
INSERT
  5
C13
330
BE1
100
AcDbEntity
  8
0
100
AcDbBlockReference
  2
MUX2
 10
30.0
 20
60.0
 30
0.0
  0
INSERT
  5
C15
330
BE1
100
AcDbEntity
  8
0
100
AcDbBlockReference
  2
MUX2
 10
30.0
 20
95.0
 30
0.0
  0
INSERT
  5
C17
330
BE1
100
AcDbEntity
  8
0
100
AcDbBlockReference
  2
MUX2
 10
30.0
 20
130.0
 30
0.0
  0
INSERT
  5
C19
330
BE1
100
AcDbEntity
  8
0
100
AcDbBlockReference
  2
MUX2
 10
45.0
 20
40.0
 30
0.0
  0
INSERT
  5
C1B
330
BE1
100
AcDbEntity
  8
0
100
AcDbBlockReference
  2
MUX2
 10
45.0
 20
110.0
 30
0.0
  0
INSERT
  5
C1D
330
BE1
100
AcDbEntity
  8
0
100
AcDbBlockReference
  2
MUX2
 10
60.0
 20
73.0
 30
0.0
  0
INSERT
  5
C37
330
BE1
100
AcDbEntity
  8
0
100
AcDbBlockReference
  2
CLA
 10
80.0
 20
25.0
 30
0.0
 50
90.0
  0
INSERT
  5
C39
330
BE1
100
AcDbEntity
  8
0
100
AcDbBlockReference
  2
CLA
 10
80.0
 20
97.0
 30
0.0
  0
INSERT
  5
C43
330
BE1
100
AcDbEntity
  8
0
100
AcDbBlockReference
  2
MUX4
 10
100.0
 20
100.0
 30
0.0
  0
INSERT
  5
C45
330
BE1
100
AcDbEntity
  8
0
100
AcDbBlockReference
  2
MUX4
 10
100.0
 20
104.0
 30
0.0
  0
INSERT
  5
C47
330
BE1
100
AcDbEntity
  8
0
100
AcDbBlockReference
  2
MUX4
 10
100.0
 20
108.0
 30
0.0
  0
INSERT
  5
C49
330
BE1
100
AcDbEntity
  8
0
100
AcDbBlockReference
  2
MUX4
 10
100.0
 20
112.0
 30
0.0
  0
INSERT
  5
C4B
330
BE1
100
AcDbEntity
  8
0
100
AcDbBlockReference
  2
circle_pin
 10
0.0
 20
75.0
 30
0.0
  0
INSERT
  5
C4D
330
BE1
100
AcDbEntity
  8
0
100
AcDbBlockReference
  2
circle_pin
 10
150.0
 20
75.0
 30
0.0
  0
ENDBLK
  5
BE3
330
BE1
100
AcDbEntity
  8
0
100
AcDbBlockEnd
  0
BLOCK
  5
BE6
330
BE5
100
AcDbEntity
  8
0
100
AcDbBlockBegin
  2
LUT
 70
0
 10
0.0
 20
0.0
 30
0.0
  3
LUT
  1

  0
LWPOLYLINE
  5
BE8
330
BE5
100
AcDbEntity
  8
0
100
AcDbPolyline
 90
4
 70
1
 10
0.0
 20
0.0
 10
6.0
 20
0.0
 10
6.0
 20
10.0
 10
0.0
 20
10.0
  0
INSERT
  5
BED
330
BE5
100
AcDbEntity
  8
0
100
AcDbBlockReference
  2
left_pin
 10
0.0
 20
1.5
 30
0.0
  0
INSERT
  5
BF3
330
BE5
100
AcDbEntity
  8
0
100
AcDbBlockReference
  2
right_pin
 10
6.0
 20
3.0
 30
0.0
  0
INSERT
  5
BF5
330
BE5
100
AcDbEntity
  8
0
100
AcDbBlockReference
  2
right_pin
 10
6.0
 20
5.0
 30
0.0
  0
INSERT
  5
BF7
330
BE5
100
AcDbEntity
  8
0
100
AcDbBlockReference
  2
right_pin
 10
6.0
 20
7.0
 30
0.0
  0
ENDBLK
  5
BE7
330
BE5
100
AcDbEntity
  8
0
100
AcDbBlockEnd
  0
BLOCK
  5
BEA
330
BE9
100
AcDbEntity
  8
0
100
AcDbBlockBegin
  2
left_pin
 70
0
 10
0.0
 20
0.0
 30
0.0
  3
left_pin
  1

  0
LINE
  5
BEC
330
BE9
100
AcDbEntity
  8
0
100
AcDbLine
 10
0.0
 20
0.0
 30
0.0
 11
-1.0
 21
0.0
 31
0.0
  0
ENDBLK
  5
BEB
330
BE9
100
AcDbEntity
  8
0
100
AcDbBlockEnd
  0
BLOCK
  5
BF0
330
BEF
100
AcDbEntity
  8
0
100
AcDbBlockBegin
  2
right_pin
 70
0
 10
0.0
 20
0.0
 30
0.0
  3
right_pin
  1

  0
LINE
  5
BF2
330
BEF
100
AcDbEntity
  8
0
100
AcDbLine
 10
0.0
 20
0.0
 30
0.0
 11
1.0
 21
0.0
 31
0.0
  0
ENDBLK
  5
BF1
330
BEF
100
AcDbEntity
  8
0
100
AcDbBlockEnd
  0
BLOCK
  5
C0A
330
C09
100
AcDbEntity
  8
0
100
AcDbBlockBegin
  2
MUX2
 70
0
 10
0.0
 20
0.0
 30
0.0
  3
MUX2
  1

  0
LWPOLYLINE
  5
C0C
330
C09
100
AcDbEntity
  8
0
100
AcDbPolyline
 90
4
 70
1
 10
0.0
 20
0.0
 10
4.0
 20
1.0
 10
4.0
 20
4.0
 10
0.0
 20
5.0
  0
INSERT
  5
C0D
330
C09
100
AcDbEntity
  8
0
100
AcDbBlockReference
  2
left_pin
 10
0.0
 20
1.0
 30
0.0
  0
INSERT
  5
C0F
330
C09
100
AcDbEntity
  8
0
100
AcDbBlockReference
  2
right_pin
 10
4.0
 20
2.5
 30
0.0
  0
ENDBLK
  5
C0B
330
C09
100
AcDbEntity
  8
0
100
AcDbBlockEnd
  0
BLOCK
  5
C20
330
C1F
100
AcDbEntity
  8
0
100
AcDbBlockBegin
  2
CLA
 70
0
 10
0.0
 20
0.0
 30
0.0
  3
CLA
  1

  0
LWPOLYLINE
  5
C22
330
C1F
100
AcDbEntity
  8
0
100
AcDbPolyline
 90
4
 70
1
 10
0.0
 20
0.0
 10
10.0
 20
0.0
 10
10.0
 20
32.0
 10
0.0
 20
32.0
  0
INSERT
  5
C23
330
C1F
100
AcDbEntity
  8
0
100
AcDbBlockReference
  2
left_pin
 10
0.0
 20
2.0
 30
0.0
  0
INSERT
  5
C25
330
C1F
100
AcDbEntity
  8
0
100
AcDbBlockReference
  2
left_pin
 10
0.0
 20
6.0
 30
0.0
  0
INSERT
  5
C27
330
C1F
100
AcDbEntity
  8
0
100
AcDbBlockReference
  2
right_pin
 10
10.0
 20
2.0
 30
0.0
  0
INSERT
  5
C29
330
C1F
100
AcDbEntity
  8
0
100
AcDbBlockReference
  2
right_pin
 10
10.0
 20
6.0
 30
0.0
  0
INSERT
  5
C2F
330
C1F
100
AcDbEntity
  8
0
100
AcDbBlockReference
  2
up_pin
 10
5.0
 20
32.0
 30
0.0
  0
INSERT
  5
C35
330
C1F
100
AcDbEntity
  8
0
100
AcDbBlockReference
  2
down_pin
 10
5.0
 20
0.0
 30
0.0
  0
ENDBLK
  5
C21
330
C1F
100
AcDbEntity
  8
0
100
AcDbBlockEnd
  0
BLOCK
  5
C2C
330
C2B
100
AcDbEntity
  8
0
100
AcDbBlockBegin
  2
up_pin
 70
0
 10
0.0
 20
0.0
 30
0.0
  3
up_pin
  1

  0
LINE
  5
C2E
330
C2B
100
AcDbEntity
  8
0
100
AcDbLine
 10
0.0
 20
0.0
 30
0.0
 11
0.0
 21
1.0
 31
0.0
  0
ENDBLK
  5
C2D
330
C2B
100
AcDbEntity
  8
0
100
AcDbBlockEnd
  0
BLOCK
  5
C32
330
C31
100
AcDbEntity
  8
0
100
AcDbBlockBegin
  2
down_pin
 70
0
 10
0.0
 20
0.0
 30
0.0
  3
down_pin
  1

  0
LINE
  5
C34
330
C31
100
AcDbEntity
  8
0
100
AcDbLine
 10
0.0
 20
0.0
 30
0.0
 11
0.0
 21
-1.0
 31
0.0
  0
ENDBLK
  5
C33
330
C31
100
AcDbEntity
  8
0
100
AcDbBlockEnd
  0
BLOCK
  5
C3C
330
C3B
100
AcDbEntity
  8
0
100
AcDbBlockBegin
  2
MUX4
 70
0
 10
0.0
 20
0.0
 30
0.0
  3
MUX4
  1

  0
LWPOLYLINE
  5
C3E
330
C3B
100
AcDbEntity
  8
0
100
AcDbPolyline
 90
4
 70
1
 10
0.0
 20
0.0
 10
3.0
 20
1.0
 10
3.0
 20
3.0
 10
0.0
 20
4.0
  0
INSERT
  5
C3F
330
C3B
100
AcDbEntity
  8
0
100
AcDbBlockReference
  2
left_pin
 10
0.0
 20
1.0
 30
0.0
  0
INSERT
  5
C41
330
C3B
100
AcDbEntity
  8
0
100
AcDbBlockReference
  2
right_pin
 10
3.0
 20
2.0
 30
0.0
  0
ENDBLK
  5
C3D
330
C3B
100
AcDbEntity
  8
0
100
AcDbBlockEnd
  0
ENDSEC
  0
SECTION
  2
ENTITIES
  0
INSERT
  5
581
330
17
100
AcDbEntity
  8
0
100
AcDbBlockReference
  2
SWH_W
 10
0.0
 20
0.0
 30
0.0
  0
INSERT
  5
583
330
17
100
AcDbEntity
  8
0
100
AcDbBlockReference
  2
SWH_W
 10
0.0
 20
3000.0
 30
0.0
  0
INSERT
  5
585
330
17
100
AcDbEntity
  8
0
100
AcDbBlockReference
  2
SWH_W
 10
0.0
 20
6000.0
 30
0.0
  0
INSERT
  5
587
330
17
100
AcDbEntity
  8
0
100
AcDbBlockReference
  2
SWH_W
 10
0.0
 20
9000.0
 30
0.0
  0
INSERT
  5
589
330
17
100
AcDbEntity
  8
0
100
AcDbBlockReference
  2
SWH_W
 10
0.0
 20
12000.0
 30
0.0
  0
INSERT
  5
58B
330
17
100
AcDbEntity
  8
0
100
AcDbBlockReference
  2
SWH_W
 10
0.0
 20
15000.0
 30
0.0
  0
INSERT
  5
58D
330
17
100
AcDbEntity
  8
0
100
AcDbBlockReference
  2
SWH_W
 10
0.0
 20
18000.0
 30
0.0
  0
INSERT
  5
58F
330
17
100
AcDbEntity
  8
0
100
AcDbBlockReference
  2
SWH_W
 10
0.0
 20
21000.0
 30
0.0
  0
INSERT
  5
591
330
17
100
AcDbEntity
  8
0
100
AcDbBlockReference
  2
SWH_W
 10
0.0
 20
24000.0
 30
0.0
  0
INSERT
  5
593
330
17
100
AcDbEntity
  8
0
100
AcDbBlockReference
  2
SWH_W
 10
0.0
 20
27000.0
 30
0.0
  0
INSERT
  5
595
330
17
100
AcDbEntity
  8
0
100
AcDbBlockReference
  2
SWH_W
 10
0.0
 20
30000.0
 30
0.0
  0
INSERT
  5
597
330
17
100
AcDbEntity
  8
0
100
AcDbBlockReference
  2
SWH_W
 10
0.0
 20
33000.0
 30
0.0
  0
INSERT
  5
599
330
17
100
AcDbEntity
  8
0
100
AcDbBlockReference
  2
SWH_W
 10
12000.0
 20
0.0
 30
0.0
  0
INSERT
  5
59B
330
17
100
AcDbEntity
  8
0
100
AcDbBlockReference
  2
SWH_W
 10
12000.0
 20
3000.0
 30
0.0
  0
INSERT
  5
59D
330
17
100
AcDbEntity
  8
0
100
AcDbBlockReference
  2
SWH_W
 10
12000.0
 20
6000.0
 30
0.0
  0
INSERT
  5
59F
330
17
100
AcDbEntity
  8
0
100
AcDbBlockReference
  2
SWH_W
 10
12000.0
 20
9000.0
 30
0.0
  0
INSERT
  5
5A1
330
17
100
AcDbEntity
  8
0
100
AcDbBlockReference
  2
SWH_W
 10
12000.0
 20
12000.0
 30
0.0
  0
INSERT
  5
5A3
330
17
100
AcDbEntity
  8
0
100
AcDbBlockReference
  2
SWH_W
 10
12000.0
 20
15000.0
 30
0.0
  0
INSERT
  5
5A5
330
17
100
AcDbEntity
  8
0
100
AcDbBlockReference
  2
SWH_W
 10
12000.0
 20
18000.0
 30
0.0
  0
INSERT
  5
5A7
330
17
100
AcDbEntity
  8
0
100
AcDbBlockReference
  2
SWH_W
 10
12000.0
 20
21000.0
 30
0.0
  0
INSERT
  5
5A9
330
17
100
AcDbEntity
  8
0
100
AcDbBlockReference
  2
SWH_W
 10
12000.0
 20
24000.0
 30
0.0
  0
INSERT
  5
5AB
330
17
100
AcDbEntity
  8
0
100
AcDbBlockReference
  2
SWH_W
 10
12000.0
 20
27000.0
 30
0.0
  0
INSERT
  5
5AD
330
17
100
AcDbEntity
  8
0
100
AcDbBlockReference
  2
SWH_W
 10
12000.0
 20
30000.0
 30
0.0
  0
INSERT
  5
5AF
330
17
100
AcDbEntity
  8
0
100
AcDbBlockReference
  2
SWH_W
 10
12000.0
 20
33000.0
 30
0.0
  0
INSERT
  5
5B1
330
17
100
AcDbEntity
  8
0
100
AcDbBlockReference
  2
SWH_W
 10
24000.0
 20
0.0
 30
0.0
  0
INSERT
  5
5B3
330
17
100
AcDbEntity
  8
0
100
AcDbBlockReference
  2
SWH_W
 10
24000.0
 20
3000.0
 30
0.0
  0
INSERT
  5
5B5
330
17
100
AcDbEntity
  8
0
100
AcDbBlockReference
  2
SWH_W
 10
24000.0
 20
6000.0
 30
0.0
  0
INSERT
  5
5B7
330
17
100
AcDbEntity
  8
0
100
AcDbBlockReference
  2
SWH_W
 10
24000.0
 20
9000.0
 30
0.0
  0
INSERT
  5
5B9
330
17
100
AcDbEntity
  8
0
100
AcDbBlockReference
  2
SWH_W
 10
24000.0
 20
12000.0
 30
0.0
  0
INSERT
  5
5BB
330
17
100
AcDbEntity
  8
0
100
AcDbBlockReference
  2
SWH_W
 10
24000.0
 20
15000.0
 30
0.0
  0
INSERT
  5
5BD
330
17
100
AcDbEntity
  8
0
100
AcDbBlockReference
  2
SWH_W
 10
24000.0
 20
18000.0
 30
0.0
  0
INSERT
  5
5BF
330
17
100
AcDbEntity
  8
0
100
AcDbBlockReference
  2
SWH_W
 10
24000.0
 20
21000.0
 30
0.0
  0
INSERT
  5
5C1
330
17
100
AcDbEntity
  8
0
100
AcDbBlockReference
  2
SWH_W
 10
24000.0
 20
24000.0
 30
0.0
  0
INSERT
  5
5C3
330
17
100
AcDbEntity
  8
0
100
AcDbBlockReference
  2
SWH_W
 10
24000.0
 20
27000.0
 30
0.0
  0
INSERT
  5
5C5
330
17
100
AcDbEntity
  8
0
100
AcDbBlockReference
  2
SWH_W
 10
24000.0
 20
30000.0
 30
0.0
  0
INSERT
  5
5C7
330
17
100
AcDbEntity
  8
0
100
AcDbBlockReference
  2
SWH_W
 10
24000.0
 20
33000.0
 30
0.0
  0
INSERT
  5
5C9
330
17
100
AcDbEntity
  8
0
100
AcDbBlockReference
  2
SWH_W
 10
36000.0
 20
0.0
 30
0.0
  0
INSERT
  5
5CB
330
17
100
AcDbEntity
  8
0
100
AcDbBlockReference
  2
SWH_W
 10
36000.0
 20
3000.0
 30
0.0
  0
INSERT
  5
5CD
330
17
100
AcDbEntity
  8
0
100
AcDbBlockReference
  2
SWH_W
 10
36000.0
 20
6000.0
 30
0.0
  0
INSERT
  5
5CF
330
17
100
AcDbEntity
  8
0
100
AcDbBlockReference
  2
SWH_W
 10
36000.0
 20
9000.0
 30
0.0
  0
INSERT
  5
5D1
330
17
100
AcDbEntity
  8
0
100
AcDbBlockReference
  2
SWH_W
 10
36000.0
 20
12000.0
 30
0.0
  0
INSERT
  5
5D3
330
17
100
AcDbEntity
  8
0
100
AcDbBlockReference
  2
SWH_W
 10
36000.0
 20
15000.0
 30
0.0
  0
INSERT
  5
5D5
330
17
100
AcDbEntity
  8
0
100
AcDbBlockReference
  2
SWH_W
 10
36000.0
 20
18000.0
 30
0.0
  0
INSERT
  5
5D7
330
17
100
AcDbEntity
  8
0
100
AcDbBlockReference
  2
SWH_W
 10
36000.0
 20
21000.0
 30
0.0
  0
INSERT
  5
5D9
330
17
100
AcDbEntity
  8
0
100
AcDbBlockReference
  2
SWH_W
 10
36000.0
 20
24000.0
 30
0.0
  0
INSERT
  5
5DB
330
17
100
AcDbEntity
  8
0
100
AcDbBlockReference
  2
SWH_W
 10
36000.0
 20
27000.0
 30
0.0
  0
INSERT
  5
5DD
330
17
100
AcDbEntity
  8
0
100
AcDbBlockReference
  2
SWH_W
 10
36000.0
 20
30000.0
 30
0.0
  0
INSERT
  5
5DF
330
17
100
AcDbEntity
  8
0
100
AcDbBlockReference
  2
SWH_W
 10
36000.0
 20
33000.0
 30
0.0
  0
INSERT
  5
5E1
330
17
100
AcDbEntity
  8
0
100
AcDbBlockReference
  2
SWH_W
 10
48000.0
 20
0.0
 30
0.0
  0
INSERT
  5
5E3
330
17
100
AcDbEntity
  8
0
100
AcDbBlockReference
  2
SWH_W
 10
48000.0
 20
3000.0
 30
0.0
  0
INSERT
  5
5E5
330
17
100
AcDbEntity
  8
0
100
AcDbBlockReference
  2
SWH_W
 10
48000.0
 20
6000.0
 30
0.0
  0
INSERT
  5
5E7
330
17
100
AcDbEntity
  8
0
100
AcDbBlockReference
  2
SWH_W
 10
48000.0
 20
9000.0
 30
0.0
  0
INSERT
  5
5E9
330
17
100
AcDbEntity
  8
0
100
AcDbBlockReference
  2
SWH_W
 10
48000.0
 20
12000.0
 30
0.0
  0
INSERT
  5
5EB
330
17
100
AcDbEntity
  8
0
100
AcDbBlockReference
  2
SWH_W
 10
48000.0
 20
15000.0
 30
0.0
  0
INSERT
  5
5ED
330
17
100
AcDbEntity
  8
0
100
AcDbBlockReference
  2
SWH_W
 10
48000.0
 20
18000.0
 30
0.0
  0
INSERT
  5
5EF
330
17
100
AcDbEntity
  8
0
100
AcDbBlockReference
  2
SWH_W
 10
48000.0
 20
21000.0
 30
0.0
  0
INSERT
  5
5F1
330
17
100
AcDbEntity
  8
0
100
AcDbBlockReference
  2
SWH_W
 10
48000.0
 20
24000.0
 30
0.0
  0
INSERT
  5
5F3
330
17
100
AcDbEntity
  8
0
100
AcDbBlockReference
  2
SWH_W
 10
48000.0
 20
27000.0
 30
0.0
  0
INSERT
  5
5F5
330
17
100
AcDbEntity
  8
0
100
AcDbBlockReference
  2
SWH_W
 10
48000.0
 20
30000.0
 30
0.0
  0
INSERT
  5
5F7
330
17
100
AcDbEntity
  8
0
100
AcDbBlockReference
  2
SWH_W
 10
48000.0
 20
33000.0
 30
0.0
  0
INSERT
  5
5F9
330
17
100
AcDbEntity
  8
0
100
AcDbBlockReference
  2
SWH_W
 10
60000.0
 20
0.0
 30
0.0
  0
INSERT
  5
5FB
330
17
100
AcDbEntity
  8
0
100
AcDbBlockReference
  2
SWH_W
 10
60000.0
 20
3000.0
 30
0.0
  0
INSERT
  5
5FD
330
17
100
AcDbEntity
  8
0
100
AcDbBlockReference
  2
SWH_W
 10
60000.0
 20
6000.0
 30
0.0
  0
INSERT
  5
5FF
330
17
100
AcDbEntity
  8
0
100
AcDbBlockReference
  2
SWH_W
 10
60000.0
 20
9000.0
 30
0.0
  0
INSERT
  5
601
330
17
100
AcDbEntity
  8
0
100
AcDbBlockReference
  2
SWH_W
 10
60000.0
 20
12000.0
 30
0.0
  0
INSERT
  5
603
330
17
100
AcDbEntity
  8
0
100
AcDbBlockReference
  2
SWH_W
 10
60000.0
 20
15000.0
 30
0.0
  0
INSERT
  5
605
330
17
100
AcDbEntity
  8
0
100
AcDbBlockReference
  2
SWH_W
 10
60000.0
 20
18000.0
 30
0.0
  0
INSERT
  5
607
330
17
100
AcDbEntity
  8
0
100
AcDbBlockReference
  2
SWH_W
 10
60000.0
 20
21000.0
 30
0.0
  0
INSERT
  5
609
330
17
100
AcDbEntity
  8
0
100
AcDbBlockReference
  2
SWH_W
 10
60000.0
 20
24000.0
 30
0.0
  0
INSERT
  5
60B
330
17
100
AcDbEntity
  8
0
100
AcDbBlockReference
  2
SWH_W
 10
60000.0
 20
27000.0
 30
0.0
  0
INSERT
  5
60D
330
17
100
AcDbEntity
  8
0
100
AcDbBlockReference
  2
SWH_W
 10
60000.0
 20
30000.0
 30
0.0
  0
INSERT
  5
60F
330
17
100
AcDbEntity
  8
0
100
AcDbBlockReference
  2
SWH_W
 10
60000.0
 20
33000.0
 30
0.0
  0
INSERT
  5
B4D
330
17
100
AcDbEntity
  8
0
100
AcDbBlockReference
  2
SWH_E
 10
3000.0
 20
0.0
 30
0.0
  0
INSERT
  5
B4F
330
17
100
AcDbEntity
  8
0
100
AcDbBlockReference
  2
SWH_E
 10
3000.0
 20
3000.0
 30
0.0
  0
INSERT
  5
B51
330
17
100
AcDbEntity
  8
0
100
AcDbBlockReference
  2
SWH_E
 10
3000.0
 20
6000.0
 30
0.0
  0
INSERT
  5
B53
330
17
100
AcDbEntity
  8
0
100
AcDbBlockReference
  2
SWH_E
 10
3000.0
 20
9000.0
 30
0.0
  0
INSERT
  5
B55
330
17
100
AcDbEntity
  8
0
100
AcDbBlockReference
  2
SWH_E
 10
3000.0
 20
12000.0
 30
0.0
  0
INSERT
  5
B57
330
17
100
AcDbEntity
  8
0
100
AcDbBlockReference
  2
SWH_E
 10
3000.0
 20
15000.0
 30
0.0
  0
INSERT
  5
B59
330
17
100
AcDbEntity
  8
0
100
AcDbBlockReference
  2
SWH_E
 10
3000.0
 20
18000.0
 30
0.0
  0
INSERT
  5
B5B
330
17
100
AcDbEntity
  8
0
100
AcDbBlockReference
  2
SWH_E
 10
3000.0
 20
21000.0
 30
0.0
  0
INSERT
  5
B5D
330
17
100
AcDbEntity
  8
0
100
AcDbBlockReference
  2
SWH_E
 10
3000.0
 20
24000.0
 30
0.0
  0
INSERT
  5
B5F
330
17
100
AcDbEntity
  8
0
100
AcDbBlockReference
  2
SWH_E
 10
3000.0
 20
27000.0
 30
0.0
  0
INSERT
  5
B61
330
17
100
AcDbEntity
  8
0
100
AcDbBlockReference
  2
SWH_E
 10
3000.0
 20
30000.0
 30
0.0
  0
INSERT
  5
B63
330
17
100
AcDbEntity
  8
0
100
AcDbBlockReference
  2
SWH_E
 10
3000.0
 20
33000.0
 30
0.0
  0
INSERT
  5
B65
330
17
100
AcDbEntity
  8
0
100
AcDbBlockReference
  2
SWH_E
 10
15000.0
 20
0.0
 30
0.0
  0
INSERT
  5
B67
330
17
100
AcDbEntity
  8
0
100
AcDbBlockReference
  2
SWH_E
 10
15000.0
 20
3000.0
 30
0.0
  0
INSERT
  5
B69
330
17
100
AcDbEntity
  8
0
100
AcDbBlockReference
  2
SWH_E
 10
15000.0
 20
6000.0
 30
0.0
  0
INSERT
  5
B6B
330
17
100
AcDbEntity
  8
0
100
AcDbBlockReference
  2
SWH_E
 10
15000.0
 20
9000.0
 30
0.0
  0
INSERT
  5
B6D
330
17
100
AcDbEntity
  8
0
100
AcDbBlockReference
  2
SWH_E
 10
15000.0
 20
12000.0
 30
0.0
  0
INSERT
  5
B6F
330
17
100
AcDbEntity
  8
0
100
AcDbBlockReference
  2
SWH_E
 10
15000.0
 20
15000.0
 30
0.0
  0
INSERT
  5
B71
330
17
100
AcDbEntity
  8
0
100
AcDbBlockReference
  2
SWH_E
 10
15000.0
 20
18000.0
 30
0.0
  0
INSERT
  5
B73
330
17
100
AcDbEntity
  8
0
100
AcDbBlockReference
  2
SWH_E
 10
15000.0
 20
21000.0
 30
0.0
  0
INSERT
  5
B75
330
17
100
AcDbEntity
  8
0
100
AcDbBlockReference
  2
SWH_E
 10
15000.0
 20
24000.0
 30
0.0
  0
INSERT
  5
B77
330
17
100
AcDbEntity
  8
0
100
AcDbBlockReference
  2
SWH_E
 10
15000.0
 20
27000.0
 30
0.0
  0
INSERT
  5
B79
330
17
100
AcDbEntity
  8
0
100
AcDbBlockReference
  2
SWH_E
 10
15000.0
 20
30000.0
 30
0.0
  0
INSERT
  5
B7B
330
17
100
AcDbEntity
  8
0
100
AcDbBlockReference
  2
SWH_E
 10
15000.0
 20
33000.0
 30
0.0
  0
INSERT
  5
B7D
330
17
100
AcDbEntity
  8
0
100
AcDbBlockReference
  2
SWH_E
 10
27000.0
 20
0.0
 30
0.0
  0
INSERT
  5
B7F
330
17
100
AcDbEntity
  8
0
100
AcDbBlockReference
  2
SWH_E
 10
27000.0
 20
3000.0
 30
0.0
  0
INSERT
  5
B81
330
17
100
AcDbEntity
  8
0
100
AcDbBlockReference
  2
SWH_E
 10
27000.0
 20
6000.0
 30
0.0
  0
INSERT
  5
B83
330
17
100
AcDbEntity
  8
0
100
AcDbBlockReference
  2
SWH_E
 10
27000.0
 20
9000.0
 30
0.0
  0
INSERT
  5
B85
330
17
100
AcDbEntity
  8
0
100
AcDbBlockReference
  2
SWH_E
 10
27000.0
 20
12000.0
 30
0.0
  0
INSERT
  5
B87
330
17
100
AcDbEntity
  8
0
100
AcDbBlockReference
  2
SWH_E
 10
27000.0
 20
15000.0
 30
0.0
  0
INSERT
  5
B89
330
17
100
AcDbEntity
  8
0
100
AcDbBlockReference
  2
SWH_E
 10
27000.0
 20
18000.0
 30
0.0
  0
INSERT
  5
B8B
330
17
100
AcDbEntity
  8
0
100
AcDbBlockReference
  2
SWH_E
 10
27000.0
 20
21000.0
 30
0.0
  0
INSERT
  5
B8D
330
17
100
AcDbEntity
  8
0
100
AcDbBlockReference
  2
SWH_E
 10
27000.0
 20
24000.0
 30
0.0
  0
INSERT
  5
B8F
330
17
100
AcDbEntity
  8
0
100
AcDbBlockReference
  2
SWH_E
 10
27000.0
 20
27000.0
 30
0.0
  0
INSERT
  5
B91
330
17
100
AcDbEntity
  8
0
100
AcDbBlockReference
  2
SWH_E
 10
27000.0
 20
30000.0
 30
0.0
  0
INSERT
  5
B93
330
17
100
AcDbEntity
  8
0
100
AcDbBlockReference
  2
SWH_E
 10
27000.0
 20
33000.0
 30
0.0
  0
INSERT
  5
B95
330
17
100
AcDbEntity
  8
0
100
AcDbBlockReference
  2
SWH_E
 10
39000.0
 20
0.0
 30
0.0
  0
INSERT
  5
B97
330
17
100
AcDbEntity
  8
0
100
AcDbBlockReference
  2
SWH_E
 10
39000.0
 20
3000.0
 30
0.0
  0
INSERT
  5
B99
330
17
100
AcDbEntity
  8
0
100
AcDbBlockReference
  2
SWH_E
 10
39000.0
 20
6000.0
 30
0.0
  0
INSERT
  5
B9B
330
17
100
AcDbEntity
  8
0
100
AcDbBlockReference
  2
SWH_E
 10
39000.0
 20
9000.0
 30
0.0
  0
INSERT
  5
B9D
330
17
100
AcDbEntity
  8
0
100
AcDbBlockReference
  2
SWH_E
 10
39000.0
 20
12000.0
 30
0.0
  0
INSERT
  5
B9F
330
17
100
AcDbEntity
  8
0
100
AcDbBlockReference
  2
SWH_E
 10
39000.0
 20
15000.0
 30
0.0
  0
INSERT
  5
BA1
330
17
100
AcDbEntity
  8
0
100
AcDbBlockReference
  2
SWH_E
 10
39000.0
 20
18000.0
 30
0.0
  0
INSERT
  5
BA3
330
17
100
AcDbEntity
  8
0
100
AcDbBlockReference
  2
SWH_E
 10
39000.0
 20
21000.0
 30
0.0
  0
INSERT
  5
BA5
330
17
100
AcDbEntity
  8
0
100
AcDbBlockReference
  2
SWH_E
 10
39000.0
 20
24000.0
 30
0.0
  0
INSERT
  5
BA7
330
17
100
AcDbEntity
  8
0
100
AcDbBlockReference
  2
SWH_E
 10
39000.0
 20
27000.0
 30
0.0
  0
INSERT
  5
BA9
330
17
100
AcDbEntity
  8
0
100
AcDbBlockReference
  2
SWH_E
 10
39000.0
 20
30000.0
 30
0.0
  0
INSERT
  5
BAB
330
17
100
AcDbEntity
  8
0
100
AcDbBlockReference
  2
SWH_E
 10
39000.0
 20
33000.0
 30
0.0
  0
INSERT
  5
BAD
330
17
100
AcDbEntity
  8
0
100
AcDbBlockReference
  2
SWH_E
 10
51000.0
 20
0.0
 30
0.0
  0
INSERT
  5
BAF
330
17
100
AcDbEntity
  8
0
100
AcDbBlockReference
  2
SWH_E
 10
51000.0
 20
3000.0
 30
0.0
  0
INSERT
  5
BB1
330
17
100
AcDbEntity
  8
0
100
AcDbBlockReference
  2
SWH_E
 10
51000.0
 20
6000.0
 30
0.0
  0
INSERT
  5
BB3
330
17
100
AcDbEntity
  8
0
100
AcDbBlockReference
  2
SWH_E
 10
51000.0
 20
9000.0
 30
0.0
  0
INSERT
  5
BB5
330
17
100
AcDbEntity
  8
0
100
AcDbBlockReference
  2
SWH_E
 10
51000.0
 20
12000.0
 30
0.0
  0
INSERT
  5
BB7
330
17
100
AcDbEntity
  8
0
100
AcDbBlockReference
  2
SWH_E
 10
51000.0
 20
15000.0
 30
0.0
  0
INSERT
  5
BB9
330
17
100
AcDbEntity
  8
0
100
AcDbBlockReference
  2
SWH_E
 10
51000.0
 20
18000.0
 30
0.0
  0
INSERT
  5
BBB
330
17
100
AcDbEntity
  8
0
100
AcDbBlockReference
  2
SWH_E
 10
51000.0
 20
21000.0
 30
0.0
  0
INSERT
  5
BBD
330
17
100
AcDbEntity
  8
0
100
AcDbBlockReference
  2
SWH_E
 10
51000.0
 20
24000.0
 30
0.0
  0
INSERT
  5
BBF
330
17
100
AcDbEntity
  8
0
100
AcDbBlockReference
  2
SWH_E
 10
51000.0
 20
27000.0
 30
0.0
  0
INSERT
  5
BC1
330
17
100
AcDbEntity
  8
0
100
AcDbBlockReference
  2
SWH_E
 10
51000.0
 20
30000.0
 30
0.0
  0
INSERT
  5
BC3
330
17
100
AcDbEntity
  8
0
100
AcDbBlockReference
  2
SWH_E
 10
51000.0
 20
33000.0
 30
0.0
  0
INSERT
  5
BC5
330
17
100
AcDbEntity
  8
0
100
AcDbBlockReference
  2
SWH_E
 10
63000.0
 20
0.0
 30
0.0
  0
INSERT
  5
BC7
330
17
100
AcDbEntity
  8
0
100
AcDbBlockReference
  2
SWH_E
 10
63000.0
 20
3000.0
 30
0.0
  0
INSERT
  5
BC9
330
17
100
AcDbEntity
  8
0
100
AcDbBlockReference
  2
SWH_E
 10
63000.0
 20
6000.0
 30
0.0
  0
INSERT
  5
BCB
330
17
100
AcDbEntity
  8
0
100
AcDbBlockReference
  2
SWH_E
 10
63000.0
 20
9000.0
 30
0.0
  0
INSERT
  5
BCD
330
17
100
AcDbEntity
  8
0
100
AcDbBlockReference
  2
SWH_E
 10
63000.0
 20
12000.0
 30
0.0
  0
INSERT
  5
BCF
330
17
100
AcDbEntity
  8
0
100
AcDbBlockReference
  2
SWH_E
 10
63000.0
 20
15000.0
 30
0.0
  0
INSERT
  5
BD1
330
17
100
AcDbEntity
  8
0
100
AcDbBlockReference
  2
SWH_E
 10
63000.0
 20
18000.0
 30
0.0
  0
INSERT
  5
BD3
330
17
100
AcDbEntity
  8
0
100
AcDbBlockReference
  2
SWH_E
 10
63000.0
 20
21000.0
 30
0.0
  0
INSERT
  5
BD5
330
17
100
AcDbEntity
  8
0
100
AcDbBlockReference
  2
SWH_E
 10
63000.0
 20
24000.0
 30
0.0
  0
INSERT
  5
BD7
330
17
100
AcDbEntity
  8
0
100
AcDbBlockReference
  2
SWH_E
 10
63000.0
 20
27000.0
 30
0.0
  0
INSERT
  5
BD9
330
17
100
AcDbEntity
  8
0
100
AcDbBlockReference
  2
SWH_E
 10
63000.0
 20
30000.0
 30
0.0
  0
INSERT
  5
BDB
330
17
100
AcDbEntity
  8
0
100
AcDbBlockReference
  2
SWH_E
 10
63000.0
 20
33000.0
 30
0.0
  0
INSERT
  5
C55
330
17
100
AcDbEntity
  8
0
100
AcDbBlockReference
  2
CLCL
 10
6000.0
 20
0.0
 30
0.0
  0
INSERT
  5
C57
330
17
100
AcDbEntity
  8
0
100
AcDbBlockReference
  2
CLCL
 10
6000.0
 20
3000.0
 30
0.0
  0
INSERT
  5
C59
330
17
100
AcDbEntity
  8
0
100
AcDbBlockReference
  2
CLCL
 10
6000.0
 20
6000.0
 30
0.0
  0
INSERT
  5
C5B
330
17
100
AcDbEntity
  8
0
100
AcDbBlockReference
  2
CLCL
 10
6000.0
 20
9000.0
 30
0.0
  0
INSERT
  5
C5D
330
17
100
AcDbEntity
  8
0
100
AcDbBlockReference
  2
CLCL
 10
6000.0
 20
12000.0
 30
0.0
  0
INSERT
  5
C5F
330
17
100
AcDbEntity
  8
0
100
AcDbBlockReference
  2
CLCL
 10
6000.0
 20
15000.0
 30
0.0
  0
INSERT
  5
C61
330
17
100
AcDbEntity
  8
0
100
AcDbBlockReference
  2
CLCL
 10
9000.0
 20
0.0
 30
0.0
  0
INSERT
  5
C63
330
17
100
AcDbEntity
  8
0
100
AcDbBlockReference
  2
CLCL
 10
9000.0
 20
3000.0
 30
0.0
  0
INSERT
  5
C65
330
17
100
AcDbEntity
  8
0
100
AcDbBlockReference
  2
CLCL
 10
9000.0
 20
6000.0
 30
0.0
  0
INSERT
  5
C67
330
17
100
AcDbEntity
  8
0
100
AcDbBlockReference
  2
CLCL
 10
9000.0
 20
9000.0
 30
0.0
  0
INSERT
  5
C69
330
17
100
AcDbEntity
  8
0
100
AcDbBlockReference
  2
CLCL
 10
9000.0
 20
12000.0
 30
0.0
  0
INSERT
  5
C6B
330
17
100
AcDbEntity
  8
0
100
AcDbBlockReference
  2
CLCL
 10
9000.0
 20
15000.0
 30
0.0
  0
ENDSEC
  0
SECTION
  2
OBJECTS
  0
DICTIONARY
  5
A
330
0
100
AcDbDictionary
280
0
281
1
  3
ACAD_COLOR
350
B
  3
ACAD_GROUP
350
C
  3
ACAD_LAYOUT
350
D
  3
ACAD_MATERIAL
350
E
  3
ACAD_MLEADERSTYLE
350
F
  3
ACAD_MLINESTYLE
350
10
  3
ACAD_PLOTSETTINGS
350
11
  3
ACAD_PLOTSTYLENAME
350
12
  3
ACAD_SCALELIST
350
14
  3
ACAD_TABLESTYLE
350
15
  3
ACAD_VISUALSTYLE
350
16
  3
EZDXF_META
350
2D
  0
DICTIONARY
  5
B
330
A
100
AcDbDictionary
280
0
281
1
  0
DICTIONARY
  5
C
330
A
100
AcDbDictionary
280
0
281
1
  0
DICTIONARY
  5
D
330
A
100
AcDbDictionary
280
0
281
1
  3
Model
350
1A
  3
Layout1
350
1E
  0
DICTIONARY
  5
E
330
A
100
AcDbDictionary
280
0
281
1
  3
ByBlock
350
1F
  3
ByLayer
350
20
  3
Global
350
21
  0
DICTIONARY
  5
F
330
A
100
AcDbDictionary
280
0
281
1
  3
Standard
350
2C
  0
DICTIONARY
  5
10
330
A
100
AcDbDictionary
280
0
281
1
  3
Standard
350
22
  0
DICTIONARY
  5
11
330
A
100
AcDbDictionary
280
0
281
1
  0
ACDBDICTIONARYWDFLT
  5
12
330
A
100
AcDbDictionary
280
0
281
1
  3
Normal
350
13
100
AcDbDictionaryWithDefault
340
13
  0
ACDBPLACEHOLDER
  5
13
330
12
  0
DICTIONARY
  5
14
330
A
100
AcDbDictionary
280
0
281
1
  0
DICTIONARY
  5
15
330
A
100
AcDbDictionary
280
0
281
1
  0
DICTIONARY
  5
16
330
A
100
AcDbDictionary
280
0
281
1
  0
LAYOUT
  5
1A
330
D
100
AcDbPlotSettings
  1

  2
Adobe PDF
  4
A3
  6

 40
7.5
 41
20.0
 42
7.5
 43
20.0
 44
420.0
 45
297.0
 46
0.0
 47
0.0
 48
0.0
 49
0.0
140
0.0
141
0.0
142
1.0
143
1.0
 70
1024
 72
1
 73
0
 74
5
  7

 75
16
 76
0
 77
2
 78
300
147
1.0
148
0.0
149
0.0
100
AcDbLayout
  1
Model
 70
1
 71
0
 10
0.0
 20
0.0
 11
420.0
 21
297.0
 12
0.0
 22
0.0
 32
0.0
 14
1e+20
 24
1e+20
 34
1e+20
 15
-1e+20
 25
-1e+20
 35
-1e+20
146
0.0
 13
0.0
 23
0.0
 33
0.0
 16
1.0
 26
0.0
 36
0.0
 17
0.0
 27
1.0
 37
0.0
 76
1
330
17
  0
LAYOUT
  5
1E
330
D
100
AcDbPlotSettings
  1

  2
Adobe PDF
  4
A3
  6

 40
7.5
 41
20.0
 42
7.5
 43
20.0
 44
420.0
 45
297.0
 46
0.0
 47
0.0
 48
0.0
 49
0.0
140
0.0
141
0.0
142
1.0
143
1.0
 70
0
 72
1
 73
0
 74
5
  7

 75
16
 76
0
 77
2
 78
300
147
1.0
148
0.0
149
0.0
100
AcDbLayout
  1
Layout1
 70
1
 71
1
 10
0.0
 20
0.0
 11
420.0
 21
297.0
 12
0.0
 22
0.0
 32
0.0
 14
1e+20
 24
1e+20
 34
1e+20
 15
-1e+20
 25
-1e+20
 35
-1e+20
146
0.0
 13
0.0
 23
0.0
 33
0.0
 16
1.0
 26
0.0
 36
0.0
 17
0.0
 27
1.0
 37
0.0
 76
1
330
1B
  0
MATERIAL
  5
1F
102
{ACAD_REACTORS
330
E
102
}
330
E
100
AcDbMaterial
  1
ByBlock
  2

 70
0
 40
1.0
 71
1
 41
1.0
 91
-1023410177
 42
1.0
 72
1
  3

 73
1
 74
1
 75
1
 44
0.5
 73
0
 45
1.0
 46
1.0
 77
1
  4

 78
1
 79
1
170
1
 48
1.0
171
1
  6

172
1
173
1
174
1
140
1.0
141
1.0
175
1
  7

176
1
177
1
178
1
143
1.0
179
1
  8

270
1
271
1
272
1
145
1.0
146
1.0
273
1
  9

274
1
275
1
276
1
 42
1.0
 72
1
  3

 73
1
 74
1
 75
1
 94
63
  0
MATERIAL
  5
20
102
{ACAD_REACTORS
330
E
102
}
330
E
100
AcDbMaterial
  1
ByLayer
  2

 70
0
 40
1.0
 71
1
 41
1.0
 91
-1023410177
 42
1.0
 72
1
  3

 73
1
 74
1
 75
1
 44
0.5
 73
0
 45
1.0
 46
1.0
 77
1
  4

 78
1
 79
1
170
1
 48
1.0
171
1
  6

172
1
173
1
174
1
140
1.0
141
1.0
175
1
  7

176
1
177
1
178
1
143
1.0
179
1
  8

270
1
271
1
272
1
145
1.0
146
1.0
273
1
  9

274
1
275
1
276
1
 42
1.0
 72
1
  3

 73
1
 74
1
 75
1
 94
63
  0
MATERIAL
  5
21
102
{ACAD_REACTORS
330
E
102
}
330
E
100
AcDbMaterial
  1
Global
  2

 70
0
 40
1.0
 71
1
 41
1.0
 91
-1023410177
 42
1.0
 72
1
  3

 73
1
 74
1
 75
1
 44
0.5
 73
0
 45
1.0
 46
1.0
 77
1
  4

 78
1
 79
1
170
1
 48
1.0
171
1
  6

172
1
173
1
174
1
140
1.0
141
1.0
175
1
  7

176
1
177
1
178
1
143
1.0
179
1
  8

270
1
271
1
272
1
145
1.0
146
1.0
273
1
  9

274
1
275
1
276
1
 42
1.0
 72
1
  3

 73
1
 74
1
 75
1
 94
63
  0
MLINESTYLE
  5
22
102
{ACAD_REACTORS
330
10
102
}
330
10
100
AcDbMlineStyle
  2
Standard
 70
0
  3

 62
256
 51
90.0
 52
90.0
 71
2
 49
0.5
 62
256
  6
BYLAYER
 49
-0.5
 62
256
  6
BYLAYER
  0
MLEADERSTYLE
  5
2C
102
{ACAD_REACTORS
330
F
102
}
330
F
100
AcDbMLeaderStyle
179
2
170
2
171
1
172
0
 90
2
 40
0.0
 41
0.0
173
1
 91
-1056964608
 92
-2
290
1
 42
2.0
291
1
 43
8.0
  3
Standard
 44
4.0
300

342
29
174
1
175
1
176
0
178
1
 93
-1056964608
 45
4.0
292
0
297
0
 46
4.0
 94
-1056964608
 47
1.0
 49
1.0
140
1.0
294
1
141
0.0
177
0
142
1.0
295
0
296
0
143
3.75
271
0
272
9
273
9
  0
DICTIONARY
  5
2D
330
A
100
AcDbDictionary
281
1
  3
CREATED_BY_EZDXF
350
2E
  3
WRITTEN_BY_EZDXF
350
C6F
  0
DICTIONARYVAR
  5
2E
330
2D
100
DictionaryVariables
280
0
  1
1.3.0 @ 2024-09-02T09:07:21.332935+00:00
  0
DICTIONARYVAR
  5
C6F
330
2D
100
DictionaryVariables
280
0
  1
1.3.0 @ 2024-09-02T09:07:21.446269+00:00
  0
ENDSEC
  0
EOF
